HanumanUI.ufo
<glyph name="numbersign" format="1">
  <advance width="1364"/>
  <unicode hex="0023"/>
  <outline>
    <contour>
      <point x="1020" y="853" type="line"/>
      <point x="961" y="565" type="line"/>
      <point x="1241" y="565" type="line"/>
      <point x="1241" y="388" type="line"/>
      <point x="930" y="388" type="line"/>
      <point x="848" y="-40" type="line"/>
      <point x="664" y="-40" type="line"/>
      <point x="748" y="388" type="line"/>
      <point x="494" y="388" type="line"/>
      <point x="412" y="-40" type="line"/>
      <point x="231" y="-40" type="line"/>
      <point x="309" y="388" type="line"/>
      <point x="51" y="388" type="line"/>
      <point x="51" y="565" type="line"/>
      <point x="339" y="565" type="line"/>
      <point x="401" y="853" type="line"/>
      <point x="127" y="853" type="line"/>
      <point x="127" y="1030" type="line"/>
      <point x="429" y="1030" type="line"/>
      <point x="511" y="1462" type="line"/>
      <point x="696" y="1462" type="line"/>
      <point x="614" y="1030" type="line"/>
      <point x="869" y="1030" type="line"/>
      <point x="953" y="1462" type="line"/>
      <point x="1135" y="1462" type="line"/>
      <point x="1051" y="1030" type="line"/>
      <point x="1313" y="1030" type="line"/>
      <point x="1313" y="853" type="line"/>
    </contour>
    <contour>
      <point x="524" y="565" type="line"/>
      <point x="777" y="565" type="line"/>
      <point x="838" y="853" type="line"/>
      <point x="584" y="853" type="line"/>
    </contour>
  </outline>
</glyph>
<glyph name="braceleft" format="1">
  <advance width="725"/>
  <unicode hex="007B"/>
  <outline>
    <contour>
      <point x="500" y="-16" type="line" smooth="yes"/>
      <point x="500" y="-64"/>
      <point x="524" y="-125"/>
      <point x="569" y="-160"/>
      <point x="634" y="-173"/>
      <point x="674" y="-174" type="qcurve"/>
      <point x="674" y="-324" type="line"/>
      <point x="597" y="-323"/>
      <point x="466" y="-290"/>
      <point x="371" y="-219"/>
      <point x="317" y="-109"/>
      <point x="317" y="-31" type="qcurve" smooth="yes"/>
      <point x="317" y="303" type="line" smooth="yes"/>
      <point x="317" y="406"/>
      <point x="186" y="492"/>
      <point x="61" y="492" type="qcurve"/>
      <point x="61" y="647" type="line"/>
      <point x="186" y="647"/>
      <point x="317" y="733"/>
      <point x="317" y="836" type="qcurve" smooth="yes"/>
      <point x="317" y="1169" type="line" smooth="yes"/>
      <point x="317" y="1247"/>
      <point x="371" y="1357"/>
      <point x="466" y="1428"/>
      <point x="597" y="1461"/>
      <point x="674" y="1462" type="qcurve"/>
      <point x="674" y="1313" type="line"/>
      <point x="634" y="1312"/>
      <point x="569" y="1299"/>
      <point x="524" y="1264"/>
      <point x="500" y="1203"/>
      <point x="500" y="1155" type="qcurve" smooth="yes"/>
      <point x="500" y="823" type="line" smooth="yes"/>
      <point x="500" y="718"/>
      <point x="381" y="595"/>
      <point x="266" y="575" type="qcurve"/>
      <point x="266" y="563" type="line"/>
      <point x="381" y="543"/>
      <point x="500" y="421"/>
      <point x="500" y="315" type="qcurve" smooth="yes"/>
    </contour>
  </outline>
</glyph>
<glyph name="braceright" format="1">
  <advance width="725"/>
  <unicode hex="007D"/>
  <outline>
    <contour>
      <point x="225" y="315" type="line" smooth="yes"/>
      <point x="225" y="421"/>
      <point x="344" y="543"/>
      <point x="459" y="563" type="qcurve"/>
      <point x="459" y="575" type="line"/>
      <point x="344" y="595"/>
      <point x="225" y="718"/>
      <point x="225" y="823" type="qcurve" smooth="yes"/>
      <point x="225" y="1155" type="line" smooth="yes"/>
      <point x="225" y="1203"/>
      <point x="201" y="1264"/>
      <point x="156" y="1299"/>
      <point x="91" y="1312"/>
      <point x="51" y="1313" type="qcurve"/>
      <point x="51" y="1462" type="line"/>
      <point x="128" y="1461"/>
      <point x="259" y="1428"/>
      <point x="354" y="1357"/>
      <point x="408" y="1247"/>
      <point x="408" y="1169" type="qcurve" smooth="yes"/>
      <point x="408" y="836" type="line" smooth="yes"/>
      <point x="408" y="784"/>
      <point x="441" y="712"/>
      <point x="506" y="667"/>
      <point x="602" y="647"/>
      <point x="664" y="647" type="qcurve"/>
      <point x="664" y="492" type="line"/>
      <point x="539" y="492"/>
      <point x="408" y="406"/>
      <point x="408" y="303" type="qcurve" smooth="yes"/>
      <point x="408" y="-31" type="line" smooth="yes"/>
      <point x="408" y="-109"/>
      <point x="354" y="-219"/>
      <point x="259" y="-290"/>
      <point x="128" y="-323"/>
      <point x="51" y="-324" type="qcurve"/>
      <point x="51" y="-174" type="line"/>
      <point x="91" y="-173"/>
      <point x="156" y="-160"/>
      <point x="201" y="-125"/>
      <point x="225" y="-64"/>
      <point x="225" y="-16" type="qcurve" smooth="yes"/>
    </contour>
  </outline>
</glyph>
<glyph name="asciitilde" format="1">
  <advance width="1128"/>
  <unicode hex="007E"/>
  <outline>
    <contour>
      <point x="530" y="651" type="qcurve" smooth="yes"/>
      <point x="493" y="667"/>
      <point x="438" y="689"/>
      <point x="393" y="702"/>
      <point x="352" y="707"/>
      <point x="330" y="707" type="qcurve" smooth="yes"/>
      <point x="302" y="707"/>
      <point x="242" y="688"/>
      <point x="183" y="655"/>
      <point x="127" y="611"/>
      <point x="102" y="586" type="qcurve"/>
      <point x="102" y="748" type="line"/>
      <point x="202" y="856"/>
      <point x="350" y="856" type="qcurve" smooth="yes"/>
      <point x="379" y="856"/>
      <point x="429" y="851"/>
      <point x="484" y="838"/>
      <point x="551" y="813"/>
      <point x="598" y="793" type="qcurve" smooth="yes"/>
      <point x="635" y="777"/>
      <point x="690" y="755"/>
      <point x="737" y="742"/>
      <point x="777" y="737"/>
      <point x="799" y="737" type="qcurve" smooth="yes"/>
      <point x="827" y="737"/>
      <point x="887" y="756"/>
      <point x="946" y="789"/>
      <point x="1002" y="833"/>
      <point x="1026" y="858" type="qcurve"/>
      <point x="1026" y="696" type="line"/>
      <point x="927" y="588"/>
      <point x="778" y="588" type="qcurve" smooth="yes"/>
      <point x="749" y="588"/>
      <point x="699" y="593"/>
      <point x="644" y="606"/>
      <point x="577" y="631"/>
    </contour>
  </outline>
</glyph>
<glyph name="uni1780" format="1">
  <advance width="1300"/>
  <unicode hex="1780"/>
  <outline>
    <contour>
      <point x="380" y="0" type="line"/>
      <point x="200" y="0" type="line"/>
      <point x="200" y="650" type="line" smooth="yes"/>
      <point x="200" y="800"/>
      <point x="300" y="875" type="qcurve" smooth="yes"/>
      <point x="400" y="950"/>
      <point x="650" y="950" type="qcurve" smooth="yes"/>
      <point x="900" y="950"/>
      <point x="1000" y="875" type="qcurve" smooth="yes"/>
      <point x="1100" y="800"/>
      <point x="1100" y="650" type="qcurve" smooth="yes"/>
      <point x="1100" y="0" type="line"/>
      <point x="920" y="0" type="line"/>
      <point x="920" y="650" type="line" smooth="yes"/>
      <point x="920" y="750"/>
      <point x="858" y="800" type="qcurve" smooth="yes"/>
      <point x="795" y="850"/>
      <point x="650" y="850" type="qcurve" smooth="yes"/>
      <point x="505" y="850"/>
      <point x="443" y="800" type="qcurve" smooth="yes"/>
      <point x="380" y="750"/>
      <point x="380" y="650" type="qcurve" smooth="yes"/>
    </contour>
    <contour>
      <point x="150" y="1067" type="qcurve" smooth="yes"/>
      <point x="150" y="1108"/>
      <point x="210" y="1156" type="qcurve" smooth="yes"/>
      <point x="271" y="1203" type="line" smooth="yes"/>
      <point x="391" y="1300"/>
      <point x="421" y="1300" type="qcurve" smooth="yes"/>
      <point x="456" y="1300"/>
      <point x="542" y="1238" type="qcurve" smooth="yes"/>
      <point x="629" y="1176"/>
      <point x="657" y="1176" type="qcurve" smooth="yes"/>
      <point x="680" y="1176"/>
      <point x="762" y="1238" type="qcurve" smooth="yes"/>
      <point x="843" y="1300"/>
      <point x="876" y="1300" type="qcurve" smooth="yes"/>
      <point x="909" y="1300"/>
      <point x="1007" y="1228" type="qcurve" smooth="yes"/>
      <point x="1103" y="1155"/>
      <point x="1120" y="1155" type="qcurve" smooth="yes"/>
      <point x="1136" y="1155"/>
      <point x="1150" y="1169" type="qcurve"/>
      <point x="1117" y="1039"/>
      <point x="1036" y="1039" type="qcurve" smooth="yes"/>
      <point x="996" y="1039"/>
      <point x="924" y="1087" type="qcurve" smooth="yes"/>
      <point x="853" y="1135"/>
      <point x="822" y="1135" type="qcurve" smooth="yes"/>
      <point x="783" y="1135"/>
      <point x="719" y="1087" type="qcurve" smooth="yes"/>
      <point x="653" y="1039"/>
      <point x="607" y="1039" type="qcurve" smooth="yes"/>
      <point x="541" y="1039"/>
      <point x="472" y="1087" type="qcurve" smooth="yes"/>
      <point x="403" y="1135"/>
      <point x="369" y="1135" type="qcurve" smooth="yes"/>
      <point x="329" y="1135"/>
      <point x="288" y="1097"/>
      <point x="288" y="1069" type="qcurve" smooth="yes"/>
      <point x="288" y="1030"/>
      <point x="416" y="1005" type="qcurve"/>
      <point x="273" y="944" type="line"/>
      <point x="150" y="962"/>
    </contour>
  </outline>
</glyph>
<glyph name="uni1781" format="1">
  <advance width="1300"/>
  <unicode hex="1781"/>
  <outline>
    <contour>
      <point x="200" y="525" type="line"/>
      <point x="638" y="692" type="line" smooth="yes"/>
      <point x="920" y="798"/>
      <point x="920" y="953" type="qcurve" smooth="yes"/>
      <point x="920" y="1077"/>
      <point x="858" y="1138" type="qcurve" smooth="yes"/>
      <point x="795" y="1200"/>
      <point x="650" y="1200" type="qcurve" smooth="yes"/>
      <point x="527" y="1200"/>
      <point x="466" y="1153" type="qcurve" smooth="yes"/>
      <point x="406" y="1106"/>
      <point x="387" y="1012" type="qcurve"/>
      <point x="409" y="1009"/>
      <point x="431" y="999" type="qcurve" smooth="yes"/>
      <point x="463" y="984"/>
      <point x="500" y="927"/>
      <point x="500" y="897" type="qcurve" smooth="yes"/>
      <point x="500" y="867"/>
      <point x="464" y="811"/>
      <point x="400" y="780"/>
      <point x="365" y="780" type="qcurve" smooth="yes"/>
      <point x="300" y="780"/>
      <point x="236" y="811"/>
      <point x="200" y="867"/>
      <point x="200" y="897" type="qcurve" smooth="yes"/>
      <point x="200" y="953" type="line" smooth="yes"/>
      <point x="200" y="1127"/>
      <point x="300" y="1213" type="qcurve" smooth="yes"/>
      <point x="400" y="1300"/>
      <point x="650" y="1300" type="qcurve" smooth="yes"/>
      <point x="900" y="1300"/>
      <point x="1000" y="1213" type="qcurve" smooth="yes"/>
      <point x="1100" y="1127"/>
      <point x="1100" y="953" type="qcurve" smooth="yes"/>
      <point x="1100" y="733"/>
      <point x="695" y="582" type="qcurve"/>
      <point x="380" y="456" type="line"/>
      <point x="380" y="347" type="line" smooth="yes"/>
      <point x="380" y="224"/>
      <point x="443" y="162" type="qcurve" smooth="yes"/>
      <point x="505" y="100"/>
      <point x="650" y="100" type="qcurve" smooth="yes"/>
      <point x="795" y="100"/>
      <point x="858" y="162" type="qcurve" smooth="yes"/>
      <point x="920" y="224"/>
      <point x="920" y="347" type="qcurve" smooth="yes"/>
      <point x="920" y="520" type="line"/>
      <point x="1100" y="520" type="line"/>
      <point x="1100" y="347" type="line" smooth="yes"/>
      <point x="1100" y="174"/>
      <point x="1000" y="87" type="qcurve" smooth="yes"/>
      <point x="900" y="0"/>
      <point x="650" y="0" type="qcurve" smooth="yes"/>
      <point x="400" y="0"/>
      <point x="300" y="87" type="qcurve" smooth="yes"/>
      <point x="200" y="174"/>
      <point x="200" y="347" type="qcurve" smooth="yes"/>
    </contour>
  </outline>
</glyph>
<glyph name="uni1784" format="1">
  <advance width="1300"/>
  <unicode hex="1784"/>
  <outline>
    <contour>
      <point x="870" y="1144" type="qcurve" smooth="yes"/>
      <point x="870" y="1196"/>
      <point x="820" y="1196" type="qcurve" smooth="yes"/>
      <point x="750" y="1196"/>
      <point x="750" y="1144" type="qcurve" smooth="yes"/>
      <point x="750" y="1115"/>
      <point x="833" y="1066" type="qcurve"/>
      <point x="870" y="1103"/>
    </contour>
    <contour>
      <point x="200" y="520" type="line"/>
      <point x="100" y="554"/>
      <point x="100" y="624" type="qcurve" smooth="yes"/>
      <point x="100" y="694"/>
      <point x="180" y="780"/>
      <point x="250" y="780" type="qcurve" smooth="yes"/>
      <point x="380" y="780"/>
      <point x="380" y="694" type="qcurve" smooth="yes"/>
      <point x="380" y="167" type="line"/>
      <point x="650" y="392" type="line"/>
      <point x="920" y="158" type="line"/>
      <point x="920" y="780" type="line" smooth="yes"/>
      <point x="920" y="873"/>
      <point x="864" y="923"/>
      <point x="828" y="944" type="qcurve"/>
      <point x="686" y="866"/>
      <point x="530" y="866" type="qcurve" smooth="yes"/>
      <point x="372" y="866"/>
      <point x="289" y="926" type="qcurve" smooth="yes"/>
      <point x="200" y="992"/>
      <point x="200" y="1126" type="qcurve" smooth="yes"/>
      <point x="200" y="1192"/>
      <point x="250" y="1318"/>
      <point x="250" y="1386" type="qcurve" smooth="yes"/>
      <point x="250" y="1474"/>
      <point x="150" y="1474" type="qcurve"/>
      <point x="150" y="1560"/>
      <point x="250" y="1560" type="qcurve" smooth="yes"/>
      <point x="430" y="1560"/>
      <point x="430" y="1386" type="qcurve" smooth="yes"/>
      <point x="430" y="1304"/>
      <point x="380" y="1196"/>
      <point x="380" y="1126" type="qcurve" smooth="yes"/>
      <point x="380" y="1041"/>
      <point x="460" y="973"/>
      <point x="530" y="973" type="qcurve" smooth="yes"/>
      <point x="634" y="973"/>
      <point x="735" y="1002" type="qcurve"/>
      <point x="630" y="1078"/>
      <point x="630" y="1144" type="qcurve" smooth="yes"/>
      <point x="630" y="1300"/>
      <point x="820" y="1300" type="qcurve" smooth="yes"/>
      <point x="1000" y="1300"/>
      <point x="1000" y="1144" type="qcurve" smooth="yes"/>
      <point x="1000" y="1077"/>
      <point x="932" y="1015" type="qcurve"/>
      <point x="953" y="1007"/>
      <point x="975" y="997" type="qcurve" smooth="yes"/>
      <point x="1100" y="939"/>
      <point x="1100" y="780" type="qcurve" smooth="yes"/>
      <point x="1100" y="0" type="line"/>
      <point x="950" y="0" type="line"/>
      <point x="650" y="260" type="line"/>
      <point x="350" y="0" type="line"/>
      <point x="200" y="0" type="line"/>
    </contour>
  </outline>
</glyph>
<glyph name="uni1785" format="1">
  <advance width="1300"/>
  <unicode hex="1785"/>
  <outline>
    <contour>
      <point x="920" y="650" type="line"/>
      <point x="850" y="685"/>
      <point x="850" y="754" type="qcurve" smooth="yes"/>
      <point x="850" y="823"/>
      <point x="890" y="867" type="qcurve" smooth="yes"/>
      <point x="930" y="910"/>
      <point x="1000" y="910" type="qcurve" smooth="yes"/>
      <point x="1100" y="910"/>
      <point x="1100" y="823" type="qcurve" smooth="yes"/>
      <point x="1100" y="300" type="line" smooth="yes"/>
      <point x="1100" y="150"/>
      <point x="1000" y="75" type="qcurve" smooth="yes"/>
      <point x="900" y="0"/>
      <point x="650" y="0" type="qcurve" smooth="yes"/>
      <point x="400" y="0"/>
      <point x="300" y="75" type="qcurve" smooth="yes"/>
      <point x="200" y="150"/>
      <point x="200" y="300" type="qcurve" smooth="yes"/>
      <point x="200" y="920" type="line"/>
      <point x="100" y="975"/>
      <point x="100" y="1067" type="qcurve" smooth="yes"/>
      <point x="100" y="1108"/>
      <point x="163" y="1156" type="qcurve" smooth="yes"/>
      <point x="227" y="1203" type="line" smooth="yes"/>
      <point x="353" y="1300"/>
      <point x="385" y="1300" type="qcurve" smooth="yes"/>
      <point x="421" y="1300"/>
      <point x="512" y="1238" type="qcurve" smooth="yes"/>
      <point x="603" y="1176"/>
      <point x="632" y="1176" type="qcurve" smooth="yes"/>
      <point x="657" y="1176"/>
      <point x="743" y="1238" type="qcurve" smooth="yes"/>
      <point x="828" y="1300"/>
      <point x="862" y="1300" type="qcurve" smooth="yes"/>
      <point x="897" y="1300"/>
      <point x="1000" y="1228" type="qcurve" smooth="yes"/>
      <point x="1101" y="1155"/>
      <point x="1119" y="1155" type="qcurve" smooth="yes"/>
      <point x="1135" y="1155"/>
      <point x="1150" y="1169" type="qcurve"/>
      <point x="1115" y="1039"/>
      <point x="1030" y="1039" type="qcurve" smooth="yes"/>
      <point x="988" y="1039"/>
      <point x="913" y="1087" type="qcurve" smooth="yes"/>
      <point x="838" y="1135"/>
      <point x="806" y="1135" type="qcurve" smooth="yes"/>
      <point x="765" y="1135"/>
      <point x="697" y="1087" type="qcurve" smooth="yes"/>
      <point x="628" y="1039"/>
      <point x="580" y="1039" type="qcurve" smooth="yes"/>
      <point x="511" y="1039"/>
      <point x="438" y="1087" type="qcurve" smooth="yes"/>
      <point x="366" y="1135"/>
      <point x="330" y="1135" type="qcurve" smooth="yes"/>
      <point x="288" y="1135"/>
      <point x="245" y="1097"/>
      <point x="245" y="1069" type="qcurve" smooth="yes"/>
      <point x="245" y="1030"/>
      <point x="380" y="975" type="qcurve"/>
      <point x="380" y="300" type="line" smooth="yes"/>
      <point x="380" y="200"/>
      <point x="443" y="150" type="qcurve" smooth="yes"/>
      <point x="505" y="100"/>
      <point x="650" y="100" type="qcurve" smooth="yes"/>
      <point x="795" y="100"/>
      <point x="858" y="150" type="qcurve" smooth="yes"/>
      <point x="920" y="200"/>
      <point x="920" y="300" type="qcurve" smooth="yes"/>
    </contour>
  </outline>
</glyph>
<glyph name="uni1786" format="1">
  <advance width="1300"/>
  <unicode hex="1786"/>
  <outline>
    <contour>
      <point x="895" y="637" type="qcurve" smooth="yes"/>
      <point x="920" y="637" type="line"/>
      <point x="920" y="770" type="line" smooth="yes"/>
      <point x="920" y="800"/>
      <point x="905" y="800" type="qcurve" smooth="yes"/>
      <point x="890" y="800"/>
      <point x="865" y="769" type="qcurve" smooth="yes"/>
      <point x="840" y="737"/>
      <point x="840" y="702" type="qcurve" smooth="yes"/>
      <point x="840" y="667"/>
      <point x="877" y="637"/>
    </contour>
    <contour>
      <point x="380" y="433" type="line"/>
      <point x="650" y="433"/>
      <point x="650" y="217" type="qcurve" smooth="yes"/>
      <point x="650" y="100"/>
      <point x="800" y="100" type="qcurve" smooth="yes"/>
      <point x="920" y="100"/>
      <point x="920" y="217" type="qcurve" smooth="yes"/>
      <point x="920" y="537" type="line"/>
      <point x="895" y="537" type="line" smooth="yes"/>
      <point x="827" y="537"/>
      <point x="784" y="581" type="qcurve" smooth="yes"/>
      <point x="740" y="624"/>
      <point x="740" y="702" type="qcurve" smooth="yes"/>
      <point x="740" y="780"/>
      <point x="790" y="845" type="qcurve" smooth="yes"/>
      <point x="840" y="910"/>
      <point x="920" y="910" type="qcurve" smooth="yes"/>
      <point x="1000" y="910"/>
      <point x="1050" y="877" type="qcurve" smooth="yes"/>
      <point x="1100" y="845"/>
      <point x="1100" y="770" type="qcurve" smooth="yes"/>
      <point x="1100" y="217" type="line" smooth="yes"/>
      <point x="1100" y="0"/>
      <point x="800" y="0" type="qcurve" smooth="yes"/>
      <point x="500" y="0"/>
      <point x="500" y="217" type="qcurve" smooth="yes"/>
      <point x="500" y="333"/>
      <point x="380" y="333" type="qcurve"/>
      <point x="380" y="173" type="line" smooth="yes"/>
      <point x="380" y="0"/>
      <point x="240" y="0" type="qcurve" smooth="yes"/>
      <point x="100" y="0"/>
      <point x="100" y="286" type="qcurve" smooth="yes"/>
      <point x="100" y="391"/>
      <point x="200" y="425" type="qcurve"/>
      <point x="200" y="920" type="line"/>
      <point x="100" y="975"/>
      <point x="100" y="1067" type="qcurve" smooth="yes"/>
      <point x="100" y="1108"/>
      <point x="163" y="1156" type="qcurve" smooth="yes"/>
      <point x="227" y="1203" type="line" smooth="yes"/>
      <point x="353" y="1300"/>
      <point x="385" y="1300" type="qcurve" smooth="yes"/>
      <point x="421" y="1300"/>
      <point x="512" y="1238" type="qcurve" smooth="yes"/>
      <point x="603" y="1176"/>
      <point x="632" y="1176" type="qcurve" smooth="yes"/>
      <point x="657" y="1176"/>
      <point x="743" y="1238" type="qcurve" smooth="yes"/>
      <point x="828" y="1300"/>
      <point x="862" y="1300" type="qcurve" smooth="yes"/>
      <point x="897" y="1300"/>
      <point x="1000" y="1228" type="qcurve" smooth="yes"/>
      <point x="1101" y="1155"/>
      <point x="1119" y="1155" type="qcurve" smooth="yes"/>
      <point x="1135" y="1155"/>
      <point x="1150" y="1169" type="qcurve"/>
      <point x="1115" y="1039"/>
      <point x="1030" y="1039" type="qcurve" smooth="yes"/>
      <point x="988" y="1039"/>
      <point x="913" y="1087" type="qcurve" smooth="yes"/>
      <point x="838" y="1135"/>
      <point x="806" y="1135" type="qcurve" smooth="yes"/>
      <point x="765" y="1135"/>
      <point x="697" y="1087" type="qcurve" smooth="yes"/>
      <point x="628" y="1039"/>
      <point x="580" y="1039" type="qcurve" smooth="yes"/>
      <point x="511" y="1039"/>
      <point x="438" y="1087" type="qcurve" smooth="yes"/>
      <point x="366" y="1135"/>
      <point x="330" y="1135" type="qcurve" smooth="yes"/>
      <point x="288" y="1135"/>
      <point x="245" y="1097"/>
      <point x="245" y="1069" type="qcurve" smooth="yes"/>
      <point x="245" y="1030"/>
      <point x="380" y="975" type="qcurve"/>
    </contour>
  </outline>
</glyph>
<glyph name="uni1787" format="1">
  <advance width="1300"/>
  <unicode hex="1787"/>
  <outline>
    <contour>
      <point x="920" y="158" type="line"/>
      <point x="920" y="910" type="line"/>
      <point x="1100" y="910" type="line"/>
      <point x="1100" y="0" type="line"/>
      <point x="950" y="0" type="line"/>
      <point x="650" y="260" type="line"/>
      <point x="350" y="0" type="line"/>
      <point x="200" y="0" type="line"/>
      <point x="200" y="941" type="line"/>
      <point x="100" y="990"/>
      <point x="100" y="1066" type="qcurve" smooth="yes"/>
      <point x="100" y="1133"/>
      <point x="165" y="1175" type="qcurve" smooth="yes"/>
      <point x="231" y="1215" type="line"/>
      <point x="362" y="1300"/>
      <point x="394" y="1300" type="qcurve" smooth="yes"/>
      <point x="453" y="1300"/>
      <point x="559" y="1233" type="qcurve"/>
      <point x="741" y="1127"/>
      <point x="840" y="1127" type="qcurve" smooth="yes"/>
      <point x="902" y="1127"/>
      <point x="931" y="1166" type="qcurve" smooth="yes"/>
      <point x="960" y="1205"/>
      <point x="960" y="1279" type="qcurve" smooth="yes"/>
      <point x="960" y="1331"/>
      <point x="880" y="1331" type="qcurve" smooth="yes"/>
      <point x="800" y="1331"/>
      <point x="800" y="1426" type="qcurve" smooth="yes"/>
      <point x="800" y="1491"/>
      <point x="880" y="1491" type="qcurve" smooth="yes"/>
      <point x="1100" y="1491"/>
      <point x="1100" y="1279" type="qcurve" smooth="yes"/>
      <point x="1100" y="1169"/>
      <point x="1020" y="1095" type="qcurve" smooth="yes"/>
      <point x="939" y="1020"/>
      <point x="840" y="1020" type="qcurve" smooth="yes"/>
      <point x="588" y="1020"/>
      <point x="477" y="1083" type="qcurve" smooth="yes"/>
      <point x="366" y="1145"/>
      <point x="335" y="1145" type="qcurve" smooth="yes"/>
      <point x="304" y="1145"/>
      <point x="277" y="1126" type="qcurve" smooth="yes"/>
      <point x="250" y="1106"/>
      <point x="250" y="1081" type="qcurve" smooth="yes"/>
      <point x="250" y="1057"/>
      <point x="380" y="996" type="qcurve"/>
      <point x="380" y="167" type="line"/>
      <point x="650" y="392" type="line"/>
    </contour>
  </outline>
</glyph>
<glyph name="uni1789" format="1">
  <advance width="1950"/>
  <unicode hex="1789"/>
  <outline>
    <contour>
      <point x="1570" y="-200" type="qcurve" smooth="yes"/>
      <point x="1570" y="-151"/>
      <point x="1505" y="-151" type="qcurve" smooth="yes"/>
      <point x="1443" y="-151"/>
      <point x="1443" y="-101" type="qcurve" smooth="yes"/>
      <point x="1443" y="-50"/>
      <point x="1505" y="-50" type="qcurve" smooth="yes"/>
      <point x="1750" y="-50"/>
      <point x="1750" y="-200" type="qcurve" smooth="yes"/>
      <point x="1750" y="-324"/>
      <point x="1635" y="-398" type="qcurve" smooth="yes"/>
      <point x="1474" y="-500"/>
      <point x="1089" y="-500" type="qcurve" smooth="yes"/>
      <point x="809" y="-500"/>
      <point x="595" y="-412" type="qcurve" smooth="yes"/>
      <point x="388" y="-327"/>
      <point x="241" y="-162" type="qcurve"/>
      <point x="200" y="-124"/>
      <point x="200" y="-87" type="qcurve" smooth="yes"/>
      <point x="200" y="-50"/>
      <point x="252" y="-50" type="qcurve" smooth="yes"/>
      <point x="303" y="-50"/>
      <point x="334" y="-87" type="qcurve"/>
      <point x="478" y="-224"/>
      <point x="666" y="-295" type="qcurve" smooth="yes"/>
      <point x="855" y="-365"/>
      <point x="1089" y="-365" type="qcurve" smooth="yes"/>
      <point x="1405" y="-365"/>
      <point x="1488" y="-313" type="qcurve" smooth="yes"/>
      <point x="1570" y="-263"/>
    </contour>
    <contour>
      <point x="380" y="130" type="line"/>
      <point x="440" y="130"/>
      <point x="470" y="177" type="qcurve" smooth="yes"/>
      <point x="500" y="224"/>
      <point x="500" y="317" type="qcurve" smooth="yes"/>
      <point x="500" y="359"/>
      <point x="470" y="379" type="qcurve" smooth="yes"/>
      <point x="440" y="400"/>
      <point x="380" y="400" type="qcurve"/>
    </contour>
    <contour>
      <point x="1100" y="0" type="line"/>
      <point x="920" y="0" type="line"/>
      <point x="920" y="1000" type="line" smooth="yes"/>
      <point x="920" y="1158"/>
      <point x="840" y="1158" type="qcurve" smooth="yes"/>
      <point x="771" y="1158"/>
      <point x="704" y="1056" type="qcurve" smooth="yes"/>
      <point x="682" y="1022"/>
      <point x="650" y="1022" type="qcurve" smooth="yes"/>
      <point x="618" y="1022"/>
      <point x="596" y="1056" type="qcurve" smooth="yes"/>
      <point x="530" y="1158"/>
      <point x="461" y="1158" type="qcurve" smooth="yes"/>
      <point x="380" y="1158"/>
      <point x="380" y="1000" type="qcurve" smooth="yes"/>
      <point x="380" y="500" type="line"/>
      <point x="490" y="500"/>
      <point x="545" y="454" type="qcurve" smooth="yes"/>
      <point x="600" y="409"/>
      <point x="600" y="317" type="qcurve" smooth="yes"/>
      <point x="600" y="173"/>
      <point x="538" y="87" type="qcurve" smooth="yes"/>
      <point x="475" y="0"/>
      <point x="350" y="0" type="qcurve" smooth="yes"/>
      <point x="200" y="0"/>
      <point x="200" y="87" type="qcurve" smooth="yes"/>
      <point x="200" y="1000" type="line" smooth="yes"/>
      <point x="200" y="1122"/>
      <point x="275" y="1211" type="qcurve" smooth="yes"/>
      <point x="350" y="1300"/>
      <point x="445" y="1300" type="qcurve" smooth="yes"/>
      <point x="539" y="1300"/>
      <point x="650" y="1166" type="qcurve"/>
      <point x="762" y="1300"/>
      <point x="857" y="1300" type="qcurve" smooth="yes"/>
      <point x="951" y="1300"/>
      <point x="1026" y="1211" type="qcurve" smooth="yes"/>
      <point x="1028" y="1209"/>
      <point x="1030" y="1206" type="qcurve" smooth="yes"/>
      <point x="1030" y="1207" type="line" smooth="yes"/>
      <point x="1032" y="1209"/>
      <point x="1035" y="1211" type="qcurve" smooth="yes"/>
      <point x="1150" y="1300"/>
      <point x="1336" y="1300" type="qcurve" smooth="yes"/>
      <point x="1521" y="1300"/>
      <point x="1636" y="1211" type="qcurve" smooth="yes"/>
      <point x="1750" y="1122"/>
      <point x="1750" y="1000" type="qcurve" smooth="yes"/>
      <point x="1750" y="0" type="line"/>
      <point x="1570" y="0" type="line"/>
      <point x="1570" y="1000" type="line" smooth="yes"/>
      <point x="1570" y="1080"/>
      <point x="1502" y="1140" type="qcurve" smooth="yes"/>
      <point x="1433" y="1200"/>
      <point x="1335" y="1200" type="qcurve" smooth="yes"/>
      <point x="1238" y="1200"/>
      <point x="1169" y="1140" type="qcurve" smooth="yes"/>
      <point x="1100" y="1080"/>
      <point x="1100" y="1000" type="qcurve" smooth="yes"/>
    </contour>
  </outline>
</glyph>
<glyph name="uni178A" format="1">
  <advance width="1300"/>
  <unicode hex="178A"/>
  <outline>
    <contour>
      <point x="377" y="1095" type="qcurve"/>
      <point x="400" y="1095" type="line" smooth="yes"/>
      <point x="450" y="1095"/>
      <point x="450" y="1132" type="qcurve" smooth="yes"/>
      <point x="450" y="1149"/>
      <point x="439" y="1158" type="qcurve" smooth="yes"/>
      <point x="426" y="1168"/>
      <point x="400" y="1168" type="qcurve" smooth="yes"/>
      <point x="375" y="1168"/>
      <point x="362" y="1159" type="qcurve" smooth="yes"/>
      <point x="350" y="1150"/>
      <point x="350" y="1132" type="qcurve" smooth="yes"/>
      <point x="350" y="1110"/>
    </contour>
    <contour>
      <point x="576" y="1051" type="qcurve" smooth="yes"/>
      <point x="615" y="1049"/>
      <point x="660" y="1049" type="qcurve" smooth="yes"/>
      <point x="862" y="1049"/>
      <point x="906" y="1100" type="qcurve" smooth="yes"/>
      <point x="950" y="1150"/>
      <point x="950" y="1215" type="qcurve" smooth="yes"/>
      <point x="950" y="1288"/>
      <point x="880" y="1288" type="qcurve" smooth="yes"/>
      <point x="800" y="1288"/>
      <point x="800" y="1383" type="qcurve" smooth="yes"/>
      <point x="800" y="1449"/>
      <point x="880" y="1449" type="qcurve" smooth="yes"/>
      <point x="990" y="1449"/>
      <point x="1045" y="1391" type="qcurve" smooth="yes"/>
      <point x="1100" y="1332"/>
      <point x="1100" y="1215" type="qcurve" smooth="yes"/>
      <point x="1100" y="1123"/>
      <point x="1000" y="1036" type="qcurve" smooth="yes"/>
      <point x="899" y="949"/>
      <point x="660" y="949" type="qcurve" smooth="yes"/>
      <point x="609" y="949"/>
      <point x="564" y="951" type="qcurve" smooth="yes"/>
      <point x="200" y="968"/>
      <point x="200" y="1125" type="qcurve" smooth="yes"/>
      <point x="200" y="1215"/>
      <point x="247" y="1259" type="qcurve" smooth="yes"/>
      <point x="290" y="1300"/>
      <point x="375" y="1300" type="qcurve" smooth="yes"/>
      <point x="471" y="1300"/>
      <point x="514" y="1253" type="qcurve" smooth="yes"/>
      <point x="550" y="1216"/>
      <point x="550" y="1153" type="qcurve" smooth="yes"/>
      <point x="550" y="1093"/>
      <point x="518" y="1055" type="qcurve"/>
      <point x="545" y="1052"/>
    </contour>
    <contour>
      <point x="380" y="167" type="line"/>
      <point x="650" y="392" type="line"/>
      <point x="920" y="158" type="line"/>
      <point x="920" y="870" type="line"/>
      <point x="1100" y="870" type="line"/>
      <point x="1100" y="0" type="line"/>
      <point x="950" y="0" type="line"/>
      <point x="650" y="260" type="line"/>
      <point x="350" y="0" type="line"/>
      <point x="200" y="0" type="line"/>
      <point x="200" y="870" type="line"/>
      <point x="380" y="870" type="line"/>
    </contour>
  </outline>
</glyph>
<glyph name="uni178C" format="1">
  <advance width="1300"/>
  <unicode hex="178C"/>
  <outline>
    <contour>
      <point x="380" y="1012" type="qcurve"/>
      <point x="409" y="1009"/>
      <point x="431" y="999" type="qcurve" smooth="yes"/>
      <point x="463" y="984"/>
      <point x="500" y="927"/>
      <point x="500" y="897" type="qcurve" smooth="yes"/>
      <point x="500" y="867"/>
      <point x="464" y="811"/>
      <point x="400" y="780"/>
      <point x="365" y="780" type="qcurve" smooth="yes"/>
      <point x="300" y="780"/>
      <point x="236" y="811"/>
      <point x="200" y="867"/>
      <point x="200" y="897" type="qcurve" smooth="yes"/>
      <point x="200" y="1000" type="line" smooth="yes"/>
      <point x="200" y="1122"/>
      <point x="275" y="1211" type="qcurve" smooth="yes"/>
      <point x="350" y="1300"/>
      <point x="445" y="1300" type="qcurve" smooth="yes"/>
      <point x="539" y="1300"/>
      <point x="650" y="1166" type="qcurve"/>
      <point x="762" y="1300"/>
      <point x="857" y="1300" type="qcurve" smooth="yes"/>
      <point x="951" y="1300"/>
      <point x="1026" y="1211" type="qcurve" smooth="yes"/>
      <point x="1100" y="1122"/>
      <point x="1100" y="1000" type="qcurve" smooth="yes"/>
      <point x="1100" y="923" type="line" smooth="yes"/>
      <point x="1100" y="703"/>
      <point x="695" y="552" type="qcurve"/>
      <point x="380" y="426" type="line"/>
      <point x="380" y="347" type="line" smooth="yes"/>
      <point x="380" y="224"/>
      <point x="465" y="130"/>
      <point x="550" y="130" type="qcurve" smooth="yes"/>
      <point x="655" y="130"/>
      <point x="788" y="202" type="qcurve" smooth="yes"/>
      <point x="919" y="274"/>
      <point x="920" y="346" type="qcurve" smooth="yes"/>
      <point x="920" y="520" type="line"/>
      <point x="1100" y="520" type="line"/>
      <point x="1100" y="-50" type="line"/>
      <point x="920" y="-50" type="line"/>
      <point x="920" y="144" type="line"/>
      <point x="902" y="128"/>
      <point x="880" y="112" type="qcurve" smooth="yes"/>
      <point x="730" y="0"/>
      <point x="550" y="0" type="qcurve" smooth="yes"/>
      <point x="360" y="0"/>
      <point x="200" y="174"/>
      <point x="200" y="347" type="qcurve" smooth="yes"/>
      <point x="200" y="495" type="line"/>
      <point x="638" y="662" type="line" smooth="yes"/>
      <point x="920" y="768"/>
      <point x="920" y="923" type="qcurve" smooth="yes"/>
      <point x="920" y="1000" type="line" smooth="yes"/>
      <point x="920" y="1158"/>
      <point x="840" y="1158" type="qcurve" smooth="yes"/>
      <point x="771" y="1158"/>
      <point x="704" y="1056" type="qcurve" smooth="yes"/>
      <point x="682" y="1022"/>
      <point x="650" y="1022" type="qcurve" smooth="yes"/>
      <point x="618" y="1022"/>
      <point x="596" y="1056" type="qcurve" smooth="yes"/>
      <point x="530" y="1158"/>
      <point x="461" y="1158" type="qcurve" smooth="yes"/>
      <point x="383" y="1158"/>
    </contour>
  </outline>
</glyph>
<glyph name="uni178D" format="1">
  <advance width="1950"/>
  <unicode hex="178D"/>
  <outline>
    <contour>
      <point x="380" y="130" type="line"/>
      <point x="440" y="130"/>
      <point x="470" y="177" type="qcurve" smooth="yes"/>
      <point x="500" y="224"/>
      <point x="500" y="317" type="qcurve" smooth="yes"/>
      <point x="500" y="359"/>
      <point x="470" y="379" type="qcurve" smooth="yes"/>
      <point x="440" y="400"/>
      <point x="380" y="400" type="qcurve"/>
    </contour>
    <contour>
      <point x="380" y="500" type="line"/>
      <point x="490" y="500"/>
      <point x="545" y="454" type="qcurve" smooth="yes"/>
      <point x="600" y="409"/>
      <point x="600" y="317" type="qcurve" smooth="yes"/>
      <point x="600" y="173"/>
      <point x="538" y="87" type="qcurve" smooth="yes"/>
      <point x="475" y="0"/>
      <point x="350" y="0" type="qcurve" smooth="yes"/>
      <point x="200" y="0"/>
      <point x="200" y="87" type="qcurve" smooth="yes"/>
      <point x="200" y="1000" type="line" smooth="yes"/>
      <point x="200" y="1122"/>
      <point x="275" y="1211" type="qcurve" smooth="yes"/>
      <point x="350" y="1300"/>
      <point x="445" y="1300" type="qcurve" smooth="yes"/>
      <point x="539" y="1300"/>
      <point x="650" y="1166" type="qcurve"/>
      <point x="762" y="1300"/>
      <point x="857" y="1300" type="qcurve" smooth="yes"/>
      <point x="951" y="1300"/>
      <point x="1026" y="1211" type="qcurve" smooth="yes"/>
      <point x="1100" y="1122"/>
      <point x="1100" y="1000" type="qcurve" smooth="yes"/>
      <point x="1100" y="433" type="line"/>
      <point x="1340" y="433"/>
      <point x="1340" y="217" type="qcurve" smooth="yes"/>
      <point x="1340" y="100"/>
      <point x="1455" y="100" type="qcurve" smooth="yes"/>
      <point x="1570" y="100"/>
      <point x="1570" y="217" type="qcurve" smooth="yes"/>
      <point x="1570" y="831" type="line" smooth="yes"/>
      <point x="1570" y="922"/>
      <point x="1440" y="950" type="qcurve"/>
      <point x="1456" y="1068"/>
      <point x="1518" y="1184" type="qcurve" smooth="yes"/>
      <point x="1580" y="1300"/>
      <point x="1623" y="1300" type="qcurve" smooth="yes"/>
      <point x="1657" y="1300"/>
      <point x="1713" y="1263" type="qcurve" smooth="yes"/>
      <point x="1768" y="1225" type="line" smooth="yes"/>
      <point x="1793" y="1209"/>
      <point x="1813" y="1209" type="qcurve" smooth="yes"/>
      <point x="1833" y="1209"/>
      <point x="1850" y="1223" type="qcurve"/>
      <point x="1845" y="1143"/>
      <point x="1796" y="1060"/>
      <point x="1757" y="1055" type="qcurve" smooth="yes"/>
      <point x="1752" y="1054"/>
      <point x="1747" y="1054" type="qcurve" smooth="yes"/>
      <point x="1709" y="1054"/>
      <point x="1649" y="1090" type="qcurve" smooth="yes"/>
      <point x="1617" y="1108"/>
      <point x="1596" y="1108" type="qcurve" smooth="yes"/>
      <point x="1569" y="1108"/>
      <point x="1557" y="1030" type="qcurve"/>
      <point x="1750" y="979"/>
      <point x="1750" y="910" type="qcurve" smooth="yes"/>
      <point x="1750" y="217" type="line" smooth="yes"/>
      <point x="1750" y="0"/>
      <point x="1470" y="0" type="qcurve" smooth="yes"/>
      <point x="1190" y="0"/>
      <point x="1190" y="217" type="qcurve" smooth="yes"/>
      <point x="1190" y="333"/>
      <point x="1100" y="333" type="qcurve"/>
      <point x="1100" y="173" type="line" smooth="yes"/>
      <point x="1100" y="0"/>
      <point x="960" y="0" type="qcurve" smooth="yes"/>
      <point x="820" y="0"/>
      <point x="820" y="286" type="qcurve" smooth="yes"/>
      <point x="820" y="391"/>
      <point x="920" y="425" type="qcurve"/>
      <point x="920" y="1000" type="line" smooth="yes"/>
      <point x="920" y="1158"/>
      <point x="840" y="1158" type="qcurve" smooth="yes"/>
      <point x="771" y="1158"/>
      <point x="704" y="1056" type="qcurve" smooth="yes"/>
      <point x="682" y="1022"/>
      <point x="650" y="1022" type="qcurve" smooth="yes"/>
      <point x="618" y="1022"/>
      <point x="596" y="1056" type="qcurve" smooth="yes"/>
      <point x="530" y="1158"/>
      <point x="461" y="1158" type="qcurve" smooth="yes"/>
      <point x="380" y="1158"/>
      <point x="380" y="1000" type="qcurve" smooth="yes"/>
    </contour>
  </outline>
</glyph>
<glyph name="uni1791" format="1">
  <advance width="1300"/>
  <unicode hex="1791"/>
  <outline>
    <contour>
      <point x="950" y="577" type="qcurve"/>
      <point x="1000" y="577"/>
      <point x="1000" y="611" type="qcurve" smooth="yes"/>
      <point x="1000" y="633"/>
      <point x="975" y="633" type="qcurve" smooth="yes"/>
      <point x="950" y="633"/>
    </contour>
    <contour>
      <point x="1100" y="957" type="line" smooth="yes"/>
      <point x="1100" y="927"/>
      <point x="1064" y="871"/>
      <point x="1000" y="840"/>
      <point x="935" y="840" type="qcurve" smooth="yes"/>
      <point x="900" y="840"/>
      <point x="836" y="871"/>
      <point x="800" y="927"/>
      <point x="800" y="957" type="qcurve" smooth="yes"/>
      <point x="800" y="987"/>
      <point x="837" y="1044"/>
      <point x="869" y="1059" type="qcurve" smooth="yes"/>
      <point x="883" y="1065"/>
      <point x="896" y="1069" type="qcurve"/>
      <point x="874" y="1121"/>
      <point x="834" y="1153" type="qcurve" smooth="yes"/>
      <point x="773" y="1200"/>
      <point x="650" y="1200" type="qcurve" smooth="yes"/>
      <point x="505" y="1200"/>
      <point x="442" y="1138" type="qcurve" smooth="yes"/>
      <point x="380" y="1077"/>
      <point x="380" y="953" type="qcurve" smooth="yes"/>
      <point x="380" y="880" type="line" smooth="yes"/>
      <point x="380" y="729"/>
      <point x="478" y="653" type="qcurve" smooth="yes"/>
      <point x="575" y="577"/>
      <point x="770" y="577" type="qcurve"/>
      <point x="770" y="737"/>
      <point x="975" y="737" type="qcurve" smooth="yes"/>
      <point x="1100" y="737"/>
      <point x="1100" y="611" type="qcurve" smooth="yes"/>
      <point x="1100" y="477"/>
      <point x="950" y="477" type="qcurve"/>
      <point x="950" y="260" type="line" smooth="yes"/>
      <point x="950" y="130"/>
      <point x="875" y="65" type="qcurve" smooth="yes"/>
      <point x="800" y="0"/>
      <point x="650" y="0" type="qcurve" smooth="yes"/>
      <point x="485" y="0"/>
      <point x="403" y="65" type="qcurve" smooth="yes"/>
      <point x="320" y="130"/>
      <point x="320" y="260" type="qcurve" smooth="yes"/>
      <point x="320" y="407" type="line"/>
      <point x="500" y="407" type="line"/>
      <point x="500" y="260" type="line" smooth="yes"/>
      <point x="500" y="180"/>
      <point x="538" y="140" type="qcurve" smooth="yes"/>
      <point x="575" y="100"/>
      <point x="650" y="100" type="qcurve" smooth="yes"/>
      <point x="710" y="100"/>
      <point x="740" y="140" type="qcurve" smooth="yes"/>
      <point x="770" y="180"/>
      <point x="770" y="260" type="qcurve" smooth="yes"/>
      <point x="770" y="477" type="line"/>
      <point x="485" y="477"/>
      <point x="343" y="578" type="qcurve" smooth="yes"/>
      <point x="200" y="679"/>
      <point x="200" y="880" type="qcurve" smooth="yes"/>
      <point x="200" y="953" type="line" smooth="yes"/>
      <point x="200" y="1127"/>
      <point x="300" y="1213" type="qcurve" smooth="yes"/>
      <point x="400" y="1300"/>
      <point x="650" y="1300" type="qcurve" smooth="yes"/>
      <point x="900" y="1300"/>
      <point x="1000" y="1213" type="qcurve" smooth="yes"/>
      <point x="1100" y="1127"/>
      <point x="1100" y="993" type="qcurve" smooth="yes"/>
    </contour>
  </outline>
</glyph>
<glyph name="uni1792" format="1">
  <advance width="1300"/>
  <unicode hex="1792"/>
  <outline>
    <contour>
      <point x="200" y="920" type="line"/>
      <point x="100" y="975"/>
      <point x="100" y="1067" type="qcurve" smooth="yes"/>
      <point x="100" y="1108"/>
      <point x="163" y="1156" type="qcurve" smooth="yes"/>
      <point x="227" y="1203" type="line" smooth="yes"/>
      <point x="353" y="1300"/>
      <point x="385" y="1300" type="qcurve" smooth="yes"/>
      <point x="421" y="1300"/>
      <point x="512" y="1238" type="qcurve" smooth="yes"/>
      <point x="603" y="1176"/>
      <point x="632" y="1176" type="qcurve" smooth="yes"/>
      <point x="657" y="1176"/>
      <point x="743" y="1238" type="qcurve" smooth="yes"/>
      <point x="828" y="1300"/>
      <point x="862" y="1300" type="qcurve" smooth="yes"/>
      <point x="897" y="1300"/>
      <point x="1000" y="1228" type="qcurve" smooth="yes"/>
      <point x="1101" y="1155"/>
      <point x="1119" y="1155" type="qcurve" smooth="yes"/>
      <point x="1135" y="1155"/>
      <point x="1150" y="1169" type="qcurve"/>
      <point x="1115" y="1039"/>
      <point x="1030" y="1039" type="qcurve" smooth="yes"/>
      <point x="988" y="1039"/>
      <point x="913" y="1087" type="qcurve" smooth="yes"/>
      <point x="838" y="1135"/>
      <point x="806" y="1135" type="qcurve" smooth="yes"/>
      <point x="765" y="1135"/>
      <point x="697" y="1087" type="qcurve" smooth="yes"/>
      <point x="628" y="1039"/>
      <point x="580" y="1039" type="qcurve" smooth="yes"/>
      <point x="511" y="1039"/>
      <point x="438" y="1087" type="qcurve" smooth="yes"/>
      <point x="366" y="1135"/>
      <point x="330" y="1135" type="qcurve" smooth="yes"/>
      <point x="288" y="1135"/>
      <point x="245" y="1097"/>
      <point x="245" y="1069" type="qcurve" smooth="yes"/>
      <point x="245" y="1030"/>
      <point x="380" y="975" type="qcurve"/>
      <point x="380" y="167" type="line"/>
      <point x="650" y="392" type="line"/>
      <point x="920" y="158" type="line"/>
      <point x="920" y="650" type="line"/>
      <point x="850" y="685"/>
      <point x="850" y="754" type="qcurve" smooth="yes"/>
      <point x="850" y="823"/>
      <point x="890" y="867" type="qcurve" smooth="yes"/>
      <point x="930" y="910"/>
      <point x="1000" y="910" type="qcurve" smooth="yes"/>
      <point x="1100" y="910"/>
      <point x="1100" y="823" type="qcurve" smooth="yes"/>
      <point x="1100" y="0" type="line"/>
      <point x="950" y="0" type="line"/>
      <point x="650" y="260" type="line"/>
      <point x="350" y="0" type="line"/>
      <point x="200" y="0" type="line"/>
    </contour>
  </outline>
</glyph>
<glyph name="uni1793" format="1">
  <advance width="1300"/>
  <unicode hex="1793"/>
  <outline>
    <contour>
      <point x="380" y="953" type="qcurve" smooth="yes"/>
      <point x="380" y="860"/>
      <point x="470" y="782" type="qcurve" smooth="yes"/>
      <point x="560" y="704"/>
      <point x="740" y="641" type="qcurve" smooth="yes"/>
      <point x="1100" y="515" type="line"/>
      <point x="1100" y="260" type="line" smooth="yes"/>
      <point x="1100" y="0"/>
      <point x="815" y="0" type="qcurve" smooth="yes"/>
      <point x="684" y="0"/>
      <point x="580" y="124" type="qcurve" smooth="yes"/>
      <point x="476" y="247"/>
      <point x="380" y="247" type="qcurve"/>
      <point x="380" y="0" type="line"/>
      <point x="200" y="0" type="line"/>
      <point x="200" y="520" type="line"/>
      <point x="380" y="520" type="line"/>
      <point x="380" y="347" type="line"/>
      <point x="505" y="347"/>
      <point x="620" y="224" type="qcurve" smooth="yes"/>
      <point x="734" y="100"/>
      <point x="815" y="100" type="qcurve" smooth="yes"/>
      <point x="920" y="100"/>
      <point x="920" y="260" type="qcurve" smooth="yes"/>
      <point x="920" y="454" type="line"/>
      <point x="560" y="578" type="line" smooth="yes"/>
      <point x="380" y="640"/>
      <point x="290" y="734" type="qcurve" smooth="yes"/>
      <point x="200" y="828"/>
      <point x="200" y="953" type="qcurve" smooth="yes"/>
      <point x="200" y="1127"/>
      <point x="300" y="1213" type="qcurve" smooth="yes"/>
      <point x="400" y="1300"/>
      <point x="650" y="1300" type="qcurve" smooth="yes"/>
      <point x="900" y="1300"/>
      <point x="1000" y="1213" type="qcurve" smooth="yes"/>
      <point x="1100" y="1127"/>
      <point x="1100" y="953" type="qcurve" smooth="yes"/>
      <point x="1100" y="897" type="line" smooth="yes"/>
      <point x="1100" y="867"/>
      <point x="1064" y="811"/>
      <point x="1000" y="780"/>
      <point x="935" y="780" type="qcurve" smooth="yes"/>
      <point x="900" y="780"/>
      <point x="836" y="811"/>
      <point x="800" y="867"/>
      <point x="800" y="897" type="qcurve" smooth="yes"/>
      <point x="800" y="927"/>
      <point x="837" y="984"/>
      <point x="869" y="999" type="qcurve" smooth="yes"/>
      <point x="891" y="1009"/>
      <point x="913" y="1012" type="qcurve"/>
      <point x="894" y="1106"/>
      <point x="834" y="1153" type="qcurve" smooth="yes"/>
      <point x="773" y="1200"/>
      <point x="650" y="1200" type="qcurve" smooth="yes"/>
      <point x="505" y="1200"/>
      <point x="442" y="1138" type="qcurve" smooth="yes"/>
      <point x="380" y="1077"/>
    </contour>
  </outline>
</glyph>
<glyph name="uni1795" format="1">
  <advance width="1300"/>
  <unicode hex="1795"/>
  <outline>
    <contour>
      <point x="920" y="637" type="line"/>
      <point x="920" y="770" type="line" smooth="yes"/>
      <point x="920" y="800"/>
      <point x="905" y="800" type="qcurve" smooth="yes"/>
      <point x="890" y="800"/>
      <point x="865" y="769" type="qcurve" smooth="yes"/>
      <point x="840" y="737"/>
      <point x="840" y="702" type="qcurve" smooth="yes"/>
      <point x="840" y="667"/>
      <point x="877" y="637"/>
      <point x="895" y="637" type="qcurve" smooth="yes"/>
    </contour>
    <contour>
      <point x="1100" y="0" type="line"/>
      <point x="950" y="0" type="line"/>
      <point x="650" y="260" type="line"/>
      <point x="350" y="0" type="line"/>
      <point x="200" y="0" type="line"/>
      <point x="200" y="941" type="line"/>
      <point x="100" y="990"/>
      <point x="100" y="1066" type="qcurve" smooth="yes"/>
      <point x="100" y="1133"/>
      <point x="165" y="1175" type="qcurve" smooth="yes"/>
      <point x="231" y="1215" type="line"/>
      <point x="362" y="1300"/>
      <point x="394" y="1300" type="qcurve" smooth="yes"/>
      <point x="453" y="1300"/>
      <point x="559" y="1233" type="qcurve"/>
      <point x="741" y="1127"/>
      <point x="840" y="1127" type="qcurve" smooth="yes"/>
      <point x="902" y="1127"/>
      <point x="931" y="1166" type="qcurve" smooth="yes"/>
      <point x="960" y="1205"/>
      <point x="960" y="1279" type="qcurve" smooth="yes"/>
      <point x="960" y="1331"/>
      <point x="880" y="1331" type="qcurve" smooth="yes"/>
      <point x="800" y="1331"/>
      <point x="800" y="1426" type="qcurve" smooth="yes"/>
      <point x="800" y="1491"/>
      <point x="880" y="1491" type="qcurve" smooth="yes"/>
      <point x="1100" y="1491"/>
      <point x="1100" y="1279" type="qcurve" smooth="yes"/>
      <point x="1100" y="1169"/>
      <point x="1020" y="1095" type="qcurve" smooth="yes"/>
      <point x="939" y="1020"/>
      <point x="840" y="1020" type="qcurve" smooth="yes"/>
      <point x="588" y="1020"/>
      <point x="477" y="1083" type="qcurve" smooth="yes"/>
      <point x="366" y="1145"/>
      <point x="335" y="1145" type="qcurve" smooth="yes"/>
      <point x="304" y="1145"/>
      <point x="277" y="1126" type="qcurve" smooth="yes"/>
      <point x="250" y="1106"/>
      <point x="250" y="1081" type="qcurve" smooth="yes"/>
      <point x="250" y="1057"/>
      <point x="380" y="996" type="qcurve"/>
      <point x="380" y="167" type="line"/>
      <point x="650" y="392" type="line"/>
      <point x="920" y="158" type="line"/>
      <point x="920" y="537" type="line"/>
      <point x="895" y="537" type="line" smooth="yes"/>
      <point x="827" y="537"/>
      <point x="784" y="581" type="qcurve" smooth="yes"/>
      <point x="740" y="624"/>
      <point x="740" y="702" type="qcurve" smooth="yes"/>
      <point x="740" y="780"/>
      <point x="790" y="845" type="qcurve" smooth="yes"/>
      <point x="840" y="910"/>
      <point x="920" y="910" type="qcurve" smooth="yes"/>
      <point x="1000" y="910"/>
      <point x="1050" y="877" type="qcurve" smooth="yes"/>
      <point x="1100" y="845"/>
      <point x="1100" y="770" type="qcurve" smooth="yes"/>
    </contour>
  </outline>
</glyph>
<glyph name="uni1796" format="1">
  <advance width="1300"/>
  <unicode hex="1796"/>
  <outline>
    <contour>
      <point x="380" y="130" type="line"/>
      <point x="440" y="130"/>
      <point x="470" y="177" type="qcurve" smooth="yes"/>
      <point x="500" y="224"/>
      <point x="500" y="317" type="qcurve" smooth="yes"/>
      <point x="500" y="359"/>
      <point x="470" y="379" type="qcurve" smooth="yes"/>
      <point x="440" y="400"/>
      <point x="380" y="400" type="qcurve"/>
    </contour>
    <contour>
      <point x="596" y="1056" type="qcurve" smooth="yes"/>
      <point x="530" y="1158"/>
      <point x="461" y="1158" type="qcurve" smooth="yes"/>
      <point x="380" y="1158"/>
      <point x="380" y="1000" type="qcurve" smooth="yes"/>
      <point x="380" y="500" type="line"/>
      <point x="490" y="500"/>
      <point x="545" y="454" type="qcurve" smooth="yes"/>
      <point x="600" y="409"/>
      <point x="600" y="317" type="qcurve" smooth="yes"/>
      <point x="600" y="173"/>
      <point x="538" y="87" type="qcurve" smooth="yes"/>
      <point x="475" y="0"/>
      <point x="350" y="0" type="qcurve" smooth="yes"/>
      <point x="200" y="0"/>
      <point x="200" y="87" type="qcurve" smooth="yes"/>
      <point x="200" y="1000" type="line" smooth="yes"/>
      <point x="200" y="1122"/>
      <point x="275" y="1211" type="qcurve" smooth="yes"/>
      <point x="350" y="1300"/>
      <point x="445" y="1300" type="qcurve" smooth="yes"/>
      <point x="539" y="1300"/>
      <point x="650" y="1166" type="qcurve"/>
      <point x="762" y="1300"/>
      <point x="857" y="1300" type="qcurve" smooth="yes"/>
      <point x="951" y="1300"/>
      <point x="1026" y="1211" type="qcurve" smooth="yes"/>
      <point x="1100" y="1122"/>
      <point x="1100" y="1000" type="qcurve" smooth="yes"/>
      <point x="1100" y="0" type="line"/>
      <point x="920" y="0" type="line"/>
      <point x="920" y="1000" type="line" smooth="yes"/>
      <point x="920" y="1158"/>
      <point x="840" y="1158" type="qcurve" smooth="yes"/>
      <point x="771" y="1158"/>
      <point x="704" y="1056" type="qcurve" smooth="yes"/>
      <point x="682" y="1022"/>
      <point x="650" y="1022" type="qcurve" smooth="yes"/>
      <point x="618" y="1022"/>
    </contour>
  </outline>
</glyph>
<glyph name="uni179A" format="1">
  <advance width="580"/>
  <unicode hex="179A"/>
  <outline>
    <contour>
      <point x="200" y="333" type="line"/>
      <point x="150" y="333"/>
      <point x="150" y="267" type="qcurve" smooth="yes"/>
      <point x="150" y="113"/>
      <point x="200" y="113" type="qcurve"/>
    </contour>
    <contour>
      <point x="380" y="98" type="line" smooth="yes"/>
      <point x="380" y="0"/>
      <point x="280" y="0" type="qcurve" smooth="yes"/>
      <point x="200" y="0" type="line" smooth="yes"/>
      <point x="50" y="0"/>
      <point x="50" y="267" type="qcurve" smooth="yes"/>
      <point x="50" y="433"/>
      <point x="200" y="433" type="qcurve"/>
      <point x="200" y="831" type="line" smooth="yes"/>
      <point x="200" y="922"/>
      <point x="50" y="950" type="qcurve"/>
      <point x="67" y="1068"/>
      <point x="132" y="1184" type="qcurve" smooth="yes"/>
      <point x="197" y="1300"/>
      <point x="242" y="1300" type="qcurve" smooth="yes"/>
      <point x="278" y="1300"/>
      <point x="336" y="1263" type="qcurve" smooth="yes"/>
      <point x="394" y="1225" type="line" smooth="yes"/>
      <point x="420" y="1209"/>
      <point x="441" y="1209" type="qcurve" smooth="yes"/>
      <point x="462" y="1209"/>
      <point x="480" y="1223" type="qcurve"/>
      <point x="475" y="1143"/>
      <point x="423" y="1060"/>
      <point x="382" y="1055" type="qcurve" smooth="yes"/>
      <point x="377" y="1054"/>
      <point x="372" y="1054" type="qcurve" smooth="yes"/>
      <point x="332" y="1054"/>
      <point x="269" y="1090" type="qcurve" smooth="yes"/>
      <point x="236" y="1108"/>
      <point x="214" y="1108" type="qcurve" smooth="yes"/>
      <point x="185" y="1108"/>
      <point x="173" y="1030" type="qcurve"/>
      <point x="380" y="979"/>
      <point x="380" y="910" type="qcurve" smooth="yes"/>
    </contour>
  </outline>
</glyph>
<glyph name="uni179C" format="1">
  <advance width="580"/>
  <unicode hex="179C"/>
  <outline>
    <contour>
      <point x="200" y="333" type="line"/>
      <point x="150" y="333"/>
      <point x="150" y="267" type="qcurve" smooth="yes"/>
      <point x="150" y="113"/>
      <point x="200" y="113" type="qcurve"/>
    </contour>
    <contour>
      <point x="380" y="98" type="line" smooth="yes"/>
      <point x="380" y="0"/>
      <point x="280" y="0" type="qcurve" smooth="yes"/>
      <point x="200" y="0" type="line" smooth="yes"/>
      <point x="50" y="0"/>
      <point x="50" y="267" type="qcurve" smooth="yes"/>
      <point x="50" y="433"/>
      <point x="200" y="433" type="qcurve"/>
      <point x="200" y="831" type="line" smooth="yes"/>
      <point x="200" y="922"/>
      <point x="50" y="950" type="qcurve"/>
      <point x="56" y="1068"/>
      <point x="180" y="1300"/>
      <point x="223" y="1300" type="qcurve" smooth="yes"/>
      <point x="257" y="1300"/>
      <point x="313" y="1263" type="qcurve" smooth="yes"/>
      <point x="339" y="1245" type="line" smooth="yes"/>
      <point x="344" y="1243"/>
      <point x="349" y="1243" type="qcurve" smooth="yes"/>
      <point x="380" y="1243"/>
      <point x="380" y="1322" type="qcurve" smooth="yes"/>
      <point x="380" y="1386"/>
      <point x="280" y="1386" type="qcurve" smooth="yes"/>
      <point x="180" y="1386"/>
      <point x="180" y="1468" type="qcurve" smooth="yes"/>
      <point x="180" y="1549"/>
      <point x="280" y="1549" type="qcurve" smooth="yes"/>
      <point x="480" y="1549"/>
      <point x="480" y="1322" type="qcurve" smooth="yes"/>
      <point x="480" y="1273" type="line"/>
      <point x="475" y="1133"/>
      <point x="406" y="1054"/>
      <point x="368" y="1054" type="qcurve" smooth="yes"/>
      <point x="329" y="1054"/>
      <point x="269" y="1090" type="qcurve" smooth="yes"/>
      <point x="237" y="1108"/>
      <point x="216" y="1108" type="qcurve" smooth="yes"/>
      <point x="179" y="1108"/>
      <point x="167" y="1030" type="qcurve"/>
      <point x="380" y="979"/>
      <point x="380" y="910" type="qcurve" smooth="yes"/>
    </contour>
  </outline>
</glyph>
<glyph name="uni17A3" format="1">
  <advance width="1300"/>
  <unicode hex="17A3"/>
  <outline>
    <contour>
      <point x="920" y="333" type="line"/>
      <point x="870" y="333"/>
      <point x="870" y="267" type="qcurve" smooth="yes"/>
      <point x="870" y="113"/>
      <point x="920" y="113" type="qcurve"/>
    </contour>
    <contour>
      <point x="200" y="333" type="line"/>
      <point x="150" y="333"/>
      <point x="150" y="267" type="qcurve" smooth="yes"/>
      <point x="150" y="113"/>
      <point x="200" y="113" type="qcurve"/>
    </contour>
    <contour>
      <point x="1100" y="98" type="line" smooth="yes"/>
      <point x="1100" y="0"/>
      <point x="1000" y="0" type="qcurve" smooth="yes"/>
      <point x="920" y="0" type="line" smooth="yes"/>
      <point x="770" y="0"/>
      <point x="770" y="267" type="qcurve" smooth="yes"/>
      <point x="770" y="433"/>
      <point x="920" y="433" type="qcurve"/>
      <point x="920" y="552" type="line"/>
      <point x="380" y="552" type="line"/>
      <point x="380" y="98" type="line" smooth="yes"/>
      <point x="380" y="0"/>
      <point x="280" y="0" type="qcurve" smooth="yes"/>
      <point x="200" y="0" type="line" smooth="yes"/>
      <point x="50" y="0"/>
      <point x="50" y="267" type="qcurve" smooth="yes"/>
      <point x="50" y="433"/>
      <point x="200" y="433" type="qcurve"/>
      <point x="200" y="831" type="line" smooth="yes"/>
      <point x="200" y="922"/>
      <point x="70" y="950" type="qcurve"/>
      <point x="86" y="1068"/>
      <point x="153" y="1184" type="qcurve" smooth="yes"/>
      <point x="220" y="1300"/>
      <point x="263" y="1300" type="qcurve" smooth="yes"/>
      <point x="297" y="1300"/>
      <point x="353" y="1263" type="qcurve" smooth="yes"/>
      <point x="408" y="1225" type="line" smooth="yes"/>
      <point x="433" y="1209"/>
      <point x="466" y="1209" type="qcurve" smooth="yes"/>
      <point x="483" y="1209"/>
      <point x="503" y="1213" type="qcurve"/>
      <point x="495" y="1153"/>
      <point x="466" y="1107" type="qcurve" smooth="yes"/>
      <point x="436" y="1060"/>
      <point x="397" y="1055" type="qcurve" smooth="yes"/>
      <point x="392" y="1054"/>
      <point x="387" y="1054" type="qcurve" smooth="yes"/>
      <point x="349" y="1054"/>
      <point x="289" y="1090" type="qcurve" smooth="yes"/>
      <point x="257" y="1108"/>
      <point x="236" y="1108" type="qcurve" smooth="yes"/>
      <point x="209" y="1108"/>
      <point x="197" y="1030" type="qcurve"/>
      <point x="380" y="979"/>
      <point x="380" y="910" type="qcurve" smooth="yes"/>
      <point x="380" y="652" type="line"/>
      <point x="920" y="652" type="line"/>
      <point x="920" y="831" type="line" smooth="yes"/>
      <point x="920" y="922"/>
      <point x="790" y="950" type="qcurve"/>
      <point x="806" y="1068"/>
      <point x="868" y="1184" type="qcurve" smooth="yes"/>
      <point x="930" y="1300"/>
      <point x="973" y="1300" type="qcurve" smooth="yes"/>
      <point x="1007" y="1300"/>
      <point x="1063" y="1263" type="qcurve" smooth="yes"/>
      <point x="1118" y="1225" type="line" smooth="yes"/>
      <point x="1143" y="1209"/>
      <point x="1163" y="1209" type="qcurve" smooth="yes"/>
      <point x="1183" y="1209"/>
      <point x="1200" y="1223" type="qcurve"/>
      <point x="1195" y="1143"/>
      <point x="1146" y="1060"/>
      <point x="1107" y="1055" type="qcurve" smooth="yes"/>
      <point x="1102" y="1054"/>
      <point x="1097" y="1054" type="qcurve" smooth="yes"/>
      <point x="1059" y="1054"/>
      <point x="999" y="1090" type="qcurve" smooth="yes"/>
      <point x="967" y="1108"/>
      <point x="946" y="1108" type="qcurve" smooth="yes"/>
      <point x="919" y="1108"/>
      <point x="907" y="1030" type="qcurve"/>
      <point x="1100" y="979"/>
      <point x="1100" y="910" type="qcurve" smooth="yes"/>
    </contour>
  </outline>
</glyph>
<glyph name="uni17A5" format="1">
  <advance width="1300"/>
  <unicode hex="17A5"/>
  <outline>
    <contour>
      <point x="425" y="333" type="qcurve" smooth="yes"/>
      <point x="380" y="333" type="line"/>
      <point x="380" y="130" type="line" smooth="yes"/>
      <point x="380" y="110"/>
      <point x="415" y="110" type="qcurve" smooth="yes"/>
      <point x="450" y="110"/>
      <point x="475" y="142" type="qcurve" smooth="yes"/>
      <point x="500" y="173"/>
      <point x="500" y="260" type="qcurve" smooth="yes"/>
      <point x="500" y="303"/>
      <point x="463" y="333"/>
    </contour>
    <contour>
      <point x="380" y="433" type="line"/>
      <point x="425" y="433" type="line" smooth="yes"/>
      <point x="513" y="433"/>
      <point x="556" y="390" type="qcurve" smooth="yes"/>
      <point x="600" y="347"/>
      <point x="600" y="260" type="qcurve" smooth="yes"/>
      <point x="600" y="130"/>
      <point x="550" y="65" type="qcurve" smooth="yes"/>
      <point x="500" y="0"/>
      <point x="400" y="0" type="qcurve" smooth="yes"/>
      <point x="300" y="0"/>
      <point x="250" y="33" type="qcurve" smooth="yes"/>
      <point x="200" y="65"/>
      <point x="200" y="130" type="qcurve" smooth="yes"/>
      <point x="200" y="650" type="line" smooth="yes"/>
      <point x="200" y="800"/>
      <point x="300" y="875" type="qcurve" smooth="yes"/>
      <point x="400" y="950"/>
      <point x="650" y="950" type="qcurve" smooth="yes"/>
      <point x="900" y="950"/>
      <point x="1000" y="875" type="qcurve" smooth="yes"/>
      <point x="1100" y="800"/>
      <point x="1100" y="650" type="qcurve" smooth="yes"/>
      <point x="1100" y="0" type="line"/>
      <point x="920" y="0" type="line"/>
      <point x="920" y="650" type="line" smooth="yes"/>
      <point x="920" y="750"/>
      <point x="858" y="800" type="qcurve" smooth="yes"/>
      <point x="795" y="850"/>
      <point x="650" y="850" type="qcurve" smooth="yes"/>
      <point x="505" y="850"/>
      <point x="443" y="800" type="qcurve" smooth="yes"/>
      <point x="380" y="750"/>
      <point x="380" y="650" type="qcurve" smooth="yes"/>
    </contour>
    <contour>
      <point x="200" y="941" type="line"/>
      <point x="100" y="990"/>
      <point x="100" y="1066" type="qcurve" smooth="yes"/>
      <point x="100" y="1133"/>
      <point x="165" y="1175" type="qcurve" smooth="yes"/>
      <point x="231" y="1215" type="line"/>
      <point x="362" y="1300"/>
      <point x="394" y="1300" type="qcurve" smooth="yes"/>
      <point x="453" y="1300"/>
      <point x="559" y="1233" type="qcurve"/>
      <point x="741" y="1127"/>
      <point x="840" y="1127" type="qcurve" smooth="yes"/>
      <point x="902" y="1127"/>
      <point x="960" y="1205"/>
      <point x="960" y="1279" type="qcurve" smooth="yes"/>
      <point x="960" y="1331"/>
      <point x="880" y="1331" type="qcurve" smooth="yes"/>
      <point x="800" y="1331"/>
      <point x="800" y="1426" type="qcurve" smooth="yes"/>
      <point x="800" y="1491"/>
      <point x="880" y="1491" type="qcurve" smooth="yes"/>
      <point x="1100" y="1491"/>
      <point x="1100" y="1279" type="qcurve" smooth="yes"/>
      <point x="1100" y="1169"/>
      <point x="939" y="1020"/>
      <point x="840" y="1020" type="qcurve" smooth="yes"/>
      <point x="588" y="1020"/>
      <point x="477" y="1083" type="qcurve" smooth="yes"/>
      <point x="366" y="1145"/>
      <point x="335" y="1145" type="qcurve" smooth="yes"/>
      <point x="304" y="1145"/>
      <point x="277" y="1126" type="qcurve" smooth="yes"/>
      <point x="250" y="1106"/>
      <point x="250" y="1081" type="qcurve" smooth="yes"/>
      <point x="250" y="1057"/>
      <point x="380" y="996" type="qcurve"/>
    </contour>
  </outline>
</glyph>
<glyph name="uni17A6" format="1">
  <advance width="1850"/>
  <unicode hex="17A6"/>
  <outline>
    <contour>
      <point x="400" y="-550" type="line"/>
      <point x="490" y="-550"/>
      <point x="490" y="-481" type="qcurve" smooth="yes"/>
      <point x="490" y="-450"/>
      <point x="450" y="-450" type="qcurve" smooth="yes"/>
      <point x="400" y="-450" type="line"/>
    </contour>
    <contour>
      <point x="1650" y="-495" type="line" smooth="yes"/>
      <point x="1650" y="-650"/>
      <point x="1275" y="-650" type="qcurve" smooth="yes"/>
      <point x="900" y="-650"/>
      <point x="900" y="-495" type="qcurve" smooth="yes"/>
      <point x="900" y="-300" type="line" smooth="yes"/>
      <point x="900" y="-250"/>
      <point x="837" y="-225" type="qcurve" smooth="yes"/>
      <point x="775" y="-200"/>
      <point x="650" y="-200" type="qcurve" smooth="yes"/>
      <point x="525" y="-200"/>
      <point x="463" y="-225" type="qcurve" smooth="yes"/>
      <point x="400" y="-250"/>
      <point x="400" y="-300" type="qcurve" smooth="yes"/>
      <point x="400" y="-350" type="line"/>
      <point x="450" y="-350" type="line" smooth="yes"/>
      <point x="590" y="-350"/>
      <point x="590" y="-480" type="qcurve" smooth="yes"/>
      <point x="590" y="-650"/>
      <point x="400" y="-650" type="qcurve" smooth="yes"/>
      <point x="250" y="-650"/>
      <point x="250" y="-550" type="qcurve" smooth="yes"/>
      <point x="250" y="-300" type="line" smooth="yes"/>
      <point x="250" y="-200"/>
      <point x="350" y="-150" type="qcurve" smooth="yes"/>
      <point x="450" y="-100"/>
      <point x="650" y="-100" type="qcurve" smooth="yes"/>
      <point x="850" y="-100"/>
      <point x="950" y="-150" type="qcurve" smooth="yes"/>
      <point x="1050" y="-200"/>
      <point x="1050" y="-300" type="qcurve" smooth="yes"/>
      <point x="1050" y="-495" type="line" smooth="yes"/>
      <point x="1050" y="-570"/>
      <point x="1275" y="-570" type="qcurve" smooth="yes"/>
      <point x="1470" y="-570"/>
      <point x="1470" y="-495" type="qcurve" smooth="yes"/>
      <point x="1470" y="1340" type="line" smooth="yes"/>
      <point x="1470" y="1550"/>
      <point x="1266" y="1550" type="qcurve" smooth="yes"/>
      <point x="1150" y="1550" type="line" smooth="yes"/>
      <point x="900" y="1550"/>
      <point x="900" y="1691" type="qcurve" smooth="yes"/>
      <point x="900" y="1724"/>
      <point x="940" y="1823"/>
      <point x="940" y="1875" type="qcurve" smooth="yes"/>
      <point x="940" y="1926"/>
      <point x="816" y="1926" type="qcurve"/>
      <point x="816" y="2000"/>
      <point x="916" y="2000" type="qcurve" smooth="yes"/>
      <point x="1120" y="2000"/>
      <point x="1120" y="1875" type="qcurve" smooth="yes"/>
      <point x="1120" y="1812"/>
      <point x="1080" y="1728"/>
      <point x="1080" y="1691" type="qcurve" smooth="yes"/>
      <point x="1080" y="1650"/>
      <point x="1150" y="1650" type="qcurve" smooth="yes"/>
      <point x="1266" y="1650" type="line" smooth="yes"/>
      <point x="1650" y="1650"/>
      <point x="1650" y="1340" type="qcurve" smooth="yes"/>
    </contour>
    <contour>
      <point x="380" y="400" type="qcurve"/>
      <point x="380" y="130" type="line"/>
      <point x="440" y="130"/>
      <point x="470" y="177" type="qcurve" smooth="yes"/>
      <point x="500" y="224"/>
      <point x="500" y="317" type="qcurve" smooth="yes"/>
      <point x="500" y="359"/>
      <point x="470" y="379" type="qcurve" smooth="yes"/>
      <point x="440" y="400"/>
    </contour>
    <contour>
      <point x="380" y="500" type="line"/>
      <point x="490" y="500"/>
      <point x="545" y="454" type="qcurve" smooth="yes"/>
      <point x="600" y="409"/>
      <point x="600" y="317" type="qcurve" smooth="yes"/>
      <point x="600" y="173"/>
      <point x="538" y="87" type="qcurve" smooth="yes"/>
      <point x="475" y="0"/>
      <point x="350" y="0" type="qcurve" smooth="yes"/>
      <point x="200" y="0"/>
      <point x="200" y="87" type="qcurve" smooth="yes"/>
      <point x="200" y="1000" type="line" smooth="yes"/>
      <point x="200" y="1150"/>
      <point x="300" y="1225" type="qcurve" smooth="yes"/>
      <point x="400" y="1300"/>
      <point x="650" y="1300" type="qcurve" smooth="yes"/>
      <point x="900" y="1300"/>
      <point x="1000" y="1225" type="qcurve" smooth="yes"/>
      <point x="1100" y="1150"/>
      <point x="1100" y="1000" type="qcurve" smooth="yes"/>
      <point x="1100" y="0" type="line"/>
      <point x="920" y="0" type="line"/>
      <point x="920" y="1000" type="line" smooth="yes"/>
      <point x="920" y="1100"/>
      <point x="858" y="1150" type="qcurve" smooth="yes"/>
      <point x="795" y="1200"/>
      <point x="650" y="1200" type="qcurve" smooth="yes"/>
      <point x="505" y="1200"/>
      <point x="443" y="1150" type="qcurve" smooth="yes"/>
      <point x="380" y="1100"/>
      <point x="380" y="1000" type="qcurve" smooth="yes"/>
    </contour>
  </outline>
</glyph>
<glyph name="uni17A7" format="1">
  <advance width="1300"/>
  <unicode hex="17A7"/>
  <outline>
    <contour>
      <point x="920" y="346" type="qcurve" smooth="yes"/>
      <point x="920" y="520" type="line"/>
      <point x="1100" y="520" type="line"/>
      <point x="1100" y="-50" type="line"/>
      <point x="920" y="-50" type="line"/>
      <point x="920" y="144" type="line"/>
      <point x="902" y="128"/>
      <point x="880" y="112" type="qcurve" smooth="yes"/>
      <point x="730" y="0"/>
      <point x="550" y="0" type="qcurve" smooth="yes"/>
      <point x="360" y="0"/>
      <point x="200" y="174"/>
      <point x="200" y="347" type="qcurve" smooth="yes"/>
      <point x="200" y="525" type="line"/>
      <point x="638" y="692" type="line" smooth="yes"/>
      <point x="920" y="798"/>
      <point x="920" y="953" type="qcurve" smooth="yes"/>
      <point x="920" y="1077"/>
      <point x="858" y="1138" type="qcurve" smooth="yes"/>
      <point x="795" y="1200"/>
      <point x="650" y="1200" type="qcurve" smooth="yes"/>
      <point x="527" y="1200"/>
      <point x="466" y="1153" type="qcurve" smooth="yes"/>
      <point x="406" y="1106"/>
      <point x="387" y="1012" type="qcurve"/>
      <point x="409" y="1009"/>
      <point x="431" y="999" type="qcurve" smooth="yes"/>
      <point x="463" y="984"/>
      <point x="500" y="927"/>
      <point x="500" y="897" type="qcurve" smooth="yes"/>
      <point x="500" y="867"/>
      <point x="464" y="811"/>
      <point x="400" y="780"/>
      <point x="365" y="780" type="qcurve" smooth="yes"/>
      <point x="300" y="780"/>
      <point x="236" y="811"/>
      <point x="200" y="867"/>
      <point x="200" y="897" type="qcurve" smooth="yes"/>
      <point x="200" y="953" type="line" smooth="yes"/>
      <point x="200" y="1127"/>
      <point x="300" y="1213" type="qcurve" smooth="yes"/>
      <point x="400" y="1300"/>
      <point x="650" y="1300" type="qcurve" smooth="yes"/>
      <point x="900" y="1300"/>
      <point x="1000" y="1213" type="qcurve" smooth="yes"/>
      <point x="1100" y="1127"/>
      <point x="1100" y="953" type="qcurve" smooth="yes"/>
      <point x="1100" y="733"/>
      <point x="695" y="582" type="qcurve"/>
      <point x="380" y="456" type="line"/>
      <point x="380" y="347" type="line" smooth="yes"/>
      <point x="380" y="224"/>
      <point x="465" y="130"/>
      <point x="550" y="130" type="qcurve" smooth="yes"/>
      <point x="655" y="130"/>
      <point x="788" y="202" type="qcurve" smooth="yes"/>
      <point x="919" y="274"/>
    </contour>
  </outline>
</glyph>
<glyph name="uni17A8" format="1">
  <advance width="1300"/>
  <unicode hex="17A8"/>
  <outline>
    <contour>
      <point x="920" y="346" type="qcurve" smooth="yes"/>
      <point x="920" y="520" type="line"/>
      <point x="1100" y="520" type="line"/>
      <point x="1100" y="-50" type="line"/>
      <point x="920" y="-50" type="line"/>
      <point x="920" y="144" type="line"/>
      <point x="902" y="128"/>
      <point x="880" y="112" type="qcurve" smooth="yes"/>
      <point x="730" y="0"/>
      <point x="550" y="0" type="qcurve" smooth="yes"/>
      <point x="360" y="0"/>
      <point x="200" y="174"/>
      <point x="200" y="347" type="qcurve" smooth="yes"/>
      <point x="200" y="525" type="line"/>
      <point x="638" y="692" type="line" smooth="yes"/>
      <point x="920" y="798"/>
      <point x="920" y="953" type="qcurve" smooth="yes"/>
      <point x="920" y="1077"/>
      <point x="858" y="1138" type="qcurve" smooth="yes"/>
      <point x="795" y="1200"/>
      <point x="650" y="1200" type="qcurve" smooth="yes"/>
      <point x="527" y="1200"/>
      <point x="466" y="1153" type="qcurve" smooth="yes"/>
      <point x="406" y="1106"/>
      <point x="387" y="1012" type="qcurve"/>
      <point x="409" y="1009"/>
      <point x="431" y="999" type="qcurve" smooth="yes"/>
      <point x="463" y="984"/>
      <point x="500" y="927"/>
      <point x="500" y="897" type="qcurve" smooth="yes"/>
      <point x="500" y="867"/>
      <point x="464" y="811"/>
      <point x="400" y="780"/>
      <point x="365" y="780" type="qcurve" smooth="yes"/>
      <point x="300" y="780"/>
      <point x="236" y="811"/>
      <point x="200" y="867"/>
      <point x="200" y="897" type="qcurve" smooth="yes"/>
      <point x="200" y="953" type="line" smooth="yes"/>
      <point x="200" y="1127"/>
      <point x="300" y="1213" type="qcurve" smooth="yes"/>
      <point x="400" y="1300"/>
      <point x="650" y="1300" type="qcurve" smooth="yes"/>
      <point x="900" y="1300"/>
      <point x="1000" y="1213" type="qcurve" smooth="yes"/>
      <point x="1100" y="1127"/>
      <point x="1100" y="953" type="qcurve" smooth="yes"/>
      <point x="1100" y="733"/>
      <point x="695" y="582" type="qcurve"/>
      <point x="380" y="456" type="line"/>
      <point x="380" y="347" type="line" smooth="yes"/>
      <point x="380" y="224"/>
      <point x="465" y="130"/>
      <point x="550" y="130" type="qcurve" smooth="yes"/>
      <point x="655" y="130"/>
      <point x="788" y="202" type="qcurve" smooth="yes"/>
      <point x="919" y="274"/>
    </contour>
    <contour>
      <point x="150" y="1387" type="qcurve" smooth="yes"/>
      <point x="150" y="1428"/>
      <point x="210" y="1476" type="qcurve" smooth="yes"/>
      <point x="271" y="1523" type="line" smooth="yes"/>
      <point x="391" y="1620"/>
      <point x="421" y="1620" type="qcurve" smooth="yes"/>
      <point x="456" y="1620"/>
      <point x="542" y="1558" type="qcurve" smooth="yes"/>
      <point x="629" y="1496"/>
      <point x="657" y="1496" type="qcurve" smooth="yes"/>
      <point x="680" y="1496"/>
      <point x="762" y="1558" type="qcurve" smooth="yes"/>
      <point x="843" y="1620"/>
      <point x="876" y="1620" type="qcurve" smooth="yes"/>
      <point x="909" y="1620"/>
      <point x="1007" y="1548" type="qcurve" smooth="yes"/>
      <point x="1103" y="1475"/>
      <point x="1120" y="1475" type="qcurve" smooth="yes"/>
      <point x="1136" y="1475"/>
      <point x="1150" y="1489" type="qcurve"/>
      <point x="1117" y="1359"/>
      <point x="1036" y="1359" type="qcurve" smooth="yes"/>
      <point x="996" y="1359"/>
      <point x="924" y="1407" type="qcurve" smooth="yes"/>
      <point x="853" y="1455"/>
      <point x="822" y="1455" type="qcurve" smooth="yes"/>
      <point x="783" y="1455"/>
      <point x="719" y="1407" type="qcurve" smooth="yes"/>
      <point x="653" y="1359"/>
      <point x="607" y="1359" type="qcurve" smooth="yes"/>
      <point x="541" y="1359"/>
      <point x="472" y="1407" type="qcurve" smooth="yes"/>
      <point x="403" y="1455"/>
      <point x="369" y="1455" type="qcurve" smooth="yes"/>
      <point x="329" y="1455"/>
      <point x="288" y="1417"/>
      <point x="288" y="1389" type="qcurve" smooth="yes"/>
      <point x="288" y="1350"/>
      <point x="416" y="1325" type="qcurve"/>
      <point x="273" y="1264" type="line"/>
      <point x="150" y="1282"/>
    </contour>
  </outline>
</glyph>
<glyph name="uni17AA" format="1">
  <advance width="1300"/>
  <unicode hex="17AA"/>
  <outline>
    <contour>
      <point x="920" y="346" type="qcurve" smooth="yes"/>
      <point x="920" y="520" type="line"/>
      <point x="1100" y="520" type="line"/>
      <point x="1100" y="-50" type="line"/>
      <point x="920" y="-50" type="line"/>
      <point x="920" y="144" type="line"/>
      <point x="902" y="128"/>
      <point x="880" y="112" type="qcurve" smooth="yes"/>
      <point x="730" y="0"/>
      <point x="550" y="0" type="qcurve" smooth="yes"/>
      <point x="360" y="0"/>
      <point x="200" y="174"/>
      <point x="200" y="347" type="qcurve" smooth="yes"/>
      <point x="200" y="525" type="line"/>
      <point x="638" y="692" type="line" smooth="yes"/>
      <point x="920" y="798"/>
      <point x="920" y="953" type="qcurve" smooth="yes"/>
      <point x="920" y="1077"/>
      <point x="858" y="1138" type="qcurve" smooth="yes"/>
      <point x="795" y="1200"/>
      <point x="650" y="1200" type="qcurve" smooth="yes"/>
      <point x="527" y="1200"/>
      <point x="466" y="1153" type="qcurve" smooth="yes"/>
      <point x="406" y="1106"/>
      <point x="387" y="1012" type="qcurve"/>
      <point x="409" y="1009"/>
      <point x="431" y="999" type="qcurve" smooth="yes"/>
      <point x="463" y="984"/>
      <point x="500" y="927"/>
      <point x="500" y="897" type="qcurve" smooth="yes"/>
      <point x="500" y="867"/>
      <point x="464" y="811"/>
      <point x="400" y="780"/>
      <point x="365" y="780" type="qcurve" smooth="yes"/>
      <point x="300" y="780"/>
      <point x="236" y="811"/>
      <point x="200" y="867"/>
      <point x="200" y="897" type="qcurve" smooth="yes"/>
      <point x="200" y="953" type="line" smooth="yes"/>
      <point x="200" y="1127"/>
      <point x="300" y="1213" type="qcurve" smooth="yes"/>
      <point x="400" y="1300"/>
      <point x="650" y="1300" type="qcurve" smooth="yes"/>
      <point x="900" y="1300"/>
      <point x="1000" y="1213" type="qcurve" smooth="yes"/>
      <point x="1100" y="1127"/>
      <point x="1100" y="953" type="qcurve" smooth="yes"/>
      <point x="1100" y="733"/>
      <point x="695" y="582" type="qcurve"/>
      <point x="380" y="456" type="line"/>
      <point x="380" y="347" type="line" smooth="yes"/>
      <point x="380" y="224"/>
      <point x="465" y="130"/>
      <point x="550" y="130" type="qcurve" smooth="yes"/>
      <point x="655" y="130"/>
      <point x="788" y="202" type="qcurve" smooth="yes"/>
      <point x="919" y="274"/>
    </contour>
    <contour>
      <point x="200" y="1281" type="line"/>
      <point x="100" y="1330"/>
      <point x="100" y="1406" type="qcurve" smooth="yes"/>
      <point x="100" y="1473"/>
      <point x="165" y="1515" type="qcurve" smooth="yes"/>
      <point x="231" y="1555" type="line"/>
      <point x="362" y="1640"/>
      <point x="394" y="1640" type="qcurve" smooth="yes"/>
      <point x="453" y="1640"/>
      <point x="559" y="1573" type="qcurve"/>
      <point x="741" y="1467"/>
      <point x="840" y="1467" type="qcurve" smooth="yes"/>
      <point x="902" y="1467"/>
      <point x="960" y="1545"/>
      <point x="960" y="1619" type="qcurve" smooth="yes"/>
      <point x="960" y="1671"/>
      <point x="880" y="1671" type="qcurve" smooth="yes"/>
      <point x="800" y="1671"/>
      <point x="800" y="1766" type="qcurve" smooth="yes"/>
      <point x="800" y="1831"/>
      <point x="880" y="1831" type="qcurve" smooth="yes"/>
      <point x="1100" y="1831"/>
      <point x="1100" y="1619" type="qcurve" smooth="yes"/>
      <point x="1100" y="1509"/>
      <point x="939" y="1360"/>
      <point x="840" y="1360" type="qcurve" smooth="yes"/>
      <point x="588" y="1360"/>
      <point x="477" y="1423" type="qcurve" smooth="yes"/>
      <point x="366" y="1485"/>
      <point x="335" y="1485" type="qcurve" smooth="yes"/>
      <point x="304" y="1485"/>
      <point x="277" y="1466" type="qcurve" smooth="yes"/>
      <point x="250" y="1446"/>
      <point x="250" y="1421" type="qcurve" smooth="yes"/>
      <point x="250" y="1397"/>
      <point x="380" y="1336" type="qcurve"/>
    </contour>
  </outline>
</glyph>
<glyph name="uni17AB" format="1">
  <advance width="1300"/>
  <unicode hex="17AB"/>
  <outline>
    <contour>
      <point x="786" y="-164" type="qcurve" smooth="yes"/>
      <point x="786" y="-100"/>
      <point x="876" y="-100" type="qcurve" smooth="yes"/>
      <point x="1016" y="-100"/>
      <point x="1067" y="-154" type="qcurve" smooth="yes"/>
      <point x="1100" y="-191"/>
      <point x="1100" y="-249" type="qcurve" smooth="yes"/>
      <point x="1100" y="-280"/>
      <point x="1091" y="-316" type="qcurve" smooth="yes"/>
      <point x="1056" y="-455"/>
      <point x="845" y="-553" type="qcurve" smooth="yes"/>
      <point x="634" y="-653"/>
      <point x="266" y="-653" type="qcurve" smooth="yes"/>
      <point x="66" y="-653"/>
      <point x="66" y="-610" type="qcurve"/>
      <point x="400" y="-580"/>
      <point x="533" y="-554" type="qcurve" smooth="yes"/>
      <point x="667" y="-529"/>
      <point x="779" y="-451" type="qcurve" smooth="yes"/>
      <point x="890" y="-374"/>
      <point x="912" y="-298" type="qcurve" smooth="yes"/>
      <point x="916" y="-281"/>
      <point x="916" y="-268" type="qcurve" smooth="yes"/>
      <point x="916" y="-228"/>
      <point x="876" y="-228" type="qcurve" smooth="yes"/>
      <point x="786" y="-228"/>
    </contour>
    <contour>
      <point x="920" y="831" type="line" smooth="yes"/>
      <point x="920" y="922"/>
      <point x="790" y="950" type="qcurve"/>
      <point x="806" y="1068"/>
      <point x="868" y="1184" type="qcurve" smooth="yes"/>
      <point x="930" y="1300"/>
      <point x="973" y="1300" type="qcurve" smooth="yes"/>
      <point x="1007" y="1300"/>
      <point x="1063" y="1263" type="qcurve" smooth="yes"/>
      <point x="1118" y="1225" type="line" smooth="yes"/>
      <point x="1143" y="1209"/>
      <point x="1163" y="1209" type="qcurve" smooth="yes"/>
      <point x="1183" y="1209"/>
      <point x="1200" y="1223" type="qcurve"/>
      <point x="1195" y="1143"/>
      <point x="1146" y="1060"/>
      <point x="1107" y="1055" type="qcurve" smooth="yes"/>
      <point x="1102" y="1054"/>
      <point x="1097" y="1054" type="qcurve" smooth="yes"/>
      <point x="1059" y="1054"/>
      <point x="999" y="1090" type="qcurve" smooth="yes"/>
      <point x="967" y="1108"/>
      <point x="946" y="1108" type="qcurve" smooth="yes"/>
      <point x="919" y="1108"/>
      <point x="907" y="1030" type="qcurve"/>
      <point x="1100" y="979"/>
      <point x="1100" y="910" type="qcurve" smooth="yes"/>
      <point x="1100" y="300" type="line" smooth="yes"/>
      <point x="1100" y="150"/>
      <point x="1000" y="75" type="qcurve" smooth="yes"/>
      <point x="900" y="0"/>
      <point x="650" y="0" type="qcurve" smooth="yes"/>
      <point x="400" y="0"/>
      <point x="300" y="75" type="qcurve" smooth="yes"/>
      <point x="200" y="150"/>
      <point x="200" y="300" type="qcurve" smooth="yes"/>
      <point x="200" y="831" type="line" smooth="yes"/>
      <point x="200" y="922"/>
      <point x="70" y="950" type="qcurve"/>
      <point x="86" y="1068"/>
      <point x="153" y="1184" type="qcurve" smooth="yes"/>
      <point x="220" y="1300"/>
      <point x="263" y="1300" type="qcurve" smooth="yes"/>
      <point x="297" y="1300"/>
      <point x="353" y="1263" type="qcurve" smooth="yes"/>
      <point x="408" y="1225" type="line" smooth="yes"/>
      <point x="433" y="1209"/>
      <point x="466" y="1209" type="qcurve" smooth="yes"/>
      <point x="483" y="1209"/>
      <point x="503" y="1213" type="qcurve"/>
      <point x="495" y="1153"/>
      <point x="466" y="1107" type="qcurve" smooth="yes"/>
      <point x="436" y="1060"/>
      <point x="397" y="1055" type="qcurve" smooth="yes"/>
      <point x="392" y="1054"/>
      <point x="387" y="1054" type="qcurve" smooth="yes"/>
      <point x="349" y="1054"/>
      <point x="289" y="1090" type="qcurve" smooth="yes"/>
      <point x="257" y="1108"/>
      <point x="236" y="1108" type="qcurve" smooth="yes"/>
      <point x="209" y="1108"/>
      <point x="197" y="1030" type="qcurve"/>
      <point x="380" y="979"/>
      <point x="380" y="910" type="qcurve" smooth="yes"/>
      <point x="380" y="300" type="line" smooth="yes"/>
      <point x="380" y="200"/>
      <point x="443" y="150" type="qcurve" smooth="yes"/>
      <point x="505" y="100"/>
      <point x="650" y="100" type="qcurve" smooth="yes"/>
      <point x="795" y="100"/>
      <point x="858" y="150" type="qcurve" smooth="yes"/>
      <point x="920" y="200"/>
      <point x="920" y="300" type="qcurve" smooth="yes"/>
    </contour>
  </outline>
</glyph>
<glyph name="uni17AD" format="1">
  <advance width="1300"/>
  <unicode hex="17AD"/>
  <outline>
    <contour>
      <point x="380" y="130" type="line"/>
      <point x="440" y="130"/>
      <point x="470" y="177" type="qcurve" smooth="yes"/>
      <point x="500" y="224"/>
      <point x="500" y="317" type="qcurve" smooth="yes"/>
      <point x="500" y="359"/>
      <point x="470" y="379" type="qcurve" smooth="yes"/>
      <point x="440" y="400"/>
      <point x="380" y="400" type="qcurve"/>
    </contour>
    <contour>
      <point x="596" y="1056" type="qcurve" smooth="yes"/>
      <point x="530" y="1158"/>
      <point x="461" y="1158" type="qcurve" smooth="yes"/>
      <point x="380" y="1158"/>
      <point x="380" y="1000" type="qcurve" smooth="yes"/>
      <point x="380" y="500" type="line"/>
      <point x="490" y="500"/>
      <point x="545" y="454" type="qcurve" smooth="yes"/>
      <point x="600" y="409"/>
      <point x="600" y="317" type="qcurve" smooth="yes"/>
      <point x="600" y="173"/>
      <point x="538" y="87" type="qcurve" smooth="yes"/>
      <point x="475" y="0"/>
      <point x="350" y="0" type="qcurve" smooth="yes"/>
      <point x="200" y="0"/>
      <point x="200" y="87" type="qcurve" smooth="yes"/>
      <point x="200" y="1000" type="line" smooth="yes"/>
      <point x="200" y="1122"/>
      <point x="275" y="1211" type="qcurve" smooth="yes"/>
      <point x="350" y="1300"/>
      <point x="445" y="1300" type="qcurve" smooth="yes"/>
      <point x="539" y="1300"/>
      <point x="650" y="1166" type="qcurve"/>
      <point x="762" y="1300"/>
      <point x="857" y="1300" type="qcurve" smooth="yes"/>
      <point x="951" y="1300"/>
      <point x="1026" y="1211" type="qcurve" smooth="yes"/>
      <point x="1100" y="1122"/>
      <point x="1100" y="1000" type="qcurve" smooth="yes"/>
      <point x="1100" y="0" type="line"/>
      <point x="920" y="0" type="line"/>
      <point x="920" y="1000" type="line" smooth="yes"/>
      <point x="920" y="1158"/>
      <point x="840" y="1158" type="qcurve" smooth="yes"/>
      <point x="771" y="1158"/>
      <point x="704" y="1056" type="qcurve" smooth="yes"/>
      <point x="682" y="1022"/>
      <point x="650" y="1022" type="qcurve" smooth="yes"/>
      <point x="618" y="1022"/>
    </contour>
    <contour>
      <point x="786" y="-164" type="qcurve" smooth="yes"/>
      <point x="786" y="-100"/>
      <point x="876" y="-100" type="qcurve" smooth="yes"/>
      <point x="1016" y="-100"/>
      <point x="1067" y="-154" type="qcurve" smooth="yes"/>
      <point x="1100" y="-191"/>
      <point x="1100" y="-249" type="qcurve" smooth="yes"/>
      <point x="1100" y="-280"/>
      <point x="1091" y="-316" type="qcurve" smooth="yes"/>
      <point x="1056" y="-455"/>
      <point x="845" y="-553" type="qcurve" smooth="yes"/>
      <point x="634" y="-653"/>
      <point x="266" y="-653" type="qcurve" smooth="yes"/>
      <point x="66" y="-653"/>
      <point x="66" y="-610" type="qcurve"/>
      <point x="400" y="-580"/>
      <point x="533" y="-554" type="qcurve" smooth="yes"/>
      <point x="667" y="-529"/>
      <point x="779" y="-451" type="qcurve" smooth="yes"/>
      <point x="890" y="-374"/>
      <point x="912" y="-298" type="qcurve" smooth="yes"/>
      <point x="916" y="-281"/>
      <point x="916" y="-268" type="qcurve" smooth="yes"/>
      <point x="916" y="-228"/>
      <point x="876" y="-228" type="qcurve" smooth="yes"/>
      <point x="786" y="-228"/>
    </contour>
  </outline>
</glyph>
<glyph name="uni17AE" format="1">
  <advance width="1300"/>
  <unicode hex="17AE"/>
  <outline>
    <contour>
      <point x="380" y="130" type="line"/>
      <point x="440" y="130"/>
      <point x="470" y="177" type="qcurve" smooth="yes"/>
      <point x="500" y="224"/>
      <point x="500" y="317" type="qcurve" smooth="yes"/>
      <point x="500" y="359"/>
      <point x="470" y="379" type="qcurve" smooth="yes"/>
      <point x="440" y="400"/>
      <point x="380" y="400" type="qcurve"/>
    </contour>
    <contour>
      <point x="596" y="1056" type="qcurve" smooth="yes"/>
      <point x="530" y="1158"/>
      <point x="461" y="1158" type="qcurve" smooth="yes"/>
      <point x="380" y="1158"/>
      <point x="380" y="1000" type="qcurve" smooth="yes"/>
      <point x="380" y="500" type="line"/>
      <point x="490" y="500"/>
      <point x="545" y="454" type="qcurve" smooth="yes"/>
      <point x="600" y="409"/>
      <point x="600" y="317" type="qcurve" smooth="yes"/>
      <point x="600" y="173"/>
      <point x="538" y="87" type="qcurve" smooth="yes"/>
      <point x="475" y="0"/>
      <point x="350" y="0" type="qcurve" smooth="yes"/>
      <point x="200" y="0"/>
      <point x="200" y="87" type="qcurve" smooth="yes"/>
      <point x="200" y="1000" type="line" smooth="yes"/>
      <point x="200" y="1122"/>
      <point x="275" y="1211" type="qcurve" smooth="yes"/>
      <point x="350" y="1300"/>
      <point x="445" y="1300" type="qcurve" smooth="yes"/>
      <point x="539" y="1300"/>
      <point x="650" y="1166" type="qcurve"/>
      <point x="762" y="1300"/>
      <point x="857" y="1300" type="qcurve" smooth="yes"/>
      <point x="951" y="1300"/>
      <point x="1026" y="1211" type="qcurve" smooth="yes"/>
      <point x="1100" y="1122"/>
      <point x="1100" y="1000" type="qcurve" smooth="yes"/>
      <point x="1100" y="0" type="line"/>
      <point x="920" y="0" type="line"/>
      <point x="920" y="1000" type="line" smooth="yes"/>
      <point x="920" y="1158"/>
      <point x="840" y="1158" type="qcurve" smooth="yes"/>
      <point x="771" y="1158"/>
      <point x="704" y="1056" type="qcurve" smooth="yes"/>
      <point x="682" y="1022"/>
      <point x="650" y="1022" type="qcurve" smooth="yes"/>
      <point x="618" y="1022"/>
    </contour>
    <contour>
      <point x="916" y="-511" type="qcurve"/>
      <point x="884" y="-531"/>
      <point x="845" y="-549" type="qcurve" smooth="yes"/>
      <point x="634" y="-648"/>
      <point x="266" y="-648" type="qcurve" smooth="yes"/>
      <point x="66" y="-648"/>
      <point x="66" y="-606" type="qcurve"/>
      <point x="400" y="-575"/>
      <point x="533" y="-550" type="qcurve" smooth="yes"/>
      <point x="667" y="-525"/>
      <point x="779" y="-448" type="qcurve" smooth="yes"/>
      <point x="890" y="-371"/>
      <point x="912" y="-296" type="qcurve" smooth="yes"/>
      <point x="916" y="-279"/>
      <point x="916" y="-266" type="qcurve" smooth="yes"/>
      <point x="916" y="-226"/>
      <point x="876" y="-226" type="qcurve" smooth="yes"/>
      <point x="786" y="-226"/>
      <point x="786" y="-163" type="qcurve" smooth="yes"/>
      <point x="786" y="-100"/>
      <point x="876" y="-100" type="qcurve" smooth="yes"/>
      <point x="1016" y="-100"/>
      <point x="1067" y="-154" type="qcurve" smooth="yes"/>
      <point x="1100" y="-190"/>
      <point x="1100" y="-248" type="qcurve" smooth="yes"/>
      <point x="1100" y="-278"/>
      <point x="1091" y="-314" type="qcurve" smooth="yes"/>
      <point x="1075" y="-376"/>
      <point x="1024" y="-429" type="qcurve"/>
      <point x="1046" y="-522"/>
      <point x="1100" y="-522" type="qcurve" smooth="yes"/>
      <point x="1200" y="-522"/>
      <point x="1200" y="-585" type="qcurve" smooth="yes"/>
      <point x="1200" y="-648"/>
      <point x="1100" y="-648" type="qcurve" smooth="yes"/>
      <point x="957" y="-648"/>
    </contour>
  </outline>
</glyph>
<glyph name="uni17AF" format="1">
  <advance width="1300"/>
  <unicode hex="17AF"/>
  <outline>
    <contour>
      <point x="920" y="158" type="line"/>
      <point x="920" y="1081" type="line"/>
      <point x="905" y="1153"/>
      <point x="828" y="1177" type="qcurve" smooth="yes"/>
      <point x="750" y="1200"/>
      <point x="680" y="1200" type="qcurve" smooth="yes"/>
      <point x="590" y="1200"/>
      <point x="485" y="1145" type="qcurve" smooth="yes"/>
      <point x="380" y="1090"/>
      <point x="380" y="1030" type="qcurve" smooth="yes"/>
      <point x="380" y="940" type="line"/>
      <point x="200" y="940"/>
      <point x="200" y="1030" type="qcurve" smooth="yes"/>
      <point x="200" y="1188"/>
      <point x="225" y="1253" type="qcurve" smooth="yes"/>
      <point x="250" y="1318"/>
      <point x="250" y="1390" type="qcurve" smooth="yes"/>
      <point x="250" y="1480"/>
      <point x="150" y="1480" type="qcurve"/>
      <point x="150" y="1570"/>
      <point x="250" y="1570" type="qcurve" smooth="yes"/>
      <point x="430" y="1570"/>
      <point x="430" y="1390" type="qcurve" smooth="yes"/>
      <point x="430" y="1305"/>
      <point x="405" y="1249" type="qcurve" smooth="yes"/>
      <point x="399" y="1234"/>
      <point x="394" y="1219" type="qcurve"/>
      <point x="398" y="1221"/>
      <point x="403" y="1224" type="qcurve" smooth="yes"/>
      <point x="520" y="1300"/>
      <point x="680" y="1300" type="qcurve" smooth="yes"/>
      <point x="850" y="1300"/>
      <point x="963" y="1251" type="qcurve" smooth="yes"/>
      <point x="1075" y="1201"/>
      <point x="1100" y="1081" type="qcurve"/>
      <point x="1100" y="0" type="line"/>
      <point x="950" y="0" type="line"/>
      <point x="650" y="260" type="line"/>
      <point x="350" y="0" type="line"/>
      <point x="200" y="0" type="line"/>
      <point x="200" y="530" type="line"/>
      <point x="100" y="566"/>
      <point x="100" y="638" type="qcurve" smooth="yes"/>
      <point x="100" y="710"/>
      <point x="180" y="800"/>
      <point x="250" y="800" type="qcurve" smooth="yes"/>
      <point x="380" y="800"/>
      <point x="380" y="710" type="qcurve" smooth="yes"/>
      <point x="380" y="167" type="line"/>
      <point x="650" y="392" type="line"/>
    </contour>
  </outline>
</glyph>
<glyph name="uni17B0" format="1">
  <advance width="1300"/>
  <unicode hex="17B0"/>
  <outline>
    <contour>
      <point x="742" y="-279" type="qcurve"/>
      <point x="789" y="-293"/>
      <point x="821" y="-293" type="qcurve" smooth="yes"/>
      <point x="843" y="-293"/>
      <point x="859" y="-286" type="qcurve" smooth="yes"/>
      <point x="886" y="-275"/>
      <point x="926" y="-161" type="qcurve"/>
      <point x="834" y="-226"/>
    </contour>
    <contour>
      <point x="380" y="130" type="line"/>
      <point x="440" y="130"/>
      <point x="470" y="177" type="qcurve" smooth="yes"/>
      <point x="500" y="224"/>
      <point x="500" y="317" type="qcurve" smooth="yes"/>
      <point x="500" y="359"/>
      <point x="470" y="379" type="qcurve" smooth="yes"/>
      <point x="440" y="400"/>
      <point x="380" y="400" type="qcurve"/>
    </contour>
    <contour>
      <point x="569" y="-493" type="qcurve" smooth="yes"/>
      <point x="599" y="-467"/>
      <point x="599" y="-396" type="qcurve" smooth="yes"/>
      <point x="599" y="-376"/>
      <point x="597" y="-352" type="qcurve"/>
      <point x="468" y="-412"/>
      <point x="338" y="-447" type="qcurve"/>
      <point x="419" y="-531"/>
      <point x="471" y="-531" type="qcurve" smooth="yes"/>
      <point x="522" y="-531"/>
    </contour>
    <contour>
      <point x="1100" y="-32" type="line"/>
      <point x="1080" y="-79"/>
      <point x="1060" y="-152" type="qcurve" smooth="yes"/>
      <point x="1009" y="-339"/>
      <point x="922" y="-383" type="qcurve" smooth="yes"/>
      <point x="879" y="-406"/>
      <point x="831" y="-406" type="qcurve" smooth="yes"/>
      <point x="775" y="-406"/>
      <point x="713" y="-375" type="qcurve"/>
      <point x="724" y="-410"/>
      <point x="724" y="-441" type="qcurve" smooth="yes"/>
      <point x="724" y="-515"/>
      <point x="662" y="-570" type="qcurve" smooth="yes"/>
      <point x="573" y="-648"/>
      <point x="486" y="-648" type="qcurve" smooth="yes"/>
      <point x="398" y="-648"/>
      <point x="300" y="-585" type="qcurve" smooth="yes"/>
      <point x="200" y="-521"/>
      <point x="200" y="-452" type="qcurve" smooth="yes"/>
      <point x="200" y="-382"/>
      <point x="309" y="-346" type="qcurve" smooth="yes"/>
      <point x="605" y="-248"/>
      <point x="920" y="-22" type="qcurve"/>
      <point x="920" y="1000" type="line" smooth="yes"/>
      <point x="920" y="1158"/>
      <point x="840" y="1158" type="qcurve" smooth="yes"/>
      <point x="771" y="1158"/>
      <point x="704" y="1056" type="qcurve" smooth="yes"/>
      <point x="682" y="1022"/>
      <point x="650" y="1022" type="qcurve" smooth="yes"/>
      <point x="618" y="1022"/>
      <point x="596" y="1056" type="qcurve" smooth="yes"/>
      <point x="530" y="1158"/>
      <point x="461" y="1158" type="qcurve" smooth="yes"/>
      <point x="380" y="1158"/>
      <point x="380" y="1000" type="qcurve" smooth="yes"/>
      <point x="380" y="500" type="line"/>
      <point x="490" y="500"/>
      <point x="545" y="454" type="qcurve" smooth="yes"/>
      <point x="600" y="409"/>
      <point x="600" y="317" type="qcurve" smooth="yes"/>
      <point x="600" y="173"/>
      <point x="538" y="87" type="qcurve" smooth="yes"/>
      <point x="475" y="0"/>
      <point x="350" y="0" type="qcurve" smooth="yes"/>
      <point x="200" y="0"/>
      <point x="200" y="87" type="qcurve" smooth="yes"/>
      <point x="200" y="1000" type="line" smooth="yes"/>
      <point x="200" y="1122"/>
      <point x="275" y="1211" type="qcurve" smooth="yes"/>
      <point x="350" y="1300"/>
      <point x="445" y="1300" type="qcurve" smooth="yes"/>
      <point x="539" y="1300"/>
      <point x="650" y="1166" type="qcurve"/>
      <point x="762" y="1300"/>
      <point x="857" y="1300" type="qcurve" smooth="yes"/>
      <point x="951" y="1300"/>
      <point x="1026" y="1211" type="qcurve" smooth="yes"/>
      <point x="1100" y="1122"/>
      <point x="1100" y="1000" type="qcurve" smooth="yes"/>
    </contour>
  </outline>
</glyph>
<glyph name="uni17B1" format="1">
  <advance width="1300"/>
  <unicode hex="17B1"/>
  <outline>
    <contour>
      <point x="1150" y="1400" type="qcurve" smooth="yes"/>
      <point x="1150" y="1312"/>
      <point x="1075" y="1312" type="qcurve" smooth="yes"/>
      <point x="1000" y="1312"/>
      <point x="1000" y="1400" type="qcurve" smooth="yes"/>
      <point x="1000" y="1523"/>
      <point x="590" y="1539" type="qcurve" smooth="yes"/>
      <point x="522" y="1542"/>
      <point x="471" y="1542" type="qcurve" smooth="yes"/>
      <point x="338" y="1542"/>
      <point x="322" y="1525" type="qcurve" smooth="yes"/>
      <point x="300" y="1502"/>
      <point x="300" y="1479" type="qcurve" smooth="yes"/>
      <point x="300" y="1441"/>
      <point x="472" y="1340" type="qcurve"/>
      <point x="367" y="1310" type="line"/>
      <point x="150" y="1375"/>
      <point x="150" y="1448" type="qcurve" smooth="yes"/>
      <point x="150" y="1494" type="line" smooth="yes"/>
      <point x="150" y="1527"/>
      <point x="215" y="1565" type="qcurve" smooth="yes"/>
      <point x="281" y="1603" type="line" smooth="yes"/>
      <point x="380" y="1661"/>
      <point x="509" y="1661" type="qcurve" smooth="yes"/>
      <point x="551" y="1661"/>
      <point x="597" y="1655" type="qcurve" smooth="yes"/>
      <point x="1150" y="1576"/>
    </contour>
    <contour>
      <point x="920" y="346" type="qcurve" smooth="yes"/>
      <point x="920" y="520" type="line"/>
      <point x="1100" y="520" type="line"/>
      <point x="1100" y="-50" type="line"/>
      <point x="920" y="-50" type="line"/>
      <point x="920" y="144" type="line"/>
      <point x="902" y="128"/>
      <point x="880" y="112" type="qcurve" smooth="yes"/>
      <point x="730" y="0"/>
      <point x="550" y="0" type="qcurve" smooth="yes"/>
      <point x="360" y="0"/>
      <point x="200" y="174"/>
      <point x="200" y="347" type="qcurve" smooth="yes"/>
      <point x="200" y="525" type="line"/>
      <point x="638" y="692" type="line" smooth="yes"/>
      <point x="920" y="798"/>
      <point x="920" y="953" type="qcurve" smooth="yes"/>
      <point x="920" y="1077"/>
      <point x="858" y="1138" type="qcurve" smooth="yes"/>
      <point x="795" y="1200"/>
      <point x="650" y="1200" type="qcurve" smooth="yes"/>
      <point x="527" y="1200"/>
      <point x="466" y="1153" type="qcurve" smooth="yes"/>
      <point x="406" y="1106"/>
      <point x="387" y="1012" type="qcurve"/>
      <point x="409" y="1009"/>
      <point x="431" y="999" type="qcurve" smooth="yes"/>
      <point x="463" y="984"/>
      <point x="500" y="927"/>
      <point x="500" y="897" type="qcurve" smooth="yes"/>
      <point x="500" y="867"/>
      <point x="464" y="811"/>
      <point x="400" y="780"/>
      <point x="365" y="780" type="qcurve" smooth="yes"/>
      <point x="300" y="780"/>
      <point x="236" y="811"/>
      <point x="200" y="867"/>
      <point x="200" y="897" type="qcurve" smooth="yes"/>
      <point x="200" y="953" type="line" smooth="yes"/>
      <point x="200" y="1127"/>
      <point x="300" y="1213" type="qcurve" smooth="yes"/>
      <point x="400" y="1300"/>
      <point x="650" y="1300" type="qcurve" smooth="yes"/>
      <point x="900" y="1300"/>
      <point x="1000" y="1213" type="qcurve" smooth="yes"/>
      <point x="1100" y="1127"/>
      <point x="1100" y="953" type="qcurve" smooth="yes"/>
      <point x="1100" y="733"/>
      <point x="695" y="582" type="qcurve"/>
      <point x="380" y="456" type="line"/>
      <point x="380" y="347" type="line" smooth="yes"/>
      <point x="380" y="224"/>
      <point x="465" y="130"/>
      <point x="550" y="130" type="qcurve" smooth="yes"/>
      <point x="655" y="130"/>
      <point x="788" y="202" type="qcurve" smooth="yes"/>
      <point x="919" y="274"/>
    </contour>
  </outline>
</glyph>
<glyph name="uni17B2" format="1">
  <advance width="1300"/>
  <unicode hex="17B2"/>
  <outline>
    <contour>
      <point x="920" y="368" type="line" smooth="yes"/>
      <point x="920" y="402"/>
      <point x="889" y="458"/>
      <point x="862" y="465" type="qcurve"/>
      <point x="853" y="458"/>
      <point x="843" y="451" type="qcurve" smooth="yes"/>
      <point x="650" y="308" type="line" smooth="yes"/>
      <point x="619" y="285"/>
      <point x="590" y="285" type="qcurve" smooth="yes"/>
      <point x="562" y="285"/>
      <point x="538" y="309" type="qcurve" smooth="yes"/>
      <point x="517" y="330"/>
      <point x="517" y="354" type="qcurve" smooth="yes"/>
      <point x="517" y="380"/>
      <point x="547" y="401" type="qcurve" smooth="yes"/>
      <point x="720" y="530" type="line" smooth="yes"/>
      <point x="861" y="634"/>
      <point x="920" y="750"/>
      <point x="920" y="780" type="qcurve" smooth="yes"/>
      <point x="920" y="826"/>
      <point x="883" y="867"/>
      <point x="825" y="867" type="qcurve" smooth="yes"/>
      <point x="765" y="867"/>
      <point x="734" y="847" type="qcurve" smooth="yes"/>
      <point x="700" y="825"/>
      <point x="700" y="780" type="qcurve" smooth="yes"/>
      <point x="700" y="728"/>
      <point x="810" y="728" type="qcurve"/>
      <point x="750" y="650"/>
      <point x="687" y="650" type="qcurve" smooth="yes"/>
      <point x="628" y="650"/>
      <point x="589" y="683" type="qcurve" smooth="yes"/>
      <point x="550" y="715"/>
      <point x="550" y="780" type="qcurve" smooth="yes"/>
      <point x="550" y="868"/>
      <point x="690" y="963"/>
      <point x="825" y="963" type="qcurve" smooth="yes"/>
      <point x="959" y="963"/>
      <point x="1100" y="869"/>
      <point x="1100" y="780" type="qcurve" smooth="yes"/>
      <point x="1100" y="732"/>
      <point x="1070" y="679" type="qcurve" smooth="yes"/>
      <point x="1034" y="614"/>
      <point x="953" y="540" type="qcurve"/>
      <point x="1017" y="522"/>
      <point x="1053" y="482" type="qcurve" smooth="yes"/>
      <point x="1100" y="429"/>
      <point x="1100" y="368" type="qcurve" smooth="yes"/>
      <point x="1100" y="300" type="line" smooth="yes"/>
      <point x="1100" y="150"/>
      <point x="1000" y="75" type="qcurve" smooth="yes"/>
      <point x="900" y="0"/>
      <point x="650" y="0" type="qcurve" smooth="yes"/>
      <point x="400" y="0"/>
      <point x="300" y="75" type="qcurve" smooth="yes"/>
      <point x="200" y="150"/>
      <point x="200" y="300" type="qcurve" smooth="yes"/>
      <point x="200" y="1000" type="line" smooth="yes"/>
      <point x="200" y="1150"/>
      <point x="300" y="1225" type="qcurve" smooth="yes"/>
      <point x="400" y="1300"/>
      <point x="650" y="1300" type="qcurve" smooth="yes"/>
      <point x="900" y="1300"/>
      <point x="1000" y="1225" type="qcurve" smooth="yes"/>
      <point x="1100" y="1150"/>
      <point x="1100" y="1050" type="qcurve"/>
      <point x="920" y="1050" type="line"/>
      <point x="920" y="1100"/>
      <point x="858" y="1150" type="qcurve" smooth="yes"/>
      <point x="795" y="1200"/>
      <point x="650" y="1200" type="qcurve" smooth="yes"/>
      <point x="505" y="1200"/>
      <point x="443" y="1150" type="qcurve" smooth="yes"/>
      <point x="380" y="1100"/>
      <point x="380" y="1000" type="qcurve" smooth="yes"/>
      <point x="380" y="300" type="line" smooth="yes"/>
      <point x="380" y="200"/>
      <point x="443" y="150" type="qcurve" smooth="yes"/>
      <point x="505" y="100"/>
      <point x="650" y="100" type="qcurve" smooth="yes"/>
      <point x="795" y="100"/>
      <point x="858" y="150" type="qcurve" smooth="yes"/>
      <point x="920" y="200"/>
      <point x="920" y="300" type="qcurve" smooth="yes"/>
    </contour>
  </outline>
</glyph>
<glyph name="uni17B3" format="1">
  <advance width="1300"/>
  <unicode hex="17B3"/>
  <outline>
    <contour>
      <point x="860" y="1638" type="qcurve"/>
      <point x="1150" y="1561"/>
      <point x="1150" y="1431" type="qcurve" smooth="yes"/>
      <point x="1150" y="1342"/>
      <point x="1075" y="1342" type="qcurve" smooth="yes"/>
      <point x="1036" y="1342"/>
      <point x="1003" y="1346" type="qcurve" smooth="yes"/>
      <point x="773" y="1377"/>
      <point x="752" y="1560" type="qcurve"/>
      <point x="681" y="1569"/>
      <point x="590" y="1573" type="qcurve"/>
      <point x="344" y="1573"/>
      <point x="322" y="1558" type="qcurve"/>
      <point x="300" y="1535"/>
      <point x="300" y="1512" type="qcurve" smooth="yes"/>
      <point x="300" y="1472"/>
      <point x="472" y="1370" type="qcurve"/>
      <point x="367" y="1340" type="line"/>
      <point x="150" y="1406"/>
      <point x="150" y="1480" type="qcurve" smooth="yes"/>
      <point x="150" y="1527" type="line" smooth="yes"/>
      <point x="150" y="1560"/>
      <point x="215" y="1598" type="qcurve" smooth="yes"/>
      <point x="281" y="1637" type="line" smooth="yes"/>
      <point x="380" y="1696"/>
      <point x="509" y="1696" type="qcurve" smooth="yes"/>
      <point x="551" y="1696"/>
      <point x="597" y="1690" type="qcurve" smooth="yes"/>
      <point x="686" y="1677"/>
      <point x="761" y="1661" type="qcurve"/>
      <point x="811" y="1805"/>
      <point x="1100" y="1805" type="qcurve" smooth="yes"/>
      <point x="1150" y="1805"/>
      <point x="1150" y="1760" type="qcurve" smooth="yes"/>
      <point x="1150" y="1716"/>
      <point x="1100" y="1716" type="qcurve" smooth="yes"/>
      <point x="900" y="1716"/>
    </contour>
    <contour>
      <point x="995" y="1459" type="qcurve"/>
      <point x="973" y="1511"/>
      <point x="864" y="1539" type="qcurve"/>
      <point x="895" y="1485"/>
    </contour>
    <contour>
      <point x="920" y="346" type="qcurve" smooth="yes"/>
      <point x="920" y="520" type="line"/>
      <point x="1100" y="520" type="line"/>
      <point x="1100" y="-50" type="line"/>
      <point x="920" y="-50" type="line"/>
      <point x="920" y="144" type="line"/>
      <point x="902" y="128"/>
      <point x="880" y="112" type="qcurve" smooth="yes"/>
      <point x="730" y="0"/>
      <point x="550" y="0" type="qcurve" smooth="yes"/>
      <point x="360" y="0"/>
      <point x="200" y="174"/>
      <point x="200" y="347" type="qcurve" smooth="yes"/>
      <point x="200" y="525" type="line"/>
      <point x="638" y="692" type="line" smooth="yes"/>
      <point x="920" y="798"/>
      <point x="920" y="953" type="qcurve" smooth="yes"/>
      <point x="920" y="1077"/>
      <point x="858" y="1138" type="qcurve" smooth="yes"/>
      <point x="795" y="1200"/>
      <point x="650" y="1200" type="qcurve" smooth="yes"/>
      <point x="527" y="1200"/>
      <point x="466" y="1153" type="qcurve" smooth="yes"/>
      <point x="406" y="1106"/>
      <point x="387" y="1012" type="qcurve"/>
      <point x="409" y="1009"/>
      <point x="431" y="999" type="qcurve" smooth="yes"/>
      <point x="463" y="984"/>
      <point x="500" y="927"/>
      <point x="500" y="897" type="qcurve" smooth="yes"/>
      <point x="500" y="867"/>
      <point x="464" y="811"/>
      <point x="400" y="780"/>
      <point x="365" y="780" type="qcurve" smooth="yes"/>
      <point x="300" y="780"/>
      <point x="236" y="811"/>
      <point x="200" y="867"/>
      <point x="200" y="897" type="qcurve" smooth="yes"/>
      <point x="200" y="953" type="line" smooth="yes"/>
      <point x="200" y="1127"/>
      <point x="300" y="1213" type="qcurve" smooth="yes"/>
      <point x="400" y="1300"/>
      <point x="650" y="1300" type="qcurve" smooth="yes"/>
      <point x="900" y="1300"/>
      <point x="1000" y="1213" type="qcurve" smooth="yes"/>
      <point x="1100" y="1127"/>
      <point x="1100" y="953" type="qcurve" smooth="yes"/>
      <point x="1100" y="733"/>
      <point x="695" y="582" type="qcurve"/>
      <point x="380" y="456" type="line"/>
      <point x="380" y="347" type="line" smooth="yes"/>
      <point x="380" y="224"/>
      <point x="465" y="130"/>
      <point x="550" y="130" type="qcurve" smooth="yes"/>
      <point x="655" y="130"/>
      <point x="788" y="202" type="qcurve" smooth="yes"/>
      <point x="919" y="274"/>
    </contour>
  </outline>
</glyph>
<glyph name="uni17B4" format="1">
  <advance width="580"/>
  <unicode hex="17B4"/>
  <outline>
    <contour>
      <point x="-265" y="1139" type="qcurve" smooth="yes"/>
      <point x="-265" y="1210"/>
      <point x="-210" y="1244" type="qcurve" smooth="yes"/>
      <point x="-118" y="1300"/>
      <point x="-27" y="1300" type="qcurve" smooth="yes"/>
      <point x="82" y="1300"/>
      <point x="380" y="1073"/>
      <point x="380" y="978" type="qcurve" smooth="yes"/>
      <point x="380" y="0" type="line"/>
      <point x="200" y="0" type="line"/>
      <point x="200" y="978" type="line" smooth="yes"/>
      <point x="200" y="1016"/>
      <point x="15" y="1149"/>
      <point x="-67" y="1149" type="qcurve" smooth="yes"/>
      <point x="-144" y="1149"/>
      <point x="-242" y="1085" type="qcurve"/>
      <point x="-265" y="1113"/>
    </contour>
  </outline>
</glyph>
<glyph name="uni17B7" format="1">
  <advance width="0"/>
  <unicode hex="17B7"/>
  <outline>
    <contour>
      <point x="-1085" y="1750" type="qcurve" smooth="yes"/>
      <point x="-1085" y="1950"/>
      <point x="-765" y="1950" type="qcurve" smooth="yes"/>
      <point x="-565" y="1950"/>
      <point x="-390" y="1800" type="qcurve" smooth="yes"/>
      <point x="-215" y="1650" type="line"/>
      <point x="-215" y="1550" type="line"/>
      <point x="-835" y="1550" type="line" smooth="yes"/>
      <point x="-1085" y="1550"/>
    </contour>
    <contour>
      <point x="-835" y="1680" type="qcurve" smooth="yes"/>
      <point x="-425" y="1680" type="line"/>
      <point x="-564" y="1830"/>
      <point x="-765" y="1830" type="qcurve" smooth="yes"/>
      <point x="-965" y="1830"/>
      <point x="-965" y="1750" type="qcurve" smooth="yes"/>
      <point x="-965" y="1680"/>
    </contour>
  </outline>
</glyph>
<glyph name="uni17B9" format="1">
  <advance width="0"/>
  <unicode hex="17B9"/>
  <outline>
    <contour>
      <point x="-835" y="1680" type="qcurve" smooth="yes"/>
      <point x="-425" y="1680" type="line"/>
      <point x="-564" y="1830"/>
      <point x="-765" y="1830" type="qcurve" smooth="yes"/>
      <point x="-965" y="1830"/>
      <point x="-965" y="1750" type="qcurve" smooth="yes"/>
      <point x="-965" y="1680"/>
    </contour>
    <contour>
      <point x="-553" y="1905" type="qcurve"/>
      <point x="-542" y="1935"/>
      <point x="-521" y="1956" type="qcurve" smooth="yes"/>
      <point x="-477" y="2000"/>
      <point x="-390" y="2000" type="qcurve" smooth="yes"/>
      <point x="-302" y="2000"/>
      <point x="-258" y="1956" type="qcurve" smooth="yes"/>
      <point x="-215" y="1913"/>
      <point x="-215" y="1825" type="qcurve" smooth="yes"/>
      <point x="-215" y="1737"/>
      <point x="-258" y="1694" type="qcurve" smooth="yes"/>
      <point x="-260" y="1692"/>
      <point x="-262" y="1690" type="qcurve" smooth="yes"/>
      <point x="-215" y="1650" type="line"/>
      <point x="-215" y="1550" type="line"/>
      <point x="-835" y="1550" type="line" smooth="yes"/>
      <point x="-1085" y="1550"/>
      <point x="-1085" y="1750" type="qcurve" smooth="yes"/>
      <point x="-1085" y="1950"/>
      <point x="-765" y="1950" type="qcurve" smooth="yes"/>
      <point x="-655" y="1950"/>
    </contour>
    <contour>
      <point x="-445" y="1839" type="qcurve" smooth="yes"/>
      <point x="-445" y="1805"/>
      <point x="-428" y="1787" type="qcurve" smooth="yes"/>
      <point x="-410" y="1770"/>
      <point x="-377" y="1770" type="qcurve" smooth="yes"/>
      <point x="-342" y="1770"/>
      <point x="-325" y="1787" type="qcurve" smooth="yes"/>
      <point x="-309" y="1805"/>
      <point x="-309" y="1839" type="qcurve" smooth="yes"/>
      <point x="-309" y="1873"/>
      <point x="-325" y="1890" type="qcurve" smooth="yes"/>
      <point x="-342" y="1907"/>
      <point x="-377" y="1907" type="qcurve" smooth="yes"/>
      <point x="-410" y="1907"/>
      <point x="-428" y="1890" type="qcurve" smooth="yes"/>
      <point x="-445" y="1873"/>
    </contour>
  </outline>
</glyph>
<glyph name="uni17BA" format="1">
  <advance width="0"/>
  <unicode hex="17BA"/>
  <outline>
    <contour>
      <point x="-835" y="1680" type="qcurve" smooth="yes"/>
      <point x="-425" y="1680" type="line"/>
      <point x="-564" y="1830"/>
      <point x="-765" y="1830" type="qcurve" smooth="yes"/>
      <point x="-965" y="1830"/>
      <point x="-965" y="1750" type="qcurve" smooth="yes"/>
      <point x="-965" y="1680"/>
    </contour>
    <contour>
      <point x="-555" y="1906" type="qcurve"/>
      <point x="-555" y="2000" type="line"/>
      <point x="-425" y="2000" type="line"/>
      <point x="-425" y="1828" type="line"/>
      <point x="-407" y="1815"/>
      <point x="-390" y="1800" type="qcurve" smooth="yes"/>
      <point x="-345" y="1761" type="line"/>
      <point x="-345" y="1950" type="line"/>
      <point x="-215" y="1950" type="line"/>
      <point x="-215" y="1550" type="line"/>
      <point x="-835" y="1550" type="line" smooth="yes"/>
      <point x="-1085" y="1550"/>
      <point x="-1085" y="1750" type="qcurve" smooth="yes"/>
      <point x="-1085" y="1950"/>
      <point x="-765" y="1950" type="qcurve" smooth="yes"/>
      <point x="-656" y="1950"/>
    </contour>
  </outline>
</glyph>
<glyph name="uni17BB" format="1">
  <advance width="0"/>
  <unicode hex="17BB"/>
  <outline>
    <contour>
      <point x="-250" y="-132" type="qcurve" smooth="yes"/>
      <point x="-250" y="-500" type="line"/>
      <point x="-400" y="-500" type="line"/>
      <point x="-400" y="-214" type="line"/>
      <point x="-480" y="-214"/>
      <point x="-480" y="-132" type="qcurve" smooth="yes"/>
      <point x="-480" y="-50"/>
      <point x="-360" y="-50" type="qcurve" smooth="yes"/>
      <point x="-250" y="-50"/>
    </contour>
  </outline>
</glyph>
<glyph name="uni17BE" format="1">
  <advance width="0"/>
  <unicode hex="17BE"/>
  <outline>
    <contour>
      <point x="-835" y="1680" type="qcurve" smooth="yes"/>
      <point x="-425" y="1680" type="line"/>
      <point x="-564" y="1830"/>
      <point x="-765" y="1830" type="qcurve" smooth="yes"/>
      <point x="-965" y="1830"/>
      <point x="-965" y="1750" type="qcurve" smooth="yes"/>
      <point x="-965" y="1680"/>
    </contour>
    <contour>
      <point x="-345" y="1761" type="line"/>
      <point x="-345" y="1950" type="line"/>
      <point x="-215" y="1950" type="line"/>
      <point x="-215" y="1550" type="line"/>
      <point x="-835" y="1550" type="line" smooth="yes"/>
      <point x="-1085" y="1550"/>
      <point x="-1085" y="1750" type="qcurve" smooth="yes"/>
      <point x="-1085" y="1950"/>
      <point x="-765" y="1950" type="qcurve" smooth="yes"/>
      <point x="-565" y="1950"/>
      <point x="-390" y="1800" type="qcurve" smooth="yes"/>
    </contour>
  </outline>
</glyph>
<glyph name="uni17BF" format="1">
  <advance width="580"/>
  <unicode hex="17BF"/>
  <outline>
    <contour>
      <point x="-335" y="1680" type="qcurve" smooth="yes"/>
      <point x="75" y="1680" type="line"/>
      <point x="-64" y="1830"/>
      <point x="-265" y="1830" type="qcurve" smooth="yes"/>
      <point x="-465" y="1830"/>
      <point x="-465" y="1750" type="qcurve" smooth="yes"/>
      <point x="-465" y="1680"/>
    </contour>
    <contour>
      <point x="200" y="1350" type="line" smooth="yes"/>
      <point x="200" y="1550"/>
      <point x="80" y="1550" type="qcurve" smooth="yes"/>
      <point x="-335" y="1550" type="line" smooth="yes"/>
      <point x="-585" y="1550"/>
      <point x="-585" y="1750" type="qcurve" smooth="yes"/>
      <point x="-585" y="1950"/>
      <point x="-265" y="1950" type="qcurve" smooth="yes"/>
      <point x="-156" y="1950"/>
      <point x="-55" y="1906" type="qcurve"/>
      <point x="-55" y="2000" type="line"/>
      <point x="75" y="2000" type="line"/>
      <point x="75" y="1828" type="line"/>
      <point x="93" y="1815"/>
      <point x="110" y="1800" type="qcurve" smooth="yes"/>
      <point x="155" y="1761" type="line"/>
      <point x="155" y="1950" type="line"/>
      <point x="285" y="1950" type="line"/>
      <point x="285" y="1593" type="line"/>
      <point x="380" y="1519"/>
      <point x="380" y="1350" type="qcurve" smooth="yes"/>
      <point x="380" y="-250" type="line" smooth="yes"/>
      <point x="380" y="-375"/>
      <point x="285" y="-437" type="qcurve" smooth="yes"/>
      <point x="190" y="-500"/>
      <point x="0" y="-500" type="qcurve" smooth="yes"/>
      <point x="-190" y="-500"/>
      <point x="-285" y="-437" type="qcurve" smooth="yes"/>
      <point x="-380" y="-375"/>
      <point x="-380" y="-250" type="qcurve" smooth="yes"/>
      <point x="-380" y="-100" type="line"/>
      <point x="-200" y="-100" type="line"/>
      <point x="-200" y="-250" type="line" smooth="yes"/>
      <point x="-200" y="-325"/>
      <point x="-150" y="-362" type="qcurve" smooth="yes"/>
      <point x="-100" y="-400"/>
      <point x="0" y="-400" type="qcurve" smooth="yes"/>
      <point x="100" y="-400"/>
      <point x="150" y="-362" type="qcurve" smooth="yes"/>
      <point x="200" y="-325"/>
      <point x="200" y="-250" type="qcurve" smooth="yes"/>
    </contour>
  </outline>
</glyph>
<glyph name="uni17C0" format="1">
  <advance width="580"/>
  <unicode hex="17C0"/>
  <outline>
    <contour>
      <point x="200" y="1340" type="line" smooth="yes"/>
      <point x="200" y="1445"/>
      <point x="149" y="1498" type="qcurve" smooth="yes"/>
      <point x="98" y="1550"/>
      <point x="-4" y="1550" type="qcurve" smooth="yes"/>
      <point x="-120" y="1550" type="line" smooth="yes"/>
      <point x="-370" y="1550"/>
      <point x="-370" y="1691" type="qcurve" smooth="yes"/>
      <point x="-370" y="1724"/>
      <point x="-330" y="1823"/>
      <point x="-330" y="1875" type="qcurve" smooth="yes"/>
      <point x="-330" y="1926"/>
      <point x="-424" y="1926" type="qcurve"/>
      <point x="-424" y="2000"/>
      <point x="-287" y="2000" type="qcurve" smooth="yes"/>
      <point x="-150" y="2000"/>
      <point x="-150" y="1875" type="qcurve" smooth="yes"/>
      <point x="-150" y="1812"/>
      <point x="-190" y="1728"/>
      <point x="-190" y="1691" type="qcurve" smooth="yes"/>
      <point x="-190" y="1650"/>
      <point x="-120" y="1650" type="qcurve" smooth="yes"/>
      <point x="-4" y="1650" type="line" smooth="yes"/>
      <point x="188" y="1650"/>
      <point x="284" y="1573" type="qcurve" smooth="yes"/>
      <point x="380" y="1495"/>
      <point x="380" y="1340" type="qcurve" smooth="yes"/>
      <point x="380" y="-250" type="line" smooth="yes"/>
      <point x="380" y="-375"/>
      <point x="285" y="-437" type="qcurve" smooth="yes"/>
      <point x="190" y="-500"/>
      <point x="0" y="-500" type="qcurve" smooth="yes"/>
      <point x="-190" y="-500"/>
      <point x="-285" y="-437" type="qcurve" smooth="yes"/>
      <point x="-380" y="-375"/>
      <point x="-380" y="-250" type="qcurve" smooth="yes"/>
      <point x="-380" y="-100" type="line"/>
      <point x="-200" y="-100" type="line"/>
      <point x="-200" y="-250" type="line" smooth="yes"/>
      <point x="-200" y="-325"/>
      <point x="-150" y="-362" type="qcurve" smooth="yes"/>
      <point x="-100" y="-400"/>
      <point x="0" y="-400" type="qcurve" smooth="yes"/>
      <point x="100" y="-400"/>
      <point x="150" y="-362" type="qcurve" smooth="yes"/>
      <point x="200" y="-325"/>
      <point x="200" y="-250" type="qcurve" smooth="yes"/>
    </contour>
  </outline>
</glyph>
<glyph name="uni17C2" format="1">
  <advance width="580"/>
  <unicode hex="17C2"/>
  <outline>
    <contour>
      <point x="380" y="113" type="line"/>
      <point x="430" y="113"/>
      <point x="430" y="257" type="qcurve" smooth="yes"/>
      <point x="430" y="333"/>
      <point x="380" y="333" type="qcurve"/>
    </contour>
    <contour>
      <point x="200" y="831" type="line" smooth="yes"/>
      <point x="200" y="922"/>
      <point x="50" y="950" type="qcurve"/>
      <point x="67" y="1068"/>
      <point x="132" y="1184" type="qcurve" smooth="yes"/>
      <point x="197" y="1300"/>
      <point x="242" y="1300" type="qcurve" smooth="yes"/>
      <point x="278" y="1300"/>
      <point x="336" y="1263" type="qcurve" smooth="yes"/>
      <point x="394" y="1225" type="line" smooth="yes"/>
      <point x="420" y="1209"/>
      <point x="441" y="1209" type="qcurve" smooth="yes"/>
      <point x="462" y="1209"/>
      <point x="480" y="1223" type="qcurve"/>
      <point x="475" y="1143"/>
      <point x="423" y="1060"/>
      <point x="382" y="1055" type="qcurve" smooth="yes"/>
      <point x="377" y="1054"/>
      <point x="372" y="1054" type="qcurve" smooth="yes"/>
      <point x="332" y="1054"/>
      <point x="269" y="1090" type="qcurve" smooth="yes"/>
      <point x="236" y="1108"/>
      <point x="214" y="1108" type="qcurve" smooth="yes"/>
      <point x="185" y="1108"/>
      <point x="173" y="1030" type="qcurve"/>
      <point x="380" y="979"/>
      <point x="380" y="910" type="qcurve" smooth="yes"/>
      <point x="380" y="433" type="line"/>
      <point x="530" y="433"/>
      <point x="530" y="257" type="qcurve" smooth="yes"/>
      <point x="530" y="0"/>
      <point x="380" y="0" type="qcurve" smooth="yes"/>
      <point x="300" y="0" type="line" smooth="yes"/>
      <point x="200" y="0"/>
      <point x="200" y="98" type="qcurve" smooth="yes"/>
    </contour>
    <contour>
      <point x="220" y="1536" type="qcurve"/>
      <point x="165" y="1536"/>
      <point x="165" y="1514" type="qcurve" smooth="yes"/>
      <point x="165" y="1491"/>
      <point x="250" y="1491" type="qcurve" smooth="yes"/>
      <point x="317" y="1491"/>
      <point x="359" y="1535" type="qcurve" smooth="yes"/>
      <point x="400" y="1577"/>
      <point x="400" y="1645" type="qcurve" smooth="yes"/>
      <point x="400" y="1695"/>
      <point x="370" y="1730" type="qcurve" smooth="yes"/>
      <point x="340" y="1764"/>
      <point x="290" y="1764" type="qcurve" smooth="yes"/>
      <point x="200" y="1764"/>
      <point x="200" y="1832" type="qcurve" smooth="yes"/>
      <point x="200" y="1900"/>
      <point x="290" y="1900" type="qcurve" smooth="yes"/>
      <point x="402" y="1900"/>
      <point x="476" y="1835" type="qcurve" smooth="yes"/>
      <point x="550" y="1768"/>
      <point x="550" y="1645" type="qcurve" smooth="yes"/>
      <point x="550" y="1550"/>
      <point x="478" y="1475" type="qcurve" smooth="yes"/>
      <point x="405" y="1400"/>
      <point x="250" y="1400" type="qcurve" smooth="yes"/>
      <point x="138" y="1400"/>
      <point x="69" y="1428" type="qcurve" smooth="yes"/>
      <point x="0" y="1456"/>
      <point x="0" y="1514" type="qcurve" smooth="yes"/>
      <point x="0" y="1571"/>
      <point x="28" y="1599" type="qcurve" smooth="yes"/>
      <point x="55" y="1627"/>
      <point x="110" y="1627" type="qcurve" smooth="yes"/>
      <point x="165" y="1627"/>
      <point x="192" y="1605" type="qcurve" smooth="yes"/>
      <point x="220" y="1582"/>
    </contour>
  </outline>
</glyph>
<glyph name="uni17C3" format="1">
  <advance width="580"/>
  <unicode hex="17C3"/>
  <outline>
    <contour>
      <point x="380" y="113" type="line"/>
      <point x="430" y="113"/>
      <point x="430" y="257" type="qcurve" smooth="yes"/>
      <point x="430" y="333"/>
      <point x="380" y="333" type="qcurve"/>
    </contour>
    <contour>
      <point x="200" y="831" type="line" smooth="yes"/>
      <point x="200" y="922"/>
      <point x="50" y="950" type="qcurve"/>
      <point x="67" y="1068"/>
      <point x="132" y="1184" type="qcurve" smooth="yes"/>
      <point x="197" y="1300"/>
      <point x="242" y="1300" type="qcurve" smooth="yes"/>
      <point x="278" y="1300"/>
      <point x="336" y="1263" type="qcurve" smooth="yes"/>
      <point x="394" y="1225" type="line" smooth="yes"/>
      <point x="420" y="1209"/>
      <point x="441" y="1209" type="qcurve" smooth="yes"/>
      <point x="462" y="1209"/>
      <point x="480" y="1223" type="qcurve"/>
      <point x="475" y="1143"/>
      <point x="423" y="1060"/>
      <point x="382" y="1055" type="qcurve" smooth="yes"/>
      <point x="377" y="1054"/>
      <point x="372" y="1054" type="qcurve" smooth="yes"/>
      <point x="332" y="1054"/>
      <point x="269" y="1090" type="qcurve" smooth="yes"/>
      <point x="236" y="1108"/>
      <point x="214" y="1108" type="qcurve" smooth="yes"/>
      <point x="185" y="1108"/>
      <point x="173" y="1030" type="qcurve"/>
      <point x="380" y="979"/>
      <point x="380" y="910" type="qcurve" smooth="yes"/>
      <point x="380" y="433" type="line"/>
      <point x="530" y="433"/>
      <point x="530" y="257" type="qcurve" smooth="yes"/>
      <point x="530" y="0"/>
      <point x="380" y="0" type="qcurve" smooth="yes"/>
      <point x="300" y="0" type="line" smooth="yes"/>
      <point x="200" y="0"/>
      <point x="200" y="98" type="qcurve" smooth="yes"/>
    </contour>
    <contour>
      <point x="125" y="1602" type="qcurve" smooth="yes"/>
      <point x="200" y="1602"/>
      <point x="200" y="1538" type="qcurve" smooth="yes"/>
      <point x="200" y="1492"/>
      <point x="250" y="1492" type="qcurve" smooth="yes"/>
      <point x="300" y="1492"/>
      <point x="350" y="1538"/>
      <point x="350" y="1583" type="qcurve" smooth="yes"/>
      <point x="350" y="1648"/>
      <point x="300" y="1693"/>
      <point x="250" y="1693" type="qcurve" smooth="yes"/>
      <point x="200" y="1693" type="line" smooth="yes"/>
      <point x="50" y="1693"/>
      <point x="50" y="1785" type="qcurve" smooth="yes"/>
      <point x="50" y="1858"/>
      <point x="-50" y="1858" type="qcurve"/>
      <point x="-50" y="1950"/>
      <point x="50" y="1950" type="qcurve" smooth="yes"/>
      <point x="128" y="1950"/>
      <point x="164" y="1909" type="qcurve" smooth="yes"/>
      <point x="200" y="1868"/>
      <point x="200" y="1785" type="qcurve"/>
      <point x="250" y="1785" type="line" smooth="yes"/>
      <point x="388" y="1785"/>
      <point x="444" y="1739" type="qcurve" smooth="yes"/>
      <point x="500" y="1693"/>
      <point x="500" y="1583" type="qcurve" smooth="yes"/>
      <point x="500" y="1492"/>
      <point x="444" y="1446" type="qcurve" smooth="yes"/>
      <point x="388" y="1400"/>
      <point x="250" y="1400" type="qcurve" smooth="yes"/>
      <point x="50" y="1400"/>
      <point x="50" y="1528" type="qcurve" smooth="yes"/>
      <point x="50" y="1602"/>
    </contour>
  </outline>
</glyph>
<glyph name="uni17C5" format="1">
  <advance width="580"/>
  <unicode hex="17C5"/>
  <outline>
    <contour>
      <point x="365" y="1041" type="line"/>
      <point x="380" y="1009"/>
      <point x="380" y="978" type="qcurve" smooth="yes"/>
      <point x="380" y="0" type="line"/>
      <point x="200" y="0" type="line"/>
      <point x="200" y="978" type="line" smooth="yes"/>
      <point x="200" y="1016"/>
      <point x="15" y="1149"/>
      <point x="-67" y="1149" type="qcurve" smooth="yes"/>
      <point x="-144" y="1149"/>
      <point x="-242" y="1085" type="qcurve"/>
      <point x="-265" y="1113"/>
      <point x="-265" y="1139" type="qcurve" smooth="yes"/>
      <point x="-265" y="1210"/>
      <point x="-210" y="1244" type="qcurve" smooth="yes"/>
      <point x="-118" y="1300"/>
      <point x="-27" y="1300" type="qcurve" smooth="yes"/>
      <point x="82" y="1300"/>
      <point x="231" y="1187" type="qcurve" smooth="yes"/>
      <point x="241" y="1179"/>
      <point x="250" y="1172" type="qcurve"/>
      <point x="250" y="1474" type="line" smooth="yes"/>
      <point x="250" y="1560"/>
      <point x="150" y="1560" type="qcurve"/>
      <point x="150" y="1647"/>
      <point x="275" y="1647" type="qcurve" smooth="yes"/>
      <point x="430" y="1647"/>
      <point x="430" y="1474" type="qcurve" smooth="yes"/>
      <point x="430" y="1214" type="line" smooth="yes"/>
      <point x="430" y="1133"/>
      <point x="370" y="1036" type="qcurve"/>
    </contour>
  </outline>
</glyph>
<glyph name="uni17C6" format="1">
  <advance width="0"/>
  <unicode hex="17C6"/>
  <outline>
    <contour>
      <point x="-723" y="1799"/>
      <point x="-750" y="1751"/>
      <point x="-750" y="1725" type="qcurve" smooth="yes"/>
      <point x="-750" y="1699"/>
      <point x="-723" y="1651"/>
      <point x="-675" y="1625"/>
      <point x="-650" y="1625" type="qcurve" smooth="yes"/>
      <point x="-624" y="1625"/>
      <point x="-576" y="1651"/>
      <point x="-550" y="1699"/>
      <point x="-550" y="1725" type="qcurve" smooth="yes"/>
      <point x="-550" y="1751"/>
      <point x="-577" y="1799"/>
      <point x="-624" y="1825"/>
      <point x="-650" y="1825" type="qcurve" smooth="yes"/>
      <point x="-675" y="1825"/>
    </contour>
    <contour>
      <point x="-650" y="1950" type="qcurve" smooth="yes"/>
      <point x="-593" y="1950"/>
      <point x="-485" y="1892"/>
      <point x="-425" y="1784"/>
      <point x="-425" y="1725" type="qcurve" smooth="yes"/>
      <point x="-425" y="1667"/>
      <point x="-484" y="1559"/>
      <point x="-591" y="1500"/>
      <point x="-650" y="1500" type="qcurve" smooth="yes"/>
      <point x="-708" y="1500"/>
      <point x="-815" y="1559"/>
      <point x="-875" y="1667"/>
      <point x="-875" y="1725" type="qcurve" smooth="yes"/>
      <point x="-875" y="1784"/>
      <point x="-814" y="1892"/>
      <point x="-707" y="1950"/>
    </contour>
  </outline>
</glyph>
<glyph name="uni17C7" format="1">
  <advance width="900"/>
  <unicode hex="17C7"/>
  <outline>
    <contour>
      <point x="377" y="335"/>
      <point x="350" y="270"/>
      <point x="350" y="235" type="qcurve" smooth="yes"/>
      <point x="350" y="200"/>
      <point x="376" y="135"/>
      <point x="424" y="110"/>
      <point x="450" y="110" type="qcurve" smooth="yes"/>
      <point x="476" y="110"/>
      <point x="524" y="135"/>
      <point x="550" y="200"/>
      <point x="550" y="235" type="qcurve" smooth="yes"/>
      <point x="550" y="270"/>
      <point x="523" y="335"/>
      <point x="475" y="360"/>
      <point x="450" y="360" type="qcurve" smooth="yes"/>
      <point x="425" y="360"/>
    </contour>
    <contour>
      <point x="450" y="460" type="qcurve" smooth="yes"/>
      <point x="513" y="460"/>
      <point x="633" y="402"/>
      <point x="700" y="294"/>
      <point x="700" y="235" type="qcurve" smooth="yes"/>
      <point x="700" y="177"/>
      <point x="634" y="69"/>
      <point x="515" y="10"/>
      <point x="450" y="10" type="qcurve" smooth="yes"/>
      <point x="385" y="10"/>
      <point x="266" y="69"/>
      <point x="200" y="177"/>
      <point x="200" y="235" type="qcurve" smooth="yes"/>
      <point x="200" y="294"/>
      <point x="268" y="402"/>
      <point x="387" y="460"/>
    </contour>
    <contour>
      <point x="377" y="1165"/>
      <point x="350" y="1100"/>
      <point x="350" y="1065" type="qcurve" smooth="yes"/>
      <point x="350" y="1030"/>
      <point x="376" y="965"/>
      <point x="424" y="940"/>
      <point x="450" y="940" type="qcurve" smooth="yes"/>
      <point x="476" y="940"/>
      <point x="524" y="965"/>
      <point x="550" y="1030"/>
      <point x="550" y="1065" type="qcurve" smooth="yes"/>
      <point x="550" y="1100"/>
      <point x="523" y="1165"/>
      <point x="475" y="1190"/>
      <point x="450" y="1190" type="qcurve" smooth="yes"/>
      <point x="425" y="1190"/>
    </contour>
    <contour>
      <point x="450" y="1290" type="qcurve" smooth="yes"/>
      <point x="513" y="1290"/>
      <point x="633" y="1232"/>
      <point x="700" y="1124"/>
      <point x="700" y="1065" type="qcurve" smooth="yes"/>
      <point x="700" y="1007"/>
      <point x="634" y="899"/>
      <point x="515" y="840"/>
      <point x="450" y="840" type="qcurve" smooth="yes"/>
      <point x="385" y="840"/>
      <point x="266" y="899"/>
      <point x="200" y="1007"/>
      <point x="200" y="1065" type="qcurve" smooth="yes"/>
      <point x="200" y="1124"/>
      <point x="268" y="1232"/>
      <point x="387" y="1290"/>
    </contour>
  </outline>
</glyph>
<glyph name="uni17C8" format="1">
  <advance width="625"/>
  <unicode hex="17C8"/>
  <outline>
    <contour>
      <point x="300" y="330" type="qcurve" smooth="yes"/>
      <point x="332" y="330"/>
      <point x="391" y="291"/>
      <point x="425" y="219"/>
      <point x="425" y="180" type="qcurve" smooth="yes"/>
      <point x="425" y="141"/>
      <point x="392" y="70"/>
      <point x="333" y="30"/>
      <point x="300" y="30" type="qcurve" smooth="yes"/>
      <point x="268" y="30"/>
      <point x="208" y="70"/>
      <point x="175" y="141"/>
      <point x="175" y="180" type="qcurve" smooth="yes"/>
      <point x="175" y="219"/>
      <point x="208" y="291"/>
      <point x="268" y="330"/>
    </contour>
    <contour>
      <point x="300" y="1270" type="qcurve" smooth="yes"/>
      <point x="332" y="1270"/>
      <point x="391" y="1231"/>
      <point x="425" y="1159"/>
      <point x="425" y="1120" type="qcurve" smooth="yes"/>
      <point x="425" y="1081"/>
      <point x="392" y="1010"/>
      <point x="333" y="970"/>
      <point x="300" y="970" type="qcurve" smooth="yes"/>
      <point x="268" y="970"/>
      <point x="208" y="1010"/>
      <point x="175" y="1081"/>
      <point x="175" y="1120" type="qcurve" smooth="yes"/>
      <point x="175" y="1159"/>
      <point x="208" y="1231"/>
      <point x="268" y="1270"/>
    </contour>
  </outline>
</glyph>
<glyph name="uni17C9" format="1">
  <advance width="0"/>
  <unicode hex="17C9"/>
  <outline>
    <contour>
      <point x="-750" y="1900" type="line"/>
      <point x="-750" y="1600" type="line" smooth="yes"/>
      <point x="-750" y="1520"/>
      <point x="-812" y="1500" type="qcurve"/>
      <point x="-875" y="1520"/>
      <point x="-875" y="1600" type="qcurve" smooth="yes"/>
      <point x="-875" y="1900" type="line"/>
    </contour>
    <contour>
      <point x="-425" y="1900" type="line"/>
      <point x="-425" y="1600" type="line" smooth="yes"/>
      <point x="-425" y="1520"/>
      <point x="-487" y="1500" type="qcurve"/>
      <point x="-550" y="1520"/>
      <point x="-550" y="1600" type="qcurve" smooth="yes"/>
      <point x="-550" y="1900" type="line"/>
    </contour>
  </outline>
</glyph>
<glyph name="uni17CA" format="1">
  <advance width="0"/>
  <unicode hex="17CA"/>
  <outline>
    <contour>
      <point x="-1106" y="1320" type="line"/>
      <point x="-1225" y="1356"/>
      <point x="-1225" y="1406" type="qcurve" smooth="yes"/>
      <point x="-1225" y="1440"/>
      <point x="-1160" y="1479" type="qcurve" smooth="yes"/>
      <point x="-1094" y="1518" type="line" smooth="yes"/>
      <point x="-963" y="1598"/>
      <point x="-931" y="1598" type="qcurve" smooth="yes"/>
      <point x="-897" y="1598"/>
      <point x="-786" y="1526" type="qcurve" smooth="yes"/>
      <point x="-730" y="1490" type="line" smooth="yes"/>
      <point x="-703" y="1472"/>
      <point x="-675" y="1472" type="qcurve" smooth="yes"/>
      <point x="-650" y="1472"/>
      <point x="-624" y="1490" type="qcurve" smooth="yes"/>
      <point x="-574" y="1526" type="line" smooth="yes"/>
      <point x="-473" y="1598"/>
      <point x="-437" y="1598" type="qcurve" smooth="yes"/>
      <point x="-402" y="1598"/>
      <point x="-345" y="1558" type="qcurve" smooth="yes"/>
      <point x="-231" y="1478" type="line" smooth="yes"/>
      <point x="-198" y="1454"/>
      <point x="-149" y="1454" type="qcurve" smooth="yes"/>
      <point x="-116" y="1454"/>
      <point x="-75" y="1465" type="qcurve"/>
      <point x="-175" y="1358"/>
      <point x="-240" y="1358" type="qcurve" smooth="yes"/>
      <point x="-306" y="1358"/>
      <point x="-342" y="1384" type="qcurve" smooth="yes"/>
      <point x="-415" y="1435" type="line" smooth="yes"/>
      <point x="-452" y="1462"/>
      <point x="-495" y="1462" type="qcurve" smooth="yes"/>
      <point x="-538" y="1462"/>
      <point x="-606" y="1410" type="qcurve" smooth="yes"/>
      <point x="-675" y="1358"/>
      <point x="-715" y="1358" type="qcurve" smooth="yes"/>
      <point x="-782" y="1358"/>
      <point x="-823" y="1384" type="qcurve" smooth="yes"/>
      <point x="-904" y="1435" type="line" smooth="yes"/>
      <point x="-945" y="1462"/>
      <point x="-988" y="1462" type="qcurve" smooth="yes"/>
      <point x="-1021" y="1462"/>
      <point x="-1048" y="1443" type="qcurve" smooth="yes"/>
      <point x="-1075" y="1424"/>
      <point x="-1075" y="1400" type="qcurve" smooth="yes"/>
      <point x="-1075" y="1378"/>
      <point x="-1001" y="1351" type="qcurve"/>
    </contour>
  </outline>
</glyph>
<glyph name="uni17CB" format="1">
  <advance width="0"/>
  <unicode hex="17CB"/>
  <outline>
    <contour>
      <point x="-575" y="1950" type="line"/>
      <point x="-575" y="1600" type="line" smooth="yes"/>
      <point x="-575" y="1520"/>
      <point x="-650" y="1500" type="qcurve"/>
      <point x="-725" y="1520"/>
      <point x="-725" y="1600" type="qcurve" smooth="yes"/>
      <point x="-725" y="1950" type="line"/>
    </contour>
  </outline>
</glyph>
<glyph name="uni17CC" format="1">
  <advance width="0"/>
  <unicode hex="17CC"/>
  <outline>
    <contour>
      <point x="-830" y="1444" type="qcurve" smooth="yes"/>
      <point x="-891" y="1400"/>
      <point x="-929" y="1400" type="qcurve" smooth="yes"/>
      <point x="-961" y="1400"/>
      <point x="-981" y="1422" type="qcurve" smooth="yes"/>
      <point x="-994" y="1438"/>
      <point x="-994" y="1453" type="qcurve" smooth="yes"/>
      <point x="-994" y="1487"/>
      <point x="-930" y="1523" type="qcurve" smooth="yes"/>
      <point x="-836" y="1576" type="line" smooth="yes"/>
      <point x="-694" y="1655"/>
      <point x="-637" y="1769" type="qcurve" smooth="yes"/>
      <point x="-581" y="1883"/>
      <point x="-581" y="1918" type="qcurve" smooth="yes"/>
      <point x="-581" y="2000"/>
      <point x="-506" y="2000" type="qcurve" smooth="yes"/>
      <point x="-432" y="2000"/>
      <point x="-432" y="1918" type="qcurve" smooth="yes"/>
      <point x="-433" y="1859"/>
      <point x="-495" y="1767" type="qcurve" smooth="yes"/>
      <point x="-557" y="1674"/>
      <point x="-665" y="1584" type="qcurve"/>
      <point x="-603" y="1598"/>
      <point x="-547" y="1598" type="qcurve" smooth="yes"/>
      <point x="-509" y="1598"/>
      <point x="-474" y="1592" type="qcurve" smooth="yes"/>
      <point x="-387" y="1576"/>
      <point x="-326" y="1509" type="qcurve"/>
      <point x="-306" y="1481"/>
      <point x="-306" y="1459" type="qcurve" smooth="yes"/>
      <point x="-306" y="1428"/>
      <point x="-344" y="1411" type="qcurve" smooth="yes"/>
      <point x="-365" y="1400"/>
      <point x="-385" y="1400" type="qcurve" smooth="yes"/>
      <point x="-423" y="1400"/>
      <point x="-453" y="1441" type="qcurve" smooth="yes"/>
      <point x="-497" y="1502"/>
      <point x="-565" y="1510" type="qcurve" smooth="yes"/>
      <point x="-606" y="1513"/>
      <point x="-637" y="1513" type="qcurve" smooth="yes"/>
      <point x="-698" y="1513"/>
      <point x="-726" y="1503" type="qcurve" smooth="yes"/>
      <point x="-769" y="1487"/>
    </contour>
  </outline>
</glyph>
<glyph name="uni17CD" format="1">
  <advance width="0"/>
  <unicode hex="17CD"/>
  <outline>
    <contour>
      <point x="-855" y="1676" type="qcurve" smooth="yes"/>
      <point x="-855" y="1638"/>
      <point x="-843" y="1620" type="qcurve" smooth="yes"/>
      <point x="-830" y="1601"/>
      <point x="-795" y="1601" type="qcurve" smooth="yes"/>
      <point x="-745" y="1601"/>
      <point x="-745" y="1619" type="qcurve" smooth="yes"/>
      <point x="-745" y="1650"/>
      <point x="-675" y="1650" type="qcurve" smooth="yes"/>
      <point x="-605" y="1650"/>
      <point x="-605" y="1619" type="qcurve" smooth="yes"/>
      <point x="-605" y="1560"/>
      <point x="-649" y="1530" type="qcurve" smooth="yes"/>
      <point x="-693" y="1500"/>
      <point x="-790" y="1500" type="qcurve" smooth="yes"/>
      <point x="-917" y="1500"/>
      <point x="-961" y="1544" type="qcurve" smooth="yes"/>
      <point x="-1005" y="1588"/>
      <point x="-1005" y="1675" type="qcurve" smooth="yes"/>
      <point x="-1005" y="1752"/>
      <point x="-960" y="1811" type="qcurve" smooth="yes"/>
      <point x="-915" y="1870"/>
      <point x="-785" y="1870" type="qcurve" smooth="yes"/>
      <point x="-658" y="1870"/>
      <point x="-610" y="1811" type="qcurve"/>
      <point x="-534" y="1836"/>
      <point x="-469" y="1880" type="qcurve" smooth="yes"/>
      <point x="-405" y="1923"/>
      <point x="-363" y="1995" type="qcurve"/>
      <point x="-352" y="1997" type="line" smooth="yes"/>
      <point x="-333" y="1997"/>
      <point x="-310" y="1968" type="qcurve" smooth="yes"/>
      <point x="-295" y="1948"/>
      <point x="-295" y="1934" type="qcurve" smooth="yes"/>
      <point x="-295" y="1920"/>
      <point x="-307" y="1910" type="qcurve" smooth="yes"/>
      <point x="-352" y="1847"/>
      <point x="-412" y="1797" type="qcurve" smooth="yes"/>
      <point x="-473" y="1748"/>
      <point x="-548" y="1711" type="qcurve"/>
      <point x="-584" y="1700"/>
      <point x="-618" y="1700" type="qcurve"/>
      <point x="-692" y="1770"/>
      <point x="-755" y="1770" type="qcurve" smooth="yes"/>
      <point x="-800" y="1770"/>
      <point x="-827" y="1742" type="qcurve" smooth="yes"/>
      <point x="-855" y="1713"/>
    </contour>
  </outline>
</glyph>
<glyph name="uni17CE" format="1">
  <advance width="0"/>
  <unicode hex="17CE"/>
  <outline>
    <contour>
      <point x="-710" y="1649" type="line"/>
      <point x="-860" y="1649" type="line"/>
      <point x="-860" y="1770" type="line"/>
      <point x="-710" y="1770" type="line"/>
      <point x="-710" y="1919" type="line"/>
      <point x="-590" y="1919" type="line"/>
      <point x="-590" y="1770" type="line"/>
      <point x="-440" y="1770" type="line"/>
      <point x="-440" y="1649" type="line"/>
      <point x="-590" y="1649" type="line"/>
      <point x="-590" y="1500" type="line"/>
      <point x="-710" y="1500" type="line"/>
    </contour>
  </outline>
</glyph>
<glyph name="uni17CF" format="1">
  <advance width="0"/>
  <unicode hex="17CF"/>
  <outline>
    <contour>
      <point x="-430" y="2000" type="qcurve" smooth="yes"/>
      <point x="-331" y="2000"/>
      <point x="-331" y="1937" type="qcurve" smooth="yes"/>
      <point x="-331" y="1873"/>
      <point x="-430" y="1873" type="qcurve" smooth="yes"/>
      <point x="-465" y="1873"/>
      <point x="-512" y="1788" type="qcurve"/>
      <point x="-528" y="1746" type="line"/>
      <point x="-630" y="1746" type="line" smooth="yes"/>
      <point x="-840" y="1746"/>
      <point x="-840" y="1619" type="qcurve" smooth="yes"/>
      <point x="-840" y="1535"/>
      <point x="-800" y="1535" type="qcurve" smooth="yes"/>
      <point x="-760" y="1535"/>
      <point x="-650" y="1650" type="qcurve"/>
      <point x="-540" y="1535"/>
      <point x="-490" y="1535" type="qcurve" smooth="yes"/>
      <point x="-460" y="1535"/>
      <point x="-460" y="1577" type="qcurve" smooth="yes"/>
      <point x="-460" y="1619"/>
      <point x="-510" y="1619" type="qcurve"/>
      <point x="-510" y="1704"/>
      <point x="-410" y="1704" type="qcurve" smooth="yes"/>
      <point x="-310" y="1704"/>
      <point x="-310" y="1577" type="qcurve" smooth="yes"/>
      <point x="-310" y="1450"/>
      <point x="-485" y="1450" type="qcurve" smooth="yes"/>
      <point x="-580" y="1450"/>
      <point x="-650" y="1535" type="qcurve"/>
      <point x="-720" y="1450"/>
      <point x="-805" y="1450" type="qcurve" smooth="yes"/>
      <point x="-990" y="1450"/>
      <point x="-990" y="1619" type="qcurve" smooth="yes"/>
      <point x="-990" y="1831"/>
      <point x="-630" y="1831" type="qcurve"/>
      <point x="-557" y="2000"/>
    </contour>
  </outline>
</glyph>
<glyph name="uni17D0" format="1">
  <advance width="0"/>
  <unicode hex="17D0"/>
  <outline>
    <contour>
      <point x="-530" y="1838" type="qcurve" smooth="yes"/>
      <point x="-400" y="1838"/>
      <point x="-400" y="1750" type="qcurve" smooth="yes"/>
      <point x="-400" y="1670"/>
      <point x="-475" y="1670" type="qcurve" smooth="yes"/>
      <point x="-540" y="1670"/>
      <point x="-550" y="1712" type="qcurve"/>
      <point x="-550" y="1628"/>
      <point x="-450" y="1628" type="qcurve" smooth="yes"/>
      <point x="-275" y="1628"/>
      <point x="-212" y="1673" type="qcurve" smooth="yes"/>
      <point x="-150" y="1718"/>
      <point x="-150" y="1807" type="qcurve" smooth="yes"/>
      <point x="-150" y="1909"/>
      <point x="-200" y="1909" type="qcurve" smooth="yes"/>
      <point x="-250" y="1909"/>
      <point x="-250" y="1951" type="qcurve" smooth="yes"/>
      <point x="-250" y="1993"/>
      <point x="-200" y="1993" type="qcurve" smooth="yes"/>
      <point x="-125" y="1993"/>
      <point x="-62" y="1947" type="qcurve" smooth="yes"/>
      <point x="0" y="1900"/>
      <point x="0" y="1807" type="qcurve" smooth="yes"/>
      <point x="0" y="1675"/>
      <point x="-112" y="1609" type="qcurve" smooth="yes"/>
      <point x="-225" y="1543"/>
      <point x="-450" y="1543" type="qcurve" smooth="yes"/>
      <point x="-575" y="1543"/>
      <point x="-638" y="1585" type="qcurve" smooth="yes"/>
      <point x="-700" y="1627"/>
      <point x="-700" y="1712" type="qcurve" smooth="yes"/>
      <point x="-700" y="1838"/>
    </contour>
  </outline>
</glyph>
<glyph name="uni17D4" format="1">
  <advance width="1250"/>
  <unicode hex="17D4"/>
  <outline>
    <contour>
      <point x="870" y="1206" type="qcurve"/>
      <point x="870" y="1300" type="line"/>
      <point x="1050" y="1300" type="line"/>
      <point x="1050" y="178" type="line" smooth="yes"/>
      <point x="1050" y="76"/>
      <point x="1002" y="38" type="qcurve" smooth="yes"/>
      <point x="955" y="0"/>
      <point x="860" y="0" type="qcurve" smooth="yes"/>
      <point x="805" y="0"/>
      <point x="778" y="22" type="qcurve" smooth="yes"/>
      <point x="750" y="43"/>
      <point x="750" y="88" type="qcurve"/>
      <point x="813" y="88"/>
      <point x="870" y="120"/>
      <point x="870" y="178" type="qcurve" smooth="yes"/>
      <point x="870" y="1058" type="line"/>
      <point x="712" y="867"/>
      <point x="500" y="867" type="qcurve" smooth="yes"/>
      <point x="200" y="867"/>
      <point x="200" y="1083" type="qcurve" smooth="yes"/>
      <point x="200" y="1300"/>
      <point x="450" y="1300" type="qcurve" smooth="yes"/>
      <point x="550" y="1300"/>
      <point x="550" y="1235" type="qcurve" smooth="yes"/>
      <point x="550" y="1170"/>
      <point x="450" y="1170" type="qcurve" smooth="yes"/>
      <point x="380" y="1170"/>
      <point x="380" y="1083" type="qcurve" smooth="yes"/>
      <point x="380" y="997"/>
      <point x="500" y="997" type="qcurve" smooth="yes"/>
      <point x="718" y="997"/>
    </contour>
  </outline>
</glyph>
<glyph name="uni17D5" format="1">
  <advance width="1580"/>
  <unicode hex="17D5"/>
  <outline>
    <contour>
      <point x="1200" y="1300" type="line"/>
      <point x="1380" y="1300" type="line"/>
      <point x="1380" y="130" type="line" smooth="yes"/>
      <point x="1380" y="65"/>
      <point x="1318" y="33" type="qcurve" smooth="yes"/>
      <point x="1255" y="0"/>
      <point x="1100" y="0" type="qcurve"/>
      <point x="1150" y="22"/>
      <point x="1175" y="54" type="qcurve" smooth="yes"/>
      <point x="1200" y="87"/>
      <point x="1200" y="130" type="qcurve" smooth="yes"/>
    </contour>
    <contour>
      <point x="870" y="1206" type="qcurve"/>
      <point x="870" y="1300" type="line"/>
      <point x="1050" y="1300" type="line"/>
      <point x="1050" y="178" type="line" smooth="yes"/>
      <point x="1050" y="76"/>
      <point x="1002" y="38" type="qcurve" smooth="yes"/>
      <point x="955" y="0"/>
      <point x="860" y="0" type="qcurve" smooth="yes"/>
      <point x="805" y="0"/>
      <point x="778" y="22" type="qcurve" smooth="yes"/>
      <point x="750" y="43"/>
      <point x="750" y="88" type="qcurve"/>
      <point x="813" y="88"/>
      <point x="870" y="120"/>
      <point x="870" y="178" type="qcurve" smooth="yes"/>
      <point x="870" y="1058" type="line"/>
      <point x="712" y="867"/>
      <point x="500" y="867" type="qcurve" smooth="yes"/>
      <point x="200" y="867"/>
      <point x="200" y="1083" type="qcurve" smooth="yes"/>
      <point x="200" y="1300"/>
      <point x="450" y="1300" type="qcurve" smooth="yes"/>
      <point x="550" y="1300"/>
      <point x="550" y="1235" type="qcurve" smooth="yes"/>
      <point x="550" y="1170"/>
      <point x="450" y="1170" type="qcurve" smooth="yes"/>
      <point x="380" y="1170"/>
      <point x="380" y="1083" type="qcurve" smooth="yes"/>
      <point x="380" y="997"/>
      <point x="500" y="997" type="qcurve" smooth="yes"/>
      <point x="718" y="997"/>
    </contour>
  </outline>
</glyph>
<glyph name="uni17D6" format="1">
  <advance width="900"/>
  <unicode hex="17D6"/>
  <outline>
    <contour>
      <point x="50" y="600" type="line"/>
      <point x="50" y="700" type="line"/>
      <point x="850" y="700" type="line"/>
      <point x="850" y="600" type="line"/>
    </contour>
    <contour>
      <point x="377" y="325"/>
      <point x="350" y="260"/>
      <point x="350" y="225" type="qcurve" smooth="yes"/>
      <point x="350" y="190"/>
      <point x="376" y="125"/>
      <point x="424" y="100"/>
      <point x="450" y="100" type="qcurve" smooth="yes"/>
      <point x="476" y="100"/>
      <point x="524" y="125"/>
      <point x="550" y="190"/>
      <point x="550" y="225" type="qcurve" smooth="yes"/>
      <point x="550" y="260"/>
      <point x="523" y="325"/>
      <point x="475" y="350"/>
      <point x="450" y="350" type="qcurve" smooth="yes"/>
      <point x="425" y="350"/>
    </contour>
    <contour>
      <point x="450" y="450" type="qcurve" smooth="yes"/>
      <point x="513" y="450"/>
      <point x="633" y="392"/>
      <point x="700" y="284"/>
      <point x="700" y="225" type="qcurve" smooth="yes"/>
      <point x="700" y="167"/>
      <point x="634" y="59"/>
      <point x="515" y="0"/>
      <point x="450" y="0" type="qcurve" smooth="yes"/>
      <point x="385" y="0"/>
      <point x="266" y="59"/>
      <point x="200" y="167"/>
      <point x="200" y="225" type="qcurve" smooth="yes"/>
      <point x="200" y="284"/>
      <point x="268" y="392"/>
      <point x="387" y="450"/>
    </contour>
    <contour>
      <point x="377" y="1175"/>
      <point x="350" y="1110"/>
      <point x="350" y="1075" type="qcurve" smooth="yes"/>
      <point x="350" y="1040"/>
      <point x="376" y="975"/>
      <point x="424" y="950"/>
      <point x="450" y="950" type="qcurve" smooth="yes"/>
      <point x="476" y="950"/>
      <point x="524" y="975"/>
      <point x="550" y="1040"/>
      <point x="550" y="1075" type="qcurve" smooth="yes"/>
      <point x="550" y="1110"/>
      <point x="523" y="1175"/>
      <point x="475" y="1200"/>
      <point x="450" y="1200" type="qcurve" smooth="yes"/>
      <point x="425" y="1200"/>
    </contour>
    <contour>
      <point x="450" y="1300" type="qcurve" smooth="yes"/>
      <point x="513" y="1300"/>
      <point x="633" y="1242"/>
      <point x="700" y="1134"/>
      <point x="700" y="1075" type="qcurve" smooth="yes"/>
      <point x="700" y="1017"/>
      <point x="634" y="909"/>
      <point x="515" y="850"/>
      <point x="450" y="850" type="qcurve" smooth="yes"/>
      <point x="385" y="850"/>
      <point x="266" y="909"/>
      <point x="200" y="1017"/>
      <point x="200" y="1075" type="qcurve" smooth="yes"/>
      <point x="200" y="1134"/>
      <point x="268" y="1242"/>
      <point x="387" y="1300"/>
    </contour>
  </outline>
</glyph>
<glyph name="uni17D7" format="1">
  <advance width="1350"/>
  <unicode hex="17D7"/>
  <outline>
    <contour>
      <point x="1150" y="303" type="line" smooth="yes"/>
      <point x="1150" y="152"/>
      <point x="1046" y="75" type="qcurve" smooth="yes"/>
      <point x="942" y="0"/>
      <point x="734" y="0" type="qcurve" smooth="yes"/>
      <point x="527" y="0"/>
      <point x="423" y="38" type="qcurve" smooth="yes"/>
      <point x="319" y="75"/>
      <point x="319" y="152" type="qcurve" smooth="yes"/>
      <point x="319" y="202"/>
      <point x="378" y="252"/>
      <point x="438" y="252" type="qcurve"/>
      <point x="438" y="170"/>
      <point x="512" y="128" type="qcurve" smooth="yes"/>
      <point x="586" y="88"/>
      <point x="734" y="88" type="qcurve" smooth="yes"/>
      <point x="855" y="88"/>
      <point x="913" y="142" type="qcurve" smooth="yes"/>
      <point x="970" y="195"/>
      <point x="970" y="303" type="qcurve" smooth="yes"/>
      <point x="970" y="1143" type="line"/>
      <point x="736" y="1010" type="line"/>
      <point x="512" y="1160" type="line"/>
      <point x="375" y="1048" type="line"/>
      <point x="375" y="1022"/>
      <point x="391" y="1010" type="qcurve" smooth="yes"/>
      <point x="406" y="997"/>
      <point x="438" y="997" type="qcurve" smooth="yes"/>
      <point x="467" y="997"/>
      <point x="482" y="1008" type="qcurve" smooth="yes"/>
      <point x="497" y="1018"/>
      <point x="497" y="1040" type="qcurve"/>
      <point x="527" y="1040"/>
      <point x="541" y="1022" type="qcurve" smooth="yes"/>
      <point x="556" y="1003"/>
      <point x="556" y="965" type="qcurve" smooth="yes"/>
      <point x="556" y="926"/>
      <point x="527" y="907" type="qcurve" smooth="yes"/>
      <point x="497" y="889"/>
      <point x="438" y="889" type="qcurve" smooth="yes"/>
      <point x="308" y="889"/>
      <point x="254" y="931" type="qcurve" smooth="yes"/>
      <point x="200" y="972"/>
      <point x="200" y="1048" type="qcurve"/>
      <point x="231" y="1110"/>
      <point x="299" y="1173" type="qcurve" smooth="yes"/>
      <point x="367" y="1237"/>
      <point x="472" y="1300" type="qcurve"/>
      <point x="734" y="1118" type="line"/>
      <point x="1023" y="1299" type="line"/>
      <point x="1150" y="1299" type="line"/>
    </contour>
  </outline>
</glyph>
<glyph name="uni17D8" format="1">
  <advance width="4450"/>
  <unicode hex="17D8"/>
  <outline>
    <contour>
      <point x="4070" y="1206" type="qcurve"/>
      <point x="4070" y="1300" type="line"/>
      <point x="4250" y="1300" type="line"/>
      <point x="4250" y="178" type="line" smooth="yes"/>
      <point x="4250" y="76"/>
      <point x="4202" y="38" type="qcurve" smooth="yes"/>
      <point x="4155" y="0"/>
      <point x="4060" y="0" type="qcurve" smooth="yes"/>
      <point x="4005" y="0"/>
      <point x="3978" y="22" type="qcurve" smooth="yes"/>
      <point x="3950" y="43"/>
      <point x="3950" y="88" type="qcurve"/>
      <point x="4013" y="88"/>
      <point x="4070" y="120"/>
      <point x="4070" y="178" type="qcurve" smooth="yes"/>
      <point x="4070" y="1058" type="line"/>
      <point x="3912" y="867"/>
      <point x="3700" y="867" type="qcurve" smooth="yes"/>
      <point x="3400" y="867"/>
      <point x="3400" y="1083" type="qcurve" smooth="yes"/>
      <point x="3400" y="1300"/>
      <point x="3650" y="1300" type="qcurve" smooth="yes"/>
      <point x="3750" y="1300"/>
      <point x="3750" y="1235" type="qcurve" smooth="yes"/>
      <point x="3750" y="1170"/>
      <point x="3650" y="1170" type="qcurve" smooth="yes"/>
      <point x="3580" y="1170"/>
      <point x="3580" y="1083" type="qcurve" smooth="yes"/>
      <point x="3580" y="997"/>
      <point x="3700" y="997" type="qcurve" smooth="yes"/>
      <point x="3918" y="997"/>
    </contour>
    <contour>
      <point x="1630" y="400" type="qcurve"/>
      <point x="1630" y="130" type="line"/>
      <point x="1690" y="130"/>
      <point x="1720" y="177" type="qcurve" smooth="yes"/>
      <point x="1750" y="224"/>
      <point x="1750" y="317" type="qcurve" smooth="yes"/>
      <point x="1750" y="359"/>
      <point x="1720" y="379" type="qcurve" smooth="yes"/>
      <point x="1690" y="400"/>
    </contour>
    <contour>
      <point x="1450" y="1000" type="line" smooth="yes"/>
      <point x="1450" y="1150"/>
      <point x="1550" y="1225" type="qcurve" smooth="yes"/>
      <point x="1650" y="1300"/>
      <point x="1895" y="1300" type="qcurve" smooth="yes"/>
      <point x="2140" y="1300"/>
      <point x="2240" y="1225" type="qcurve" smooth="yes"/>
      <point x="2340" y="1150"/>
      <point x="2340" y="1000" type="qcurve" smooth="yes"/>
      <point x="2340" y="300" type="line" smooth="yes"/>
      <point x="2340" y="200"/>
      <point x="2403" y="150" type="qcurve" smooth="yes"/>
      <point x="2465" y="100"/>
      <point x="2580" y="100" type="qcurve" smooth="yes"/>
      <point x="2695" y="100"/>
      <point x="2758" y="150" type="qcurve" smooth="yes"/>
      <point x="2820" y="200"/>
      <point x="2820" y="300" type="qcurve" smooth="yes"/>
      <point x="2820" y="831" type="line" smooth="yes"/>
      <point x="2820" y="922"/>
      <point x="2690" y="950" type="qcurve"/>
      <point x="2706" y="1068"/>
      <point x="2768" y="1184" type="qcurve" smooth="yes"/>
      <point x="2830" y="1300"/>
      <point x="2873" y="1300" type="qcurve" smooth="yes"/>
      <point x="2907" y="1300"/>
      <point x="2963" y="1263" type="qcurve" smooth="yes"/>
      <point x="3018" y="1225" type="line" smooth="yes"/>
      <point x="3043" y="1209"/>
      <point x="3063" y="1209" type="qcurve" smooth="yes"/>
      <point x="3083" y="1209"/>
      <point x="3100" y="1223" type="qcurve"/>
      <point x="3095" y="1143"/>
      <point x="3046" y="1060"/>
      <point x="3007" y="1055" type="qcurve" smooth="yes"/>
      <point x="3002" y="1054"/>
      <point x="2997" y="1054" type="qcurve" smooth="yes"/>
      <point x="2959" y="1054"/>
      <point x="2899" y="1090" type="qcurve" smooth="yes"/>
      <point x="2867" y="1108"/>
      <point x="2846" y="1108" type="qcurve" smooth="yes"/>
      <point x="2819" y="1108"/>
      <point x="2807" y="1030" type="qcurve"/>
      <point x="3000" y="979"/>
      <point x="3000" y="910" type="qcurve" smooth="yes"/>
      <point x="3000" y="300" type="line" smooth="yes"/>
      <point x="3000" y="150"/>
      <point x="2900" y="75" type="qcurve" smooth="yes"/>
      <point x="2800" y="0"/>
      <point x="2580" y="0" type="qcurve" smooth="yes"/>
      <point x="2360" y="0"/>
      <point x="2260" y="75" type="qcurve" smooth="yes"/>
      <point x="2160" y="150"/>
      <point x="2160" y="300" type="qcurve" smooth="yes"/>
      <point x="2160" y="1000" type="line" smooth="yes"/>
      <point x="2160" y="1100"/>
      <point x="2098" y="1150" type="qcurve" smooth="yes"/>
      <point x="2035" y="1200"/>
      <point x="1895" y="1200" type="qcurve" smooth="yes"/>
      <point x="1755" y="1200"/>
      <point x="1693" y="1150" type="qcurve" smooth="yes"/>
      <point x="1630" y="1100"/>
      <point x="1630" y="1000" type="qcurve" smooth="yes"/>
      <point x="1630" y="500" type="line"/>
      <point x="1740" y="500"/>
      <point x="1795" y="454" type="qcurve" smooth="yes"/>
      <point x="1850" y="409"/>
      <point x="1850" y="317" type="qcurve" smooth="yes"/>
      <point x="1850" y="173"/>
      <point x="1788" y="87" type="qcurve" smooth="yes"/>
      <point x="1725" y="0"/>
      <point x="1600" y="0" type="qcurve" smooth="yes"/>
      <point x="1450" y="0"/>
      <point x="1450" y="87" type="qcurve" smooth="yes"/>
    </contour>
    <contour>
      <point x="870" y="1206" type="qcurve"/>
      <point x="870" y="1300" type="line"/>
      <point x="1050" y="1300" type="line"/>
      <point x="1050" y="178" type="line" smooth="yes"/>
      <point x="1050" y="76"/>
      <point x="1002" y="38" type="qcurve" smooth="yes"/>
      <point x="955" y="0"/>
      <point x="860" y="0" type="qcurve" smooth="yes"/>
      <point x="805" y="0"/>
      <point x="778" y="22" type="qcurve" smooth="yes"/>
      <point x="750" y="43"/>
      <point x="750" y="88" type="qcurve"/>
      <point x="813" y="88"/>
      <point x="870" y="120"/>
      <point x="870" y="178" type="qcurve" smooth="yes"/>
      <point x="870" y="1058" type="line"/>
      <point x="712" y="867"/>
      <point x="500" y="867" type="qcurve" smooth="yes"/>
      <point x="200" y="867"/>
      <point x="200" y="1083" type="qcurve" smooth="yes"/>
      <point x="200" y="1300"/>
      <point x="450" y="1300" type="qcurve" smooth="yes"/>
      <point x="550" y="1300"/>
      <point x="550" y="1235" type="qcurve" smooth="yes"/>
      <point x="550" y="1170"/>
      <point x="450" y="1170" type="qcurve" smooth="yes"/>
      <point x="380" y="1170"/>
      <point x="380" y="1083" type="qcurve" smooth="yes"/>
      <point x="380" y="997"/>
      <point x="500" y="997" type="qcurve" smooth="yes"/>
      <point x="718" y="997"/>
    </contour>
  </outline>
</glyph>
<glyph name="uni17E0" format="1">
  <advance width="1450"/>
  <unicode hex="17E0"/>
  <outline>
    <contour>
      <point x="1070" y="780" type="line" smooth="yes"/>
      <point x="1070" y="975"/>
      <point x="992" y="1088" type="qcurve" smooth="yes"/>
      <point x="913" y="1200"/>
      <point x="725" y="1200" type="qcurve" smooth="yes"/>
      <point x="538" y="1200"/>
      <point x="459" y="1088" type="qcurve" smooth="yes"/>
      <point x="380" y="975"/>
      <point x="380" y="780" type="qcurve" smooth="yes"/>
      <point x="380" y="520" type="line" smooth="yes"/>
      <point x="380" y="325"/>
      <point x="459" y="213" type="qcurve" smooth="yes"/>
      <point x="538" y="100"/>
      <point x="725" y="100" type="qcurve" smooth="yes"/>
      <point x="913" y="100"/>
      <point x="992" y="213" type="qcurve" smooth="yes"/>
      <point x="1070" y="325"/>
      <point x="1070" y="520" type="qcurve" smooth="yes"/>
    </contour>
    <contour>
      <point x="1250" y="520" type="line" smooth="yes"/>
      <point x="1250" y="260"/>
      <point x="1119" y="130" type="qcurve" smooth="yes"/>
      <point x="988" y="0"/>
      <point x="725" y="0" type="qcurve" smooth="yes"/>
      <point x="463" y="0"/>
      <point x="331" y="130" type="qcurve" smooth="yes"/>
      <point x="200" y="260"/>
      <point x="200" y="520" type="qcurve" smooth="yes"/>
      <point x="200" y="780" type="line" smooth="yes"/>
      <point x="200" y="1040"/>
      <point x="331" y="1170" type="qcurve" smooth="yes"/>
      <point x="463" y="1300"/>
      <point x="725" y="1300" type="qcurve" smooth="yes"/>
      <point x="988" y="1300"/>
      <point x="1119" y="1170" type="qcurve" smooth="yes"/>
      <point x="1250" y="1040"/>
      <point x="1250" y="780" type="qcurve" smooth="yes"/>
    </contour>
  </outline>
</glyph>
<glyph name="uni17E1" format="1">
  <advance width="1550"/>
  <unicode hex="17E1"/>
  <outline>
    <contour>
      <point x="1147" y="202" type="qcurve" smooth="yes"/>
      <point x="942" y="0"/>
      <point x="600" y="0" type="qcurve"/>
      <point x="600" y="87" type="line"/>
      <point x="820" y="87"/>
      <point x="995" y="272" type="qcurve" smooth="yes"/>
      <point x="1170" y="457"/>
      <point x="1170" y="780" type="qcurve" smooth="yes"/>
      <point x="1170" y="1017"/>
      <point x="1052" y="1109" type="qcurve" smooth="yes"/>
      <point x="933" y="1200"/>
      <point x="748" y="1200" type="qcurve" smooth="yes"/>
      <point x="572" y="1200"/>
      <point x="476" y="1113" type="qcurve" smooth="yes"/>
      <point x="380" y="1025"/>
      <point x="380" y="867" type="qcurve" smooth="yes"/>
      <point x="380" y="732"/>
      <point x="495" y="576"/>
      <point x="603" y="576" type="qcurve" smooth="yes"/>
      <point x="667" y="576"/>
      <point x="731" y="666"/>
      <point x="731" y="723" type="qcurve" smooth="yes"/>
      <point x="731" y="732" type="line"/>
      <point x="707" y="726"/>
      <point x="688" y="726" type="qcurve" smooth="yes"/>
      <point x="633" y="726"/>
      <point x="610" y="771" type="qcurve" smooth="yes"/>
      <point x="595" y="801"/>
      <point x="595" y="826" type="qcurve" smooth="yes"/>
      <point x="595" y="888"/>
      <point x="687" y="925" type="qcurve" smooth="yes"/>
      <point x="730" y="941"/>
      <point x="765" y="941" type="qcurve" smooth="yes"/>
      <point x="835" y="941"/>
      <point x="871" y="873" type="qcurve" smooth="yes"/>
      <point x="904" y="809"/>
      <point x="904" y="752" type="qcurve" smooth="yes"/>
      <point x="904" y="712"/>
      <point x="866" y="583"/>
      <point x="762" y="492"/>
      <point x="675" y="481" type="qcurve" smooth="yes"/>
      <point x="642" y="476"/>
      <point x="603" y="476" type="qcurve" smooth="yes"/>
      <point x="540" y="476"/>
      <point x="385" y="508"/>
      <point x="293" y="602" type="qcurve" smooth="yes"/>
      <point x="200" y="696"/>
      <point x="200" y="867" type="qcurve" smooth="yes"/>
      <point x="200" y="1062"/>
      <point x="347" y="1181" type="qcurve" smooth="yes"/>
      <point x="495" y="1300"/>
      <point x="748" y="1300" type="qcurve" smooth="yes"/>
      <point x="1011" y="1300"/>
      <point x="1181" y="1177" type="qcurve" smooth="yes"/>
      <point x="1350" y="1053"/>
      <point x="1350" y="780" type="qcurve" smooth="yes"/>
      <point x="1350" y="403"/>
    </contour>
  </outline>
</glyph>
<glyph name="uni17E2" format="1">
  <advance width="1550"/>
  <unicode hex="17E2"/>
  <outline>
    <contour>
      <point x="730" y="585" type="qcurve"/>
      <point x="730" y="520" type="line"/>
      <point x="786" y="520"/>
      <point x="786" y="563" type="qcurve" smooth="yes"/>
      <point x="786" y="574"/>
      <point x="773" y="580" type="qcurve" smooth="yes"/>
      <point x="761" y="585"/>
    </contour>
    <contour>
      <point x="200" y="1320" type="line" smooth="yes"/>
      <point x="200" y="1436"/>
      <point x="50" y="1436" type="qcurve"/>
      <point x="50" y="1570"/>
      <point x="180" y="1570" type="qcurve" smooth="yes"/>
      <point x="380" y="1570"/>
      <point x="380" y="1320" type="qcurve" smooth="yes"/>
      <point x="380" y="347" type="line" smooth="yes"/>
      <point x="380" y="236"/>
      <point x="574" y="100"/>
      <point x="750" y="100" type="qcurve" smooth="yes"/>
      <point x="800" y="100" type="line" smooth="yes"/>
      <point x="976" y="100"/>
      <point x="1170" y="236"/>
      <point x="1170" y="347" type="qcurve" smooth="yes"/>
      <point x="1170" y="1040" type="line" smooth="yes"/>
      <point x="1170" y="1095"/>
      <point x="1112" y="1154" type="qcurve" smooth="yes"/>
      <point x="1109" y="1155"/>
      <point x="1105" y="1155" type="qcurve" smooth="yes"/>
      <point x="1070" y="1155"/>
      <point x="951" y="997" type="qcurve"/>
      <point x="834" y="1155"/>
      <point x="798" y="1155" type="qcurve" smooth="yes"/>
      <point x="794" y="1155"/>
      <point x="791" y="1154" type="qcurve" smooth="yes"/>
      <point x="730" y="1095"/>
      <point x="730" y="1040" type="qcurve" smooth="yes"/>
      <point x="730" y="672" type="line"/>
      <point x="812" y="672"/>
      <point x="849" y="645" type="qcurve" smooth="yes"/>
      <point x="886" y="617"/>
      <point x="886" y="563" type="qcurve" smooth="yes"/>
      <point x="886" y="433"/>
      <point x="730" y="433" type="qcurve" smooth="yes"/>
      <point x="550" y="433"/>
      <point x="550" y="520" type="qcurve" smooth="yes"/>
      <point x="550" y="1040" type="line" smooth="yes"/>
      <point x="550" y="1146"/>
      <point x="659" y="1223" type="qcurve" smooth="yes"/>
      <point x="768" y="1300"/>
      <point x="798" y="1300" type="qcurve" smooth="yes"/>
      <point x="828" y="1300"/>
      <point x="951" y="1184" type="qcurve"/>
      <point x="1074" y="1300"/>
      <point x="1103" y="1300" type="qcurve" smooth="yes"/>
      <point x="1133" y="1300"/>
      <point x="1241" y="1223" type="qcurve" smooth="yes"/>
      <point x="1350" y="1146"/>
      <point x="1350" y="1040" type="qcurve" smooth="yes"/>
      <point x="1350" y="347" type="line" smooth="yes"/>
      <point x="1350" y="199"/>
      <point x="1210" y="100" type="qcurve" smooth="yes"/>
      <point x="1070" y="0"/>
      <point x="800" y="0" type="qcurve" smooth="yes"/>
      <point x="750" y="0" type="line" smooth="yes"/>
      <point x="480" y="0"/>
      <point x="340" y="100" type="qcurve" smooth="yes"/>
      <point x="200" y="199"/>
      <point x="200" y="347" type="qcurve" smooth="yes"/>
    </contour>
  </outline>
</glyph>
<glyph name="uni17E3" format="1">
  <advance width="1750"/>
  <unicode hex="17E3"/>
  <outline>
    <contour>
      <point x="380" y="175" type="qcurve"/>
      <point x="380" y="100" type="line"/>
      <point x="436" y="100"/>
      <point x="436" y="150" type="qcurve" smooth="yes"/>
      <point x="436" y="162"/>
      <point x="423" y="169" type="qcurve" smooth="yes"/>
      <point x="411" y="175"/>
    </contour>
    <contour>
      <point x="380" y="275" type="line"/>
      <point x="462" y="275"/>
      <point x="499" y="244" type="qcurve" smooth="yes"/>
      <point x="536" y="212"/>
      <point x="536" y="150" type="qcurve" smooth="yes"/>
      <point x="536" y="0"/>
      <point x="380" y="0" type="qcurve" smooth="yes"/>
      <point x="200" y="0"/>
      <point x="200" y="100" type="qcurve" smooth="yes"/>
      <point x="200" y="997" type="line" smooth="yes"/>
      <point x="200" y="1149"/>
      <point x="294" y="1224" type="qcurve" smooth="yes"/>
      <point x="388" y="1300"/>
      <point x="575" y="1300" type="qcurve" smooth="yes"/>
      <point x="782" y="1300"/>
      <point x="875" y="1207" type="qcurve"/>
      <point x="968" y="1300"/>
      <point x="1175" y="1300" type="qcurve" smooth="yes"/>
      <point x="1363" y="1300"/>
      <point x="1456" y="1224" type="qcurve" smooth="yes"/>
      <point x="1550" y="1149"/>
      <point x="1550" y="997" type="qcurve" smooth="yes"/>
      <point x="1550" y="0" type="line"/>
      <point x="1370" y="0" type="line"/>
      <point x="1370" y="997" type="line" smooth="yes"/>
      <point x="1370" y="1099"/>
      <point x="1321" y="1149" type="qcurve" smooth="yes"/>
      <point x="1273" y="1200"/>
      <point x="1175" y="1200" type="qcurve" smooth="yes"/>
      <point x="1070" y="1200"/>
      <point x="1018" y="1149" type="qcurve" smooth="yes"/>
      <point x="965" y="1099"/>
      <point x="965" y="997" type="qcurve" smooth="yes"/>
      <point x="965" y="0" type="line"/>
      <point x="785" y="0" type="line"/>
      <point x="785" y="997" type="line" smooth="yes"/>
      <point x="785" y="1099"/>
      <point x="733" y="1149" type="qcurve" smooth="yes"/>
      <point x="680" y="1200"/>
      <point x="575" y="1200" type="qcurve" smooth="yes"/>
      <point x="478" y="1200"/>
      <point x="429" y="1149" type="qcurve" smooth="yes"/>
      <point x="380" y="1099"/>
      <point x="380" y="997" type="qcurve" smooth="yes"/>
    </contour>
  </outline>
</glyph>
<glyph name="uni17E4" format="1">
  <advance width="1450"/>
  <unicode hex="17E4"/>
  <outline>
    <contour>
      <point x="1130" y="618" type="qcurve" smooth="yes"/>
      <point x="1140" y="626"/>
      <point x="1140" y="649" type="qcurve" smooth="yes"/>
      <point x="1140" y="676"/>
      <point x="1070" y="694" type="qcurve"/>
      <point x="1070" y="608" type="line"/>
      <point x="1120" y="608"/>
    </contour>
    <contour>
      <point x="200" y="706" type="line" smooth="yes"/>
      <point x="200" y="1001"/>
      <point x="635" y="1124" type="qcurve" smooth="yes"/>
      <point x="1070" y="1247"/>
      <point x="1070" y="1350" type="qcurve" smooth="yes"/>
      <point x="1070" y="1412"/>
      <point x="962" y="1412" type="qcurve"/>
      <point x="962" y="1500"/>
      <point x="1062" y="1500" type="qcurve" smooth="yes"/>
      <point x="1250" y="1500"/>
      <point x="1250" y="1350" type="qcurve" smooth="yes"/>
      <point x="1250" y="1165"/>
      <point x="815" y="1036" type="qcurve" smooth="yes"/>
      <point x="380" y="906"/>
      <point x="380" y="706" type="qcurve" smooth="yes"/>
      <point x="380" y="265" type="line" smooth="yes"/>
      <point x="380" y="214"/>
      <point x="544" y="132"/>
      <point x="650" y="132" type="qcurve" smooth="yes"/>
      <point x="1062" y="132" type="line"/>
      <point x="890" y="327"/>
      <point x="890" y="397" type="qcurve" smooth="yes"/>
      <point x="890" y="618" type="line" smooth="yes"/>
      <point x="890" y="794"/>
      <point x="1070" y="794" type="qcurve" smooth="yes"/>
      <point x="1120" y="794"/>
      <point x="1211" y="751"/>
      <point x="1250" y="672"/>
      <point x="1250" y="622" type="qcurve" smooth="yes"/>
      <point x="1250" y="574"/>
      <point x="1180" y="485"/>
      <point x="1070" y="485" type="qcurve"/>
      <point x="1070" y="397" type="line" smooth="yes"/>
      <point x="1070" y="308"/>
      <point x="1160" y="209" type="qcurve" smooth="yes"/>
      <point x="1250" y="110" type="line"/>
      <point x="1250" y="0" type="line"/>
      <point x="650" y="0" type="line" smooth="yes"/>
      <point x="450" y="0"/>
      <point x="200" y="150"/>
      <point x="200" y="265" type="qcurve" smooth="yes"/>
    </contour>
  </outline>
</glyph>
<glyph name="uni17E5" format="1">
  <advance width="1450"/>
  <unicode hex="17E5"/>
  <outline>
    <contour>
      <point x="622" y="1069" type="qcurve"/>
      <point x="656" y="1099"/>
      <point x="656" y="1128" type="qcurve" smooth="yes"/>
      <point x="656" y="1205"/>
      <point x="578" y="1205" type="qcurve" smooth="yes"/>
      <point x="500" y="1205"/>
      <point x="500" y="1128" type="qcurve" smooth="yes"/>
      <point x="500" y="1089"/>
    </contour>
    <contour>
      <point x="1130" y="529" type="qcurve" smooth="yes"/>
      <point x="1140" y="538"/>
      <point x="1140" y="560" type="qcurve" smooth="yes"/>
      <point x="1140" y="588"/>
      <point x="1080" y="605" type="qcurve"/>
      <point x="1080" y="520" type="line"/>
      <point x="1120" y="520"/>
    </contour>
    <contour>
      <point x="765" y="1047" type="qcurve"/>
      <point x="966" y="1024" type="line" smooth="yes"/>
      <point x="983" y="1022"/>
      <point x="997" y="1022" type="qcurve" smooth="yes"/>
      <point x="1070" y="1022"/>
      <point x="1070" y="1147" type="qcurve" smooth="yes"/>
      <point x="1070" y="1350" type="line" smooth="yes"/>
      <point x="1070" y="1500"/>
      <point x="1250" y="1500" type="qcurve" smooth="yes"/>
      <point x="1350" y="1500"/>
      <point x="1350" y="1412" type="qcurve"/>
      <point x="1250" y="1412"/>
      <point x="1250" y="1350" type="qcurve" smooth="yes"/>
      <point x="1250" y="1147" type="line" smooth="yes"/>
      <point x="1250" y="882"/>
      <point x="1025" y="882" type="qcurve"/>
      <point x="639" y="940" type="line"/>
      <point x="608" y="922"/>
      <point x="570" y="904" type="qcurve" smooth="yes"/>
      <point x="380" y="817"/>
      <point x="380" y="626" type="qcurve" smooth="yes"/>
      <point x="380" y="265" type="line" smooth="yes"/>
      <point x="380" y="214"/>
      <point x="544" y="132"/>
      <point x="650" y="132" type="qcurve" smooth="yes"/>
      <point x="1062" y="132" type="line"/>
      <point x="900" y="283"/>
      <point x="900" y="353" type="qcurve" smooth="yes"/>
      <point x="900" y="529" type="line" smooth="yes"/>
      <point x="900" y="706"/>
      <point x="1046" y="706" type="qcurve" smooth="yes"/>
      <point x="1120" y="706"/>
      <point x="1211" y="663"/>
      <point x="1250" y="584"/>
      <point x="1250" y="534" type="qcurve" smooth="yes"/>
      <point x="1250" y="485"/>
      <point x="1180" y="397"/>
      <point x="1080" y="397" type="qcurve"/>
      <point x="1080" y="353" type="line" smooth="yes"/>
      <point x="1080" y="264"/>
      <point x="1250" y="110" type="qcurve"/>
      <point x="1250" y="0" type="line"/>
      <point x="650" y="0" type="line" smooth="yes"/>
      <point x="450" y="0"/>
      <point x="200" y="150"/>
      <point x="200" y="265" type="qcurve" smooth="yes"/>
      <point x="200" y="626" type="line" smooth="yes"/>
      <point x="200" y="874"/>
      <point x="466" y="986" type="qcurve"/>
      <point x="366" y="1034"/>
      <point x="366" y="1128" type="qcurve" smooth="yes"/>
      <point x="366" y="1324"/>
      <point x="578" y="1324" type="qcurve" smooth="yes"/>
      <point x="790" y="1324"/>
      <point x="790" y="1128" type="qcurve" smooth="yes"/>
      <point x="790" y="1086"/>
    </contour>
  </outline>
</glyph>
<glyph name="uni17E6" format="1">
  <advance width="1450"/>
  <unicode hex="17E6"/>
  <outline>
    <contour>
      <point x="592" y="580" type="qcurve" smooth="yes"/>
      <point x="568" y="584"/>
      <point x="546" y="584" type="qcurve" smooth="yes"/>
      <point x="476" y="584"/>
      <point x="428" y="538" type="qcurve" smooth="yes"/>
      <point x="380" y="492"/>
      <point x="380" y="407" type="qcurve" smooth="yes"/>
      <point x="380" y="283"/>
      <point x="456" y="207" type="qcurve" smooth="yes"/>
      <point x="532" y="130"/>
      <point x="726" y="130" type="qcurve" smooth="yes"/>
      <point x="905" y="130"/>
      <point x="988" y="223" type="qcurve" smooth="yes"/>
      <point x="1070" y="316"/>
      <point x="1070" y="598" type="qcurve" smooth="yes"/>
      <point x="1070" y="693" type="line" smooth="yes"/>
      <point x="1070" y="957"/>
      <point x="983" y="1064" type="qcurve" smooth="yes"/>
      <point x="896" y="1170"/>
      <point x="731" y="1170" type="qcurve" smooth="yes"/>
      <point x="462" y="1170"/>
      <point x="380" y="954" type="qcurve"/>
      <point x="380" y="867"/>
      <point x="275" y="867" type="qcurve" smooth="yes"/>
      <point x="200" y="867"/>
      <point x="200" y="954" type="qcurve" smooth="yes"/>
      <point x="200" y="1300" type="line" smooth="yes"/>
      <point x="200" y="1401"/>
      <point x="50" y="1401" type="qcurve"/>
      <point x="50" y="1517"/>
      <point x="180" y="1517" type="qcurve" smooth="yes"/>
      <point x="380" y="1517"/>
      <point x="380" y="1300" type="qcurve" smooth="yes"/>
      <point x="380" y="1183" type="line"/>
      <point x="518" y="1300"/>
      <point x="731" y="1300" type="qcurve" smooth="yes"/>
      <point x="970" y="1300"/>
      <point x="1099" y="1171" type="qcurve" smooth="yes"/>
      <point x="1250" y="1020"/>
      <point x="1250" y="693" type="qcurve" smooth="yes"/>
      <point x="1250" y="598" type="line" smooth="yes"/>
      <point x="1250" y="251"/>
      <point x="1110" y="121" type="qcurve" smooth="yes"/>
      <point x="980" y="0"/>
      <point x="726" y="0" type="qcurve" smooth="yes"/>
      <point x="438" y="0"/>
      <point x="319" y="123" type="qcurve" smooth="yes"/>
      <point x="200" y="247"/>
      <point x="200" y="407" type="qcurve" smooth="yes"/>
      <point x="200" y="540"/>
      <point x="319" y="628" type="qcurve" smooth="yes"/>
      <point x="416" y="700"/>
      <point x="544" y="700" type="qcurve" smooth="yes"/>
      <point x="573" y="700"/>
      <point x="603" y="697" type="qcurve" smooth="yes"/>
      <point x="768" y="678"/>
      <point x="824" y="594" type="qcurve" smooth="yes"/>
      <point x="853" y="550"/>
      <point x="853" y="501" type="qcurve" smooth="yes"/>
      <point x="853" y="453"/>
      <point x="827" y="400" type="qcurve" smooth="yes"/>
      <point x="800" y="344"/>
      <point x="746" y="344" type="qcurve" smooth="yes"/>
      <point x="723" y="344"/>
      <point x="696" y="355" type="qcurve" smooth="yes"/>
      <point x="631" y="378"/>
      <point x="631" y="425" type="qcurve" smooth="yes"/>
      <point x="631" y="445"/>
      <point x="643" y="468" type="qcurve" smooth="yes"/>
      <point x="664" y="512"/>
      <point x="702" y="521" type="qcurve"/>
      <point x="692" y="563"/>
    </contour>
  </outline>
</glyph>
<glyph name="uni17E7" format="1">
  <advance width="1680"/>
  <unicode hex="17E7"/>
  <outline>
    <contour>
      <point x="380" y="192" type="line"/>
      <point x="456" y="270"/>
      <point x="456" y="337" type="qcurve" smooth="yes"/>
      <point x="456" y="372"/>
      <point x="429" y="388" type="qcurve" smooth="yes"/>
      <point x="402" y="404"/>
      <point x="380" y="404" type="qcurve"/>
    </contour>
    <contour>
      <point x="1300" y="1340" type="line" smooth="yes"/>
      <point x="1300" y="1456"/>
      <point x="1150" y="1456" type="qcurve"/>
      <point x="1150" y="1590"/>
      <point x="1280" y="1590" type="qcurve" smooth="yes"/>
      <point x="1480" y="1590"/>
      <point x="1480" y="1340" type="qcurve" smooth="yes"/>
      <point x="1480" y="173" type="line" smooth="yes"/>
      <point x="1480" y="0"/>
      <point x="1225" y="0" type="qcurve" smooth="yes"/>
      <point x="970" y="0"/>
      <point x="970" y="173" type="qcurve" smooth="yes"/>
      <point x="970" y="1040" type="line" smooth="yes"/>
      <point x="970" y="1095"/>
      <point x="907" y="1150" type="qcurve"/>
      <point x="886" y="1162"/>
      <point x="862" y="1162" type="qcurve" smooth="yes"/>
      <point x="782" y="1162"/>
      <point x="676" y="1022" type="qcurve"/>
      <point x="569" y="1162"/>
      <point x="489" y="1162" type="qcurve" smooth="yes"/>
      <point x="465" y="1162"/>
      <point x="444" y="1150" type="qcurve"/>
      <point x="380" y="1095"/>
      <point x="380" y="1040" type="qcurve" smooth="yes"/>
      <point x="380" y="520" type="line"/>
      <point x="503" y="520"/>
      <point x="547" y="469" type="qcurve" smooth="yes"/>
      <point x="590" y="417"/>
      <point x="590" y="360" type="qcurve" smooth="yes"/>
      <point x="590" y="292"/>
      <point x="550" y="217" type="qcurve" smooth="yes"/>
      <point x="510" y="140"/>
      <point x="434" y="70" type="qcurve"/>
      <point x="350" y="0"/>
      <point x="294" y="0" type="qcurve" smooth="yes"/>
      <point x="200" y="0"/>
      <point x="200" y="87" type="qcurve" smooth="yes"/>
      <point x="200" y="1040" type="line" smooth="yes"/>
      <point x="200" y="1146"/>
      <point x="316" y="1223" type="qcurve" smooth="yes"/>
      <point x="432" y="1300"/>
      <point x="495" y="1300" type="qcurve" smooth="yes"/>
      <point x="547" y="1300"/>
      <point x="676" y="1184" type="qcurve"/>
      <point x="804" y="1300"/>
      <point x="857" y="1300" type="qcurve" smooth="yes"/>
      <point x="919" y="1300"/>
      <point x="1034" y="1223" type="qcurve" smooth="yes"/>
      <point x="1150" y="1146"/>
      <point x="1150" y="1040" type="qcurve" smooth="yes"/>
      <point x="1150" y="173" type="line" smooth="yes"/>
      <point x="1150" y="125"/>
      <point x="1225" y="125" type="qcurve" smooth="yes"/>
      <point x="1300" y="125"/>
      <point x="1300" y="173" type="qcurve" smooth="yes"/>
    </contour>
  </outline>
</glyph>
<glyph name="uni17E8" format="1">
  <advance width="1450"/>
  <unicode hex="17E8"/>
  <outline>
    <contour>
      <point x="1070" y="511" type="qcurve"/>
      <point x="1070" y="595" type="line"/>
      <point x="1012" y="577"/>
      <point x="1012" y="550" type="qcurve" smooth="yes"/>
      <point x="1012" y="529"/>
      <point x="1022" y="520" type="qcurve" smooth="yes"/>
      <point x="1032" y="511"/>
    </contour>
    <contour>
      <point x="1070" y="390" type="line"/>
      <point x="972" y="390"/>
      <point x="902" y="477"/>
      <point x="902" y="524" type="qcurve" smooth="yes"/>
      <point x="902" y="574"/>
      <point x="941" y="651"/>
      <point x="1032" y="693"/>
      <point x="1086" y="693" type="qcurve" smooth="yes"/>
      <point x="1250" y="693"/>
      <point x="1250" y="520" type="qcurve" smooth="yes"/>
      <point x="1250" y="260" type="line" smooth="yes"/>
      <point x="1250" y="0"/>
      <point x="960" y="0" type="qcurve" smooth="yes"/>
      <point x="796" y="0"/>
      <point x="725" y="110" type="qcurve"/>
      <point x="654" y="0"/>
      <point x="490" y="0" type="qcurve" smooth="yes"/>
      <point x="200" y="0"/>
      <point x="200" y="260" type="qcurve" smooth="yes"/>
      <point x="200" y="867" type="line" smooth="yes"/>
      <point x="200" y="1053"/>
      <point x="318" y="1176" type="qcurve" smooth="yes"/>
      <point x="437" y="1300"/>
      <point x="709" y="1300" type="qcurve" smooth="yes"/>
      <point x="932" y="1300"/>
      <point x="1070" y="1183" type="qcurve"/>
      <point x="1070" y="1300" type="line" smooth="yes"/>
      <point x="1070" y="1517"/>
      <point x="1270" y="1517" type="qcurve" smooth="yes"/>
      <point x="1400" y="1517"/>
      <point x="1400" y="1401" type="qcurve"/>
      <point x="1250" y="1401"/>
      <point x="1250" y="1300" type="qcurve" smooth="yes"/>
      <point x="1250" y="997" type="line" smooth="yes"/>
      <point x="1250" y="910"/>
      <point x="1156" y="910" type="qcurve" smooth="yes"/>
      <point x="1084" y="910"/>
      <point x="1062" y="954" type="qcurve" smooth="yes"/>
      <point x="1015" y="1062"/>
      <point x="927" y="1116" type="qcurve" smooth="yes"/>
      <point x="839" y="1170"/>
      <point x="709" y="1170" type="qcurve" smooth="yes"/>
      <point x="531" y="1170"/>
      <point x="456" y="1094" type="qcurve" smooth="yes"/>
      <point x="380" y="1017"/>
      <point x="380" y="867" type="qcurve" smooth="yes"/>
      <point x="380" y="260" type="line" smooth="yes"/>
      <point x="380" y="125"/>
      <point x="490" y="125" type="qcurve" smooth="yes"/>
      <point x="577" y="125"/>
      <point x="620" y="180" type="qcurve" smooth="yes"/>
      <point x="663" y="236"/>
      <point x="663" y="291" type="qcurve" smooth="yes"/>
      <point x="663" y="347"/>
      <point x="725" y="347" type="qcurve" smooth="yes"/>
      <point x="787" y="347"/>
      <point x="787" y="291" type="qcurve" smooth="yes"/>
      <point x="787" y="236"/>
      <point x="830" y="180" type="qcurve" smooth="yes"/>
      <point x="874" y="125"/>
      <point x="960" y="125" type="qcurve" smooth="yes"/>
      <point x="1070" y="125"/>
      <point x="1070" y="260" type="qcurve" smooth="yes"/>
    </contour>
  </outline>
</glyph>
<glyph name="uni17E9" format="1">
  <advance width="1450"/>
  <unicode hex="17E9"/>
  <outline>
    <contour>
      <point x="1022" y="204" type="qcurve"/>
      <point x="1061" y="234" type="line"/>
      <point x="1061" y="271"/>
      <point x="1042" y="271" type="qcurve" smooth="yes"/>
      <point x="1037" y="271"/>
      <point x="1032" y="270" type="qcurve" smooth="yes"/>
      <point x="1009" y="262"/>
      <point x="1003" y="251" type="qcurve" smooth="yes"/>
      <point x="1002" y="248"/>
      <point x="1002" y="244" type="qcurve" smooth="yes"/>
      <point x="1002" y="231"/>
    </contour>
    <contour>
      <point x="916" y="155" type="qcurve"/>
      <point x="881" y="215"/>
      <point x="881" y="255" type="qcurve" smooth="yes"/>
      <point x="881" y="274"/>
      <point x="889" y="288" type="qcurve" smooth="yes"/>
      <point x="913" y="332"/>
      <point x="964" y="349" type="qcurve" smooth="yes"/>
      <point x="1012" y="366"/>
      <point x="1057" y="366" type="qcurve" smooth="yes"/>
      <point x="1066" y="366" type="line" smooth="yes"/>
      <point x="1114" y="364"/>
      <point x="1157" y="335" type="qcurve" smooth="yes"/>
      <point x="1200" y="306"/>
      <point x="1200" y="216" type="qcurve" smooth="yes"/>
      <point x="1200" y="125"/>
      <point x="1054" y="62" type="qcurve" smooth="yes"/>
      <point x="907" y="0"/>
      <point x="700" y="0" type="qcurve" smooth="yes"/>
      <point x="452" y="0"/>
      <point x="334" y="90" type="qcurve" smooth="yes"/>
      <point x="200" y="192"/>
      <point x="200" y="390" type="qcurve" smooth="yes"/>
      <point x="200" y="537"/>
      <point x="274" y="634" type="qcurve" smooth="yes"/>
      <point x="349" y="731"/>
      <point x="498" y="777" type="qcurve"/>
      <point x="400" y="852"/>
      <point x="400" y="997" type="qcurve" smooth="yes"/>
      <point x="400" y="1159"/>
      <point x="503" y="1234" type="qcurve" smooth="yes"/>
      <point x="592" y="1300"/>
      <point x="779" y="1300" type="qcurve" smooth="yes"/>
      <point x="932" y="1300"/>
      <point x="1070" y="1183" type="qcurve"/>
      <point x="1070" y="1300" type="line" smooth="yes"/>
      <point x="1070" y="1401"/>
      <point x="912" y="1401" type="qcurve"/>
      <point x="912" y="1517"/>
      <point x="1042" y="1517" type="qcurve" smooth="yes"/>
      <point x="1250" y="1517"/>
      <point x="1250" y="1300" type="qcurve" smooth="yes"/>
      <point x="1250" y="1040" type="line" smooth="yes"/>
      <point x="1250" y="954"/>
      <point x="1156" y="954" type="qcurve" smooth="yes"/>
      <point x="1124" y="954"/>
      <point x="1102" y="997" type="qcurve"/>
      <point x="938" y="1170"/>
      <point x="779" y="1170" type="qcurve" smooth="yes"/>
      <point x="682" y="1170"/>
      <point x="631" y="1136" type="qcurve" smooth="yes"/>
      <point x="580" y="1102"/>
      <point x="580" y="1001" type="qcurve" smooth="yes"/>
      <point x="580" y="910"/>
      <point x="689" y="818"/>
      <point x="830" y="818" type="qcurve" smooth="yes"/>
      <point x="1024" y="818"/>
      <point x="1194" y="700" type="qcurve" smooth="yes"/>
      <point x="1250" y="657"/>
      <point x="1250" y="579" type="qcurve" smooth="yes"/>
      <point x="1250" y="544"/>
      <point x="1227" y="544" type="qcurve" smooth="yes"/>
      <point x="1198" y="544"/>
      <point x="1135" y="597" type="qcurve" smooth="yes"/>
      <point x="1020" y="693"/>
      <point x="830" y="693" type="qcurve" smooth="yes"/>
      <point x="609" y="693"/>
      <point x="495" y="618" type="qcurve" smooth="yes"/>
      <point x="380" y="542"/>
      <point x="380" y="390" type="qcurve" smooth="yes"/>
      <point x="380" y="254"/>
      <point x="463" y="192" type="qcurve" smooth="yes"/>
      <point x="545" y="130"/>
      <point x="700" y="130" type="qcurve" smooth="yes"/>
      <point x="806" y="130"/>
    </contour>
  </outline>
</glyph>
<glyph name="uni17F3" format="1">
  <advance width="1296"/>
  <unicode hex="17F3"/>
  <outline>
    <contour>
      <point x="458" y="700" type="line"/>
      <point x="647" y="151" type="line"/>
      <point x="835" y="700" type="line"/>
      <point x="954" y="700" type="line"/>
      <point x="1196" y="0" type="line"/>
      <point x="1091" y="0" type="line"/>
      <point x="895" y="565" type="line"/>
      <point x="700" y="0" type="line"/>
      <point x="595" y="0" type="line"/>
      <point x="399" y="565" type="line"/>
      <point x="204" y="0" type="line"/>
      <point x="100" y="0" type="line"/>
      <point x="339" y="700" type="line"/>
    </contour>
  </outline>
</glyph>
<glyph name="uni17F5" format="1">
  <advance width="800"/>
  <unicode hex="17F5"/>
  <outline>
    <contour>
      <point x="201" y="201" type="qcurve" smooth="yes"/>
      <point x="201" y="328"/>
      <point x="326" y="474" type="qcurve"/>
      <point x="100" y="700" type="line"/>
      <point x="251" y="700" type="line"/>
      <point x="400" y="551" type="line"/>
      <point x="550" y="701" type="line"/>
      <point x="701" y="701" type="line"/>
      <point x="474" y="474" type="line"/>
      <point x="601" y="328"/>
      <point x="601" y="201" type="qcurve" smooth="yes"/>
      <point x="601" y="1"/>
      <point x="401" y="1" type="qcurve" smooth="yes"/>
      <point x="201" y="1"/>
    </contour>
    <contour>
      <point x="500" y="200" type="qcurve" smooth="yes"/>
      <point x="501" y="282"/>
      <point x="400" y="397" type="qcurve"/>
      <point x="301" y="282"/>
      <point x="301" y="201" type="qcurve" smooth="yes"/>
      <point x="301" y="100"/>
      <point x="401" y="101" type="qcurve" smooth="yes"/>
      <point x="501" y="101"/>
    </contour>
  </outline>
</glyph>
<glyph name="uni17F8" format="1">
  <advance width="502"/>
  <unicode hex="17F8"/>
  <outline>
    <contour>
      <point x="449" y="700" type="line"/>
      <point x="204" y="0" type="line"/>
      <point x="100" y="0" type="line"/>
      <point x="339" y="700" type="line"/>
    </contour>
  </outline>
</glyph>
<glyph name="uni17F9" format="1">
  <advance width="900"/>
  <unicode hex="17F9"/>
  <outline>
    <contour>
      <point x="100" y="112" type="line"/>
      <point x="684" y="568" type="line"/>
      <point x="718" y="469" type="line"/>
      <point x="247" y="100" type="line"/>
      <point x="550" y="101" type="line" smooth="yes"/>
      <point x="851" y="101"/>
      <point x="851" y="-124" type="qcurve" smooth="yes"/>
      <point x="850" y="-350"/>
      <point x="550" y="-351" type="qcurve"/>
      <point x="500" y="-350" type="line"/>
      <point x="500" y="-250" type="line"/>
      <point x="551" y="-251" type="line" smooth="yes"/>
      <point x="751" y="-251"/>
      <point x="751" y="-125" type="qcurve" smooth="yes"/>
      <point x="751" y="0"/>
      <point x="551" y="0" type="qcurve" smooth="yes"/>
      <point x="139" y="0" type="line"/>
    </contour>
  </outline>
</glyph>
